<svg id="appointment" xmlns="http://www.w3.org/2000/svg" width="24.003" height="24.003" viewBox="0 0 24.003 24.003">
  <g id="Group_2765" data-name="Group 2765">
    <g id="Group_2764" data-name="Group 2764">
      <path id="Path_38540" data-name="Path 38540" d="M21.659,2.063H19.424V1.406a1.406,1.406,0,1,0-2.813,0v.656H8.736V1.406a1.406,1.406,0,0,0-2.813,0V2.08A.468.468,0,0,0,5.8,2.063H3.93A2.347,2.347,0,0,0,1.586,4.407L1.522,14.97a.469.469,0,1,0,.938,0v-.16l.063-7.919,20.909-.113a.469.469,0,0,0,0-.938L2.523,5.954V4.407A1.408,1.408,0,0,1,3.93,3H5.8a.47.47,0,0,0,.125-.017v.6a1.406,1.406,0,1,0,2.813,0V3h7.876v.586a1.406,1.406,0,1,0,2.813,0V3h2.235a1.408,1.408,0,0,1,1.406,1.406V22.221a.844.844,0,1,1-1.688,0V21.009a.469.469,0,0,0-.469-.469H11.094a.469.469,0,1,0,0,.938H20.44v.744a1.771,1.771,0,0,0,.213.844H1.781a.845.845,0,0,1-.844-.844v-.744H11.431a.469.469,0,1,0,0-.938H6.747a3.844,3.844,0,1,0-5.01,0H.469A.469.469,0,0,0,0,21.009v1.213A1.784,1.784,0,0,0,1.781,24h20.44A1.784,1.784,0,0,0,24,22.221V4.407A2.347,2.347,0,0,0,21.659,2.063ZM7.8,3.586a.469.469,0,1,1-.938,0V1.406a.469.469,0,0,1,.938,0Zm10.689,0a.469.469,0,1,1-.938,0V1.406a.469.469,0,1,1,.938,0ZM1.335,17.627a2.907,2.907,0,1,1,2.907,2.907A2.91,2.91,0,0,1,1.335,17.627Z" fill="#fff"/>
    </g>
  </g>
  <g id="Group_2769" data-name="Group 2769" transform="translate(13.201 20.54)">
    <g id="Group_2768" data-name="Group 2768">
      <path id="Path_38542" data-name="Path 38542" d="M282.38,438.267a.469.469,0,1,0,.137.331A.472.472,0,0,0,282.38,438.267Z" transform="translate(-281.58 -438.13)" fill="#fff"/>
    </g>
  </g>
  <g id="Group_2771" data-name="Group 2771" transform="translate(8.825 14.252)">
    <g id="Group_2770" data-name="Group 2770">
      <path id="Path_38543" data-name="Path 38543" d="M190.026,304a1.782,1.782,0,1,0,1.781,1.781A1.784,1.784,0,0,0,190.026,304Zm0,2.625a.844.844,0,1,1,.844-.844A.845.845,0,0,1,190.026,306.625Z" transform="translate(-188.245 -304)" fill="#fff"/>
    </g>
  </g>
  <g id="Group_2773" data-name="Group 2773" transform="translate(13.201 14.252)">
    <g id="Group_2772" data-name="Group 2772">
      <path id="Path_38544" data-name="Path 38544" d="M283.359,304a1.782,1.782,0,1,0,1.781,1.781A1.783,1.783,0,0,0,283.359,304Zm0,2.625a.844.844,0,1,1,.844-.844A.845.845,0,0,1,283.359,306.625Z" transform="translate(-281.578 -304)" fill="#fff"/>
    </g>
  </g>
  <g id="Group_2775" data-name="Group 2775" transform="translate(17.576 14.252)">
    <g id="Group_2774" data-name="Group 2774">
      <path id="Path_38545" data-name="Path 38545" d="M376.693,304a1.782,1.782,0,1,0,1.781,1.781A1.783,1.783,0,0,0,376.693,304Zm0,2.625a.844.844,0,1,1,.844-.844A.845.845,0,0,1,376.693,306.625Z" transform="translate(-374.912 -304)" fill="#fff"/>
    </g>
  </g>
  <g id="Group_2777" data-name="Group 2777" transform="translate(4.45 9.376)">
    <g id="Group_2776" data-name="Group 2776">
      <path id="Path_38546" data-name="Path 38546" d="M96.693,200a1.781,1.781,0,1,0,1.781,1.781A1.784,1.784,0,0,0,96.693,200Zm0,2.625a.844.844,0,1,1,.844-.844A.845.845,0,0,1,96.693,202.625Z" transform="translate(-94.912 -200)" fill="#fff"/>
    </g>
  </g>
  <g id="Group_2779" data-name="Group 2779" transform="translate(13.201 9.376)">
    <g id="Group_2778" data-name="Group 2778">
      <path id="Path_38547" data-name="Path 38547" d="M283.359,200a1.781,1.781,0,1,0,1.781,1.781A1.783,1.783,0,0,0,283.359,200Zm0,2.625a.844.844,0,1,1,.844-.844A.845.845,0,0,1,283.359,202.625Z" transform="translate(-281.578 -200)" fill="#fff"/>
    </g>
  </g>
  <g id="Group_2781" data-name="Group 2781" transform="translate(17.576 9.376)">
    <g id="Group_2780" data-name="Group 2780">
      <path id="Path_38548" data-name="Path 38548" d="M376.693,200a1.781,1.781,0,1,0,1.781,1.781A1.783,1.783,0,0,0,376.693,200Zm0,2.625a.844.844,0,1,1,.844-.844A.845.845,0,0,1,376.693,202.625Z" transform="translate(-374.912 -200)" fill="#fff"/>
    </g>
  </g>
  <g id="Group_2783" data-name="Group 2783" transform="translate(8.825 9.376)">
    <g id="Group_2782" data-name="Group 2782">
      <path id="Path_38549" data-name="Path 38549" d="M190.026,200a1.781,1.781,0,1,0,1.781,1.781A1.784,1.784,0,0,0,190.026,200Zm0,2.625a.844.844,0,1,1,.844-.844A.845.845,0,0,1,190.026,202.625Z" transform="translate(-188.245 -200)" fill="#fff"/>
    </g>
  </g>
  <g id="Group_2785" data-name="Group 2785" transform="translate(2.4 16.347)">
    <g id="Group_2784" data-name="Group 2784">
      <path id="Path_38550" data-name="Path 38550" d="M54.706,348.838a.469.469,0,0,0-.663,0l-1.527,1.527-.522-.522a.469.469,0,1,0-.663.663l.853.853a.469.469,0,0,0,.663,0l1.858-1.858A.469.469,0,0,0,54.706,348.838Z" transform="translate(-51.194 -348.7)" fill="#fff"/>
    </g>
  </g>
</svg>
