<svg xmlns="http://www.w3.org/2000/svg" width="35.076" height="29.228" viewBox="0 0 35.076 29.228">
  <g id="dog" transform="translate(-262.463 -213.399)">
    <path id="Path_38482" data-name="Path 38482" d="M73.67,158.954a19.355,19.355,0,0,0-3.411-4.184c-2.364-2.091-4.438-2.017-5.465-1.786a4.209,4.209,0,0,0-1.493.652,9.933,9.933,0,0,0-5.746-1.61A9.888,9.888,0,0,0,51.7,153.71a4.221,4.221,0,0,0-1.418-.6c-1.026-.23-3.1-.3-5.465,1.786a19.349,19.349,0,0,0-3.412,4.184c-1.519,2.553-1.81,4.7-.864,6.393a5.148,5.148,0,0,0,4.041,2.662,15.555,15.555,0,0,0-.28,3.021,9.87,9.87,0,0,0,1.463,5.446,8.892,8.892,0,0,0,3.655,3.162,18.9,18.9,0,0,0,8.132,1.492,18.9,18.9,0,0,0,8.132-1.492,8.892,8.892,0,0,0,3.655-3.162,9.868,9.868,0,0,0,1.463-5.446,15.484,15.484,0,0,0-.305-3.147,5.146,5.146,0,0,0,4.034-2.661c.946-1.689.656-3.839-.864-6.393Zm-27.843,5.192c-.2.544-.4,1.069-.584,1.6a2.778,2.778,0,0,1-2.574-1.462c-.61-1.089.116-2.752.832-3.956a16.92,16.92,0,0,1,2.932-3.605c1.553-1.373,2.746-1.363,3.319-1.234l.042.01a19.651,19.651,0,0,0-3.137,6.349C46.371,162.7,46.095,163.434,45.827,164.146Zm12.7,6.633a1.754,1.754,0,0,1-.972.565,2.2,2.2,0,0,1-1.54-1.548c0-.21.065-.272.21-.333a6.057,6.057,0,0,1,2.661,0,.292.292,0,0,1,.209.333A1.756,1.756,0,0,1,58.528,170.778Zm8.769,4.5a6.494,6.494,0,0,1-2.677,2.294,14.883,14.883,0,0,1-5.846,1.225v-5.276a4.8,4.8,0,0,0,1.474-1.019,4.026,4.026,0,0,0,1.284-2.708,2.716,2.716,0,0,0-1.7-2.579,5.687,5.687,0,0,0-2.273-.338,5.687,5.687,0,0,0-2.273.338,2.716,2.716,0,0,0-1.7,2.579,4.026,4.026,0,0,0,1.284,2.708,4.794,4.794,0,0,0,1.474,1.019V178.8a14.883,14.883,0,0,1-5.846-1.225,6.5,6.5,0,0,1-2.677-2.294,7.488,7.488,0,0,1-1.074-4.124A15.46,15.46,0,0,1,48.107,165c.275-.732.56-1.489.861-2.388a16.652,16.652,0,0,1,2.927-5.828,7.062,7.062,0,0,1,5.662-2.325,7.062,7.062,0,0,1,5.662,2.325,16.647,16.647,0,0,1,2.927,5.828c.3.9.583,1.652.86,2.389a15.46,15.46,0,0,1,1.365,6.151,7.486,7.486,0,0,1-1.074,4.124Zm5.113-11.123a2.782,2.782,0,0,1-2.585,1.463c-.17-.488-.353-.975-.542-1.477-.267-.711-.544-1.446-.828-2.3a19.344,19.344,0,0,0-3.228-6.459l.1-.025c.573-.128,1.766-.139,3.319,1.234a16.925,16.925,0,0,1,2.932,3.6c.716,1.2,1.442,2.867.832,3.956Z" transform="translate(222.461 61.373)" fill="#fff"/>
    <path id="Path_38483" data-name="Path 38483" d="M202.145,255.536a1.218,1.218,0,0,0-1.218,1.218v1.833a1.218,1.218,0,1,0,2.436,0v-1.833A1.218,1.218,0,0,0,202.145,255.536Z" transform="translate(74.602 -33.733)" fill="#fff"/>
    <path id="Path_38484" data-name="Path 38484" d="M282.295,255.536a1.218,1.218,0,0,0-1.218,1.218v1.833a1.218,1.218,0,1,0,2.436,0v-1.833A1.218,1.218,0,0,0,282.295,255.536Z" transform="translate(0.96 -33.733)" fill="#fff"/>
  </g>
</svg>
