<svg id="download" xmlns="http://www.w3.org/2000/svg" width="24" height="24" viewBox="0 0 24 24">
  <g id="Group_2756" data-name="Group 2756">
    <path id="Path_38513" data-name="Path 38513" d="M12,17a.5.5,0,0,1-.5-.5V.5a.5.5,0,0,1,1,0v16A.5.5,0,0,1,12,17Z" fill="#02a437"/>
  </g>
  <g id="Group_2757" data-name="Group 2757">
    <path id="Path_38514" data-name="Path 38514" d="M12,17a.5.5,0,0,1-.354-.146l-4-4a.5.5,0,0,1,.707-.707L12,15.793l3.646-3.646a.5.5,0,0,1,.707.707l-4,4A.5.5,0,0,1,12,17Z" fill="#02a437"/>
  </g>
  <g id="Group_2758" data-name="Group 2758">
    <path id="Path_38515" data-name="Path 38515" d="M21.5,24H2.5A2.5,2.5,0,0,1,0,21.5v-5a.5.5,0,0,1,1,0v5A1.5,1.5,0,0,0,2.5,23h19A1.5,1.5,0,0,0,23,21.5v-5a.5.5,0,0,1,1,0v5A2.5,2.5,0,0,1,21.5,24Z" fill="#02a437"/>
  </g>
</svg>
