<svg xmlns="http://www.w3.org/2000/svg" width="601.353" height="553.438" viewBox="0 0 601.353 553.438">
  <g id="Group_2834" data-name="Group 2834" transform="translate(-1040.9 -212.281)">
    <path id="Path_21299" data-name="Path 21299" d="M246.26,0C382.266,0,492.52,110.254,492.52,246.26S382.266,492.52,246.26,492.52,0,382.266,0,246.26,110.254,0,246.26,0Z" transform="translate(1109.58 236.773)" fill="#ffddb0"/>
    <g id="flat" transform="translate(1036 188.281)">
      <path id="Path_1983" data-name="Path 1983" d="M432.161,218.774H417.8a20.081,20.081,0,0,1-17.96-11.1L392,192h40.161Z" transform="translate(122.73 125.104)" fill="#ea9d2d"/>
      <path id="Path_1984" data-name="Path 1984" d="M440,218.774h14.363a20.08,20.08,0,0,0,17.96-11.1L480.161,192H440Z" transform="translate(114.891 125.104)" fill="#ea9d2d"/>
      <path id="Path_1985" data-name="Path 1985" d="M437.387,160,428.5,173.335a26.774,26.774,0,0,0-4.5,14.852v.884A26.774,26.774,0,0,0,431.842,208l5.545,5.545L442.932,208a26.774,26.774,0,0,0,7.842-18.932v-.884a26.774,26.774,0,0,0-4.5-14.853Z" transform="translate(117.504 130.33)" fill="#fbb540"/>
      <path id="Path_1986" data-name="Path 1986" d="M179.419,400.547l19.419-19.419L208.547,352H344.479l9.709,29.128,19.419,19.419,19.419,15.535-116.513,62.14L160,419.966Z" transform="translate(29.06 70.087)" fill="#5468ff"/>
      <path id="Path_1987" data-name="Path 1987" d="M272.071,441.3l-4.891,24.456L160,412.175l19.419-19.419,4.3-4.3Z" transform="translate(29.06 77.878)" fill="#cf5252"/>
      <path id="Path_1988" data-name="Path 1988" d="M370.8,407.943,268.333,462.6,264,440.955l85.067-50.865,2.318,2.318Z" transform="translate(51.283 78.226)" fill="#cf5252"/>
      <path id="Path_1989" data-name="Path 1989" d="M227.9,203l-20.863,6.8a43.692,43.692,0,0,0-22.849,28.483l-24.254,97.012L82.257,383.838l-29.128-9.709L24,383.838l9.709,48.547,144.512-45.16a26.694,26.694,0,0,0,15.917-13.545l33.76-67.518Z" transform="translate(0 38.249)" fill="#fcb3b3"/>
      <path id="Path_1990" data-name="Path 1990" d="M320,203l20.863,6.791a43.693,43.693,0,0,1,22.849,28.483l24.254,97.018,77.675,48.547,29.128-9.709,29.128,9.709-9.709,48.547-144.512-45.16a26.693,26.693,0,0,1-15.917-13.545L320,306.163Z" transform="translate(63.249 38.249)" fill="#fcb3b3"/>
      <path id="Path_1991" data-name="Path 1991" d="M303.932,72.547l-3.385-16.922a39.339,39.339,0,0,0-66.392-20.1,126.409,126.409,0,0,0-37.026,89.386v2.741a60.321,60.321,0,0,1-26.864,50.194L168,179.351l7.525,3.762a60.32,60.32,0,0,0,60.441-3.762Z" transform="translate(30.77)" fill="#121c7c"/>
      <path id="Path_1992" data-name="Path 1992" d="M301.675,200.78l-9.709-1.942V160H233.709v38.838L224,200.78v46.605l38.838,29.128,38.838-29.128Z" transform="translate(42.736 29.06)" fill="#fcb3b3"/>
      <path id="Path_1993" data-name="Path 1993" d="M290.257,160v9.709a48.547,48.547,0,0,1-58.257,0V160Z" transform="translate(44.445 29.06)" fill="#fdc9a6"/>
      <path id="Path_1994" data-name="Path 1994" d="M309.929,193.6l38.838,11.409v44.906a47.877,47.877,0,0,1-2.45,56.465l-16.968,21.21H212.835l-16.969-21.21a47.877,47.877,0,0,1-2.45-56.465V205.009L232.253,193.6v46.605l38.838,29.128,38.838-29.128Z" transform="translate(34.483 36.24)" fill="#f1746a"/>
      <path id="Path_1995" data-name="Path 1995" d="M209.709,304v16.523a77.686,77.686,0,0,1-3.986,24.563L200,362.257H335.932l-5.724-17.17a77.69,77.69,0,0,1-3.986-24.564V304Z" transform="translate(37.608 59.83)" fill="#fcb3b3"/>
      <path id="Path_1996" data-name="Path 1996" d="M393.027,408.291l-19.419-15.535-2.318-2.318L286.223,441.3H272.071L183.715,388.46l-4.3,4.3L160,412.175l107.18,48.547h23.375Z" transform="translate(29.06 77.878)" fill="#fff"/>
      <path id="Path_1997" data-name="Path 1997" d="M290.257,160v9.709a48.547,48.547,0,0,1-58.257,0V160Z" transform="translate(44.445 29.06)" fill="#f6bb92"/>
      <path id="Path_1998" data-name="Path 1998" d="M82.257,238.838H61.421a29.128,29.128,0,0,1-26.053-16.1L24,200H82.257Z" transform="translate(0 37.608)" fill="#029532"/>
      <path id="Path_1999" data-name="Path 1999" d="M72,238.838H92.835a29.128,29.128,0,0,0,26.053-16.1L130.257,200H72Z" transform="translate(10.257 37.608)" fill="#029532"/>
      <path id="Path_2000" data-name="Path 2000" d="M273.709,504.559,443.65,435.151a37.205,37.205,0,1,0-38.044-63.84L264,456.012Z" transform="translate(51.283 72.879)" fill="#5468ff"/>
      <path id="Path_2001" data-name="Path 2001" d="M277.743,504.559,107.8,435.151a37.205,37.205,0,1,1,38.044-63.84l141.606,84.7Z" transform="translate(13.677 72.879)" fill="#5468ff"/>
      <path id="Path_2002" data-name="Path 2002" d="M281.094,440l-48.547,9.709L203.419,440,184,459.419l9.709,29.128H290.8Z" transform="translate(34.189 88.891)" fill="#fcb3b3"/>
      <path id="Path_2003" data-name="Path 2003" d="M313.095,118.09v19.419a48.547,48.547,0,0,1-97.095,0V98.671A48.505,48.505,0,0,1,218.419,83.5Z" transform="translate(41.027 12.714)" fill="#fcb3b3"/>
      <path id="Path_2004" data-name="Path 2004" d="M312.667,104.55v19.419a145.641,145.641,0,0,1-87.385-29.128L218,89.379a48.547,48.547,0,0,1,94.667,15.171Z" transform="translate(41.454 6.835)" fill="#121c7c"/>
      <path id="Path_2005" data-name="Path 2005" d="M75.419,168l-12.9,19.344A38.838,38.838,0,0,0,56,208.888v1.282a38.838,38.838,0,0,0,11.376,27.463l8.043,8.043,8.043-8.043a38.837,38.837,0,0,0,11.376-27.463v-1.282a38.839,38.839,0,0,0-6.523-21.545Z" transform="translate(6.838 30.77)" fill="#02a437"/>
      <path id="Path_38527" data-name="Path 38527" d="M24,422.087S-25.236,460.9,34.392,470.842" fill="#fcb3b3"/>
      <path id="Path_38528" data-name="Path 38528" d="M14.88,422.168S64.528,460.9,4.9,470.842" transform="translate(571.991 -0.208)" fill="#fcb3b3"/>
    </g>
  </g>
</svg>
