<svg id="license" xmlns="http://www.w3.org/2000/svg" width="28.682" height="28.682" viewBox="0 0 28.682 28.682">
  <g id="Group_2717" data-name="Group 2717" transform="translate(3.137 9.523)">
    <g id="Group_2716" data-name="Group 2716">
      <path id="Path_38493" data-name="Path 38493" d="M58.241,170H56.56a.56.56,0,0,0,0,1.12h1.681a.56.56,0,0,0,0-1.12Z" transform="translate(-56 -169.997)" fill="#ff961e"/>
    </g>
  </g>
  <g id="Group_2719" data-name="Group 2719" transform="translate(6.81 9.523)">
    <g id="Group_2718" data-name="Group 2718">
      <path id="Path_38494" data-name="Path 38494" d="M122.12,170a.56.56,0,1,0,.56.56A.56.56,0,0,0,122.12,170Z" transform="translate(-121.56 -169.997)" fill="#ff961e"/>
    </g>
  </g>
  <g id="Group_2721" data-name="Group 2721" transform="translate(22.744 9.523)">
    <g id="Group_2720" data-name="Group 2720">
      <path id="Path_38495" data-name="Path 38495" d="M408.241,170H406.56a.56.56,0,1,0,0,1.12h1.681a.56.56,0,0,0,0-1.12Z" transform="translate(-406 -169.997)" fill="#ff961e"/>
    </g>
  </g>
  <g id="Group_2723" data-name="Group 2723">
    <g id="Group_2722" data-name="Group 2722">
      <path id="Path_38496" data-name="Path 38496" d="M28.122,0H.56A.56.56,0,0,0,0,.56V21.4a.56.56,0,0,0,.56.56H14.687a3.969,3.969,0,0,0,.235.67l-2.72,2.72a.56.56,0,0,0,.189.917l1.476.587.587,1.476a.567.567,0,0,0,.521.353.56.56,0,0,0,.4-.164l3.2-3.2,3.2,3.2a.571.571,0,0,0,.509.153.56.56,0,0,0,.407-.342l.587-1.476,1.476-.587a.56.56,0,0,0,.189-.917l-2.72-2.72a3.975,3.975,0,0,0,.235-.67h5.668a.56.56,0,0,0,.56-.56V.56A.56.56,0,0,0,28.122,0ZM15.181,27.124l-.362-.909a.56.56,0,0,0-.314-.314l-.909-.362,1.944-1.944a4.012,4.012,0,0,0,1.933,1.236Zm.5-6.144a2.885,2.885,0,1,1,2.885,2.885A2.888,2.888,0,0,1,15.685,20.979Zm7.859,4.56-.909.362a.56.56,0,0,0-.314.314l-.362.909-2.293-2.293A4.012,4.012,0,0,0,21.6,23.595Zm4.017-4.7H22.572a4,4,0,0,0-8,0H1.12V1.12H27.561Z" fill="#ff961e"/>
    </g>
  </g>
  <g id="Group_2725" data-name="Group 2725" transform="translate(8.739 4.481)">
    <g id="Group_2724" data-name="Group 2724">
      <path id="Path_38497" data-name="Path 38497" d="M166.644,80H156.56a.56.56,0,0,0,0,1.12h10.083a.56.56,0,0,0,0-1.12Z" transform="translate(-156 -79.997)" fill="#ff961e"/>
    </g>
  </g>
  <g id="Group_2727" data-name="Group 2727" transform="translate(13.221 7.282)">
    <g id="Group_2726" data-name="Group 2726">
      <path id="Path_38498" data-name="Path 38498" d="M239.921,130H236.56a.56.56,0,0,0,0,1.12h3.361a.56.56,0,0,0,0-1.12Z" transform="translate(-236 -129.997)" fill="#ff961e"/>
    </g>
  </g>
  <g id="Group_2729" data-name="Group 2729" transform="translate(3.137 7.282)">
    <g id="Group_2728" data-name="Group 2728">
      <path id="Path_38499" data-name="Path 38499" d="M59.921,130H56.56a.56.56,0,0,0,0,1.12h3.361a.56.56,0,0,0,0-1.12Z" transform="translate(-56 -129.997)" fill="#ff961e"/>
    </g>
  </g>
  <g id="Group_2731" data-name="Group 2731" transform="translate(8.739 7.282)">
    <g id="Group_2730" data-name="Group 2730">
      <path id="Path_38500" data-name="Path 38500" d="M158.8,130H156.56a.56.56,0,0,0,0,1.12H158.8a.56.56,0,1,0,0-1.12Z" transform="translate(-156 -129.997)" fill="#ff961e"/>
    </g>
  </g>
  <g id="Group_2733" data-name="Group 2733" transform="translate(23.304 7.282)">
    <g id="Group_2732" data-name="Group 2732">
      <path id="Path_38501" data-name="Path 38501" d="M417.681,130h-1.12a.56.56,0,1,0,0,1.12h1.12a.56.56,0,1,0,0-1.12Z" transform="translate(-416 -129.997)" fill="#ff961e"/>
    </g>
  </g>
  <g id="Group_2735" data-name="Group 2735" transform="translate(18.822 7.282)">
    <g id="Group_2734" data-name="Group 2734">
      <path id="Path_38502" data-name="Path 38502" d="M338.8,130H336.56a.56.56,0,0,0,0,1.12H338.8a.56.56,0,0,0,0-1.12Z" transform="translate(-336 -129.997)" fill="#ff961e"/>
    </g>
  </g>
  <g id="Group_2737" data-name="Group 2737" transform="translate(15.773 9.523)">
    <g id="Group_2736" data-name="Group 2736">
      <path id="Path_38503" data-name="Path 38503" d="M285.108,170H282.12a.56.56,0,0,0,0,1.12h2.987a.56.56,0,1,0,0-1.12Z" transform="translate(-281.56 -169.997)" fill="#ff961e"/>
    </g>
  </g>
  <g id="Group_2739" data-name="Group 2739" transform="translate(13.781 9.523)">
    <g id="Group_2738" data-name="Group 2738">
      <path id="Path_38504" data-name="Path 38504" d="M246.56,170a.56.56,0,1,0,.56.56A.561.561,0,0,0,246.56,170Z" transform="translate(-246 -169.997)" fill="#ff961e"/>
    </g>
  </g>
  <g id="Group_2741" data-name="Group 2741" transform="translate(20.752 9.523)">
    <g id="Group_2740" data-name="Group 2740">
      <path id="Path_38505" data-name="Path 38505" d="M371,170a.56.56,0,1,0,.56.56A.561.561,0,0,0,371,170Z" transform="translate(-370.439 -169.997)" fill="#ff961e"/>
    </g>
  </g>
  <g id="Group_2743" data-name="Group 2743" transform="translate(8.801 9.523)">
    <g id="Group_2742" data-name="Group 2742">
      <path id="Path_38506" data-name="Path 38506" d="M160.657,170h-2.988a.56.56,0,1,0,0,1.12h2.988a.56.56,0,1,0,0-1.12Z" transform="translate(-157.109 -169.997)" fill="#ff961e"/>
    </g>
  </g>
  <g id="Group_2745" data-name="Group 2745" transform="translate(3.137 11.764)">
    <g id="Group_2744" data-name="Group 2744">
      <path id="Path_38507" data-name="Path 38507" d="M77.848,210H56.56a.56.56,0,0,0,0,1.12H77.848a.56.56,0,1,0,0-1.12Z" transform="translate(-56 -209.997)" fill="#ff961e"/>
    </g>
  </g>
  <g id="Group_2747" data-name="Group 2747" transform="translate(8.739 14.005)">
    <g id="Group_2746" data-name="Group 2746">
      <path id="Path_38508" data-name="Path 38508" d="M159.921,250H156.56a.56.56,0,0,0,0,1.12h3.361a.56.56,0,1,0,0-1.12Z" transform="translate(-156 -249.997)" fill="#ff961e"/>
    </g>
  </g>
  <g id="Group_2749" data-name="Group 2749" transform="translate(3.137 14.005)">
    <g id="Group_2748" data-name="Group 2748">
      <path id="Path_38509" data-name="Path 38509" d="M59.921,250H56.56a.56.56,0,1,0,0,1.12h3.361a.56.56,0,1,0,0-1.12Z" transform="translate(-56 -249.997)" fill="#ff961e"/>
    </g>
  </g>
  <g id="Group_2751" data-name="Group 2751" transform="translate(12.1 16.245)">
    <g id="Group_2750" data-name="Group 2750">
      <path id="Path_38510" data-name="Path 38510" d="M216.56,290a.56.56,0,1,0,.56.56A.561.561,0,0,0,216.56,290Z" transform="translate(-216 -289.997)" fill="#ff961e"/>
    </g>
  </g>
  <g id="Group_2753" data-name="Group 2753" transform="translate(3.137 16.245)">
    <g id="Group_2752" data-name="Group 2752">
      <path id="Path_38511" data-name="Path 38511" d="M63.283,290H56.56a.56.56,0,0,0,0,1.12h6.722a.56.56,0,1,0,0-1.12Z" transform="translate(-56 -289.997)" fill="#ff961e"/>
    </g>
  </g>
  <g id="Group_2755" data-name="Group 2755" transform="translate(16.89 19.299)">
    <g id="Group_2754" data-name="Group 2754">
      <path id="Path_38512" data-name="Path 38512" d="M303.181,344.5a1.681,1.681,0,1,0,1.681,1.681A1.683,1.683,0,0,0,303.181,344.5Zm0,2.241a.56.56,0,1,1,.56-.56A.561.561,0,0,1,303.181,346.74Z" transform="translate(-301.5 -344.499)" fill="#ff961e"/>
    </g>
  </g>
</svg>
