<svg xmlns="http://www.w3.org/2000/svg" width="172.235" height="166.893" viewBox="0 0 172.235 166.893">
  <g id="Group_2879" data-name="Group 2879" transform="translate(0 -1996.28)">
    <path id="Path_38432" data-name="Path 38432" d="M976.4,2425.12c42.77-29.49,88-109.49,33.12-131.12-40.94-16.15-81.49,3.71-90.46,13,64,37.6,48.89,91.24,57.34,118.14Z" transform="translate(-862.595 -291.597)" fill="#99b8ae" fill-rule="evenodd"/>
    <path id="Path_38433" data-name="Path 38433" d="M1045.484,2307c-5.24,4.58-35.84,24.92-36.93,80.09-8.25,14.15-20.14,56.12-19.51,67.68h4.7c2.37-18.29,12-51.33,18.8-65.9,19.9-23.46,57.25-31.75,78.75-30.73-8.5-20.78-28.75-54.16-45.81-51.14Z" transform="translate(-989.02 -291.597)" fill="#172038" fill-rule="evenodd"/>
    <path id="Path_38434" data-name="Path 38434" d="M980.99,2403.24q.5-.54,1-1.11a3.826,3.826,0,0,0-.05-.41s0-.1,0-.23l-.88-.15a.969.969,0,0,1,.07.12l.07.13.22.51a1.49,1.49,0,0,0-.4,1.14Zm3.75-4.35c.21-.27.44-.54.66-.81-.35-.21,0-.4-.88-.13A1.45,1.45,0,0,0,984.74,2398.89Zm2.79-3.46c.49-.62,1-1.24,1.45-1.87a2.289,2.289,0,0,0-.5-.72c-1.33.9-.85.84-1.4,1.53h-.14a10.671,10.671,0,0,0-1.69,0c-.12.2-.24.38-.33.56l-1.08-.25h0c-.33-.44-.62-.33-.7-1.14a4.78,4.78,0,0,0-.37-1.91c-.6.07-.52-.07-.6.56-.36,2.79.55,1.39.78,2.29a.582.582,0,0,1,0,.29h0a.584.584,0,0,1,0,.08h0l-.09.12h0l-.09.07h-.22a3.178,3.178,0,0,0-.76.93l.62-.07.85,1-.4.84a4.153,4.153,0,0,0,.74.39c-.08-.8-.36,0-.15-1.28l1.31.09v-.3a.89.89,0,0,0-.15-.35c-.55.2-.5.33-1.2.33l1.36-1.23c.29.14.32.1.38.18a2.45,2.45,0,0,0,.05,1.19l1-1.28.12-.16h1.71Zm2.83-3.7c.27-.38.56-.75.84-1.13-.38,0-.7.27-1,1a.925.925,0,0,0,.14.14Zm1.18-1.6.62-.87a3,3,0,0,1-.41.12c-.53-.42-.52-.5-.29-1.17,1,.26,1,.51,1,.62.36-.51.73-1,1.08-1.56a1.788,1.788,0,0,0-.12-.67c-.31-.54-.43-.46-.76-.67-.27,1,0,1.52-.32,2.3-.74-.49-.33-.47-1-.94.08-.54,1.24-1.47-1.27-1.82-.39.58-.37.79.38,1.19l-.39,1.3a1.18,1.18,0,0,0,1,.44,2.17,2.17,0,0,0,0,1.29,1.049,1.049,0,0,0,.42.44Zm6.44-9.57.38-.63h0c-.52.3-.56.24-.36.64Zm.6-1,.32-.5a2.211,2.211,0,0,1-.11-.59c-.16-.13-.34-.25-.5-.37-.75.27-.54.6-.92,1-.21.22-.28.1-.58.44a2.834,2.834,0,0,1,1,.67l.83-.64Zm-63.23-40.39c.22.31.43.63.64.94.06-.5.1-.16.15-.8l-.79-.15Zm.89,1.33c.4.6.79,1.2,1.16,1.81l.85-.27a2.439,2.439,0,0,0-.88-1.07.167.167,0,0,0-.26-.16c-.25-.11-.54-.19-.87-.34Zm2,3.26c.19.3.36.6.53.9a4.523,4.523,0,0,0,.82-1h1.92a3.129,3.129,0,0,0-2.46-1,6.146,6.146,0,0,0-.81,1.08Zm2.48,4.41c.16.32.32.64.49,1l.33-.21a3.379,3.379,0,0,1,.27,1.41l.72,1.5c0-.19.06-.42.09-.72h-.35a3.385,3.385,0,0,1,.39-.62,11.71,11.71,0,0,0,3-.07,3.24,3.24,0,0,0,1-3.21c-1.09,1.18-1.83,1.12-2.45,2.2l-.89-.35c-2.32-1.14-1.63-1.5-2.55-.92Zm2.67,5.55.06.14h0l-.09-.12Zm3.16,8.25c.1.29.19.58.28.87h0l.86-.64c1.33-.46.93-.95,1.49-1.59.29-.33.4-.15.82-.66-.75-.41-.76-.24-1.46-.94l-1.72,1.44a3.441,3.441,0,0,1,.31,1.19l-.61.32Zm1.62,5.38c.33,1.22.64,2.44.93,3.65,1.22-.34,1-.36,1.41-.08l-1.39.2c.2.82.39,1.64.56,2.46,1.07-.17,1.42,0,2.18-2.13h.05a10.936,10.936,0,0,0,1.52-.26v.12c.88,0,3.35-.56,2.27-2.05a.909.909,0,0,0-.75-.43,9.276,9.276,0,0,1,.4-1.37v-.09l.15-.06c.28-.71.24-.37.23-1.11l.41-1.27c-.72.27-.83.55-1.42.63h0c0-.81.15-.41-.17-1.16-.67.7-.47,1-.38,1.2a3.723,3.723,0,0,0-1.61-.07c.51.92.72.5,1.53.48a5.508,5.508,0,0,1-1.4.9c.11.9.11.51-.23,1.22-1.21,0-2-1-3.21-1.69a8.969,8.969,0,0,0-1.06,1Zm2.42,10.65c.27,1.52.52,3,.73,4.54,1.18-.86.92-1.17,1.91-1.44-.2-.46-.42-.91-.64-1.36h0c-.07.61-.06.45.47,1.41-.64,0-1.15.34-2-1.11l1.22-1c-.15-.29-.31-.57-.45-.86l-.39-.42a6.451,6.451,0,0,0-.82.23Zm.74,4.6c.22,1.51.42,3,.61,4.51l.07.05h-.07c.08.61.15,1.23.22,1.84l.53.07h.11l.63-1.95c.14-1.78-2.45-1.12-1.1-3.51-.54-.58-.48-.31-1-1Zm1.32,11.22h0c.54.57.67.19,1.24.39h.2v.05h0v.06h0a.36.36,0,0,0,.14.21h.08l.18.06h.54c.45.05,1.11.09,2.11.13v-.42c-.22-1.1-.47-2.18-.74-3.25l-.36.17.1,1.58c-1.12,0-1.38,0-1.8.27h-.29l-1.25-.38Zm12.31,4.76,2.26-.65c-.46.45-.34.24-1.31.68.66.37.78.11,1.56.16l.41.9-1.29.2c-.11.51-.27.47,0,1a2.119,2.119,0,0,0,1.33-.55c1.17.78-1.16-.28,1.28.89l-.84.36c.68.36.52.06.91.39l-.47.19c.91,0,1-.16,1.84.36l-.16.89c-.92-.54.25-.25-.82-.7-.57.24-.55.58-1,1h.14a4.689,4.689,0,0,1,1,0c.27.82-.87.67-1.29.67a18.093,18.093,0,0,0-1.91.67l-.73-.74.91-.83c-.63-1-1-.74-1.4-.7.39.64.39.53.36.95l-.09.06h-.68l-.19.62c-.91.1-1.13.07-1.64-.54a3.145,3.145,0,0,0,1.23-.09v-.76c1.71-.33,1.09-.43,2.11-1.23-.4-.53-.35-.33-.74-.72.85-1.66-.9-1.14-.86-2.36v-.07Zm4.15-1.16,1.21-.32a.99.99,0,0,1,.15.14l.1.12.14.13.44-.06c.49.82.53.28.61,1.11-.91-.44-1.16-.9-2.29-.77.47.35.3.39.15.7.63,0,.75-.37,1.31.72a.159.159,0,0,0,.07.13c.76.08.9.05,1.15.58h-1.43c0-.05-.1-.06-.1-.14l-.17-.44a5.725,5.725,0,0,1-1-.13,2.259,2.259,0,0,1-.14.86c-.64.17-.64.21-1.1-.23.12-.48,0-.13.32-.56l.25-.32h0a.78.78,0,0,1-.11-.62,1.909,1.909,0,0,1,.36-.81Zm5.45-1.31c.62-.14,1.23-.26,1.83-.38.15.4,0,.73-.17,1.32l-1.22,1.1-1.2-.62.75-1.41Zm3.62-.71,1.26-.21a5.878,5.878,0,0,0-.37,1.18l-.92-.19a3.851,3.851,0,0,1,0-.78Zm-8.76,2.37h0v.07h0v-.08Zm0,.09-.1.42a.72.72,0,0,0,.1-.42Zm-3.66,14.17-.2-.72a2.5,2.5,0,0,0-.61-.22c-.14,1.34-.87.48-.29,2,1,.21,1.1-.45,1.57.32a3.667,3.667,0,0,1-1.22,0c-.67,0-.65.26-1.23.5l.49-1.75c.31-1,.17-1,.36-1.45h0a1.083,1.083,0,0,1,.08-.15c.62-1.11.48-.89,1.76-1.16.07-.21.12-.4.18-.55-.47,0-1.52-.13-1.43-1.24a2.292,2.292,0,0,0-1.47-.14c-2.66.39-1.93.51-2.85.89h-.22c0-.42,0,0,.52-.59a2.576,2.576,0,0,0,.22-.53l.1-.37v-.11c1.39-.3.19.44,1.56,0-.44.61-.32.41-.25.78.64-.5,1.06-.35,1.76-1l.93.69a6.26,6.26,0,0,1,.16.61.7.7,0,0,1,.46.49l.09.09h.02a1.769,1.769,0,0,1,0,.68c.32,0,.45-.06.56,0,.39-.8.75-.46,1.73-.84.77.65.66.38,1.87.31l.23,1.06c-.45.13-3.8.76-4,.74l-.16.81a2.576,2.576,0,0,1-.46.24l.07.33c.63-.14,0-.1.76-.05.27,1,.79,1.11,1.92,1.16v1.21c-.82-.23-.56-1.08-3.07-1.37Zm2.28-8.32a1,1,0,0,1,0-.69,1.589,1.589,0,0,1,.4-.73c-.93.38-1.49.72-.74,1.45h.36Zm4.77-3.1-.51,1.57-1.1.06c.09-1,.19-.31,1.13-1.29C972.62,2400.64,972.43,2400.7,972.81,2400.61Zm-3.22.25a2.5,2.5,0,0,1,.64-1c.33.63.44.3.94.65l-.2.5c-.7.19-.76.06-1.38-.16Zm-3.19,13.15.93.13c-.76.89-.37.82-1.66,1.13.26-.86.12-.81.73-1.26Zm3.77-1.4c.41-.77.88-.54,1.31-.14-.14.4,0,.45-.47.48a1.238,1.238,0,0,1-.84-.34Zm2.84-4.4c-.58-.7-1.15-.7-2.07-.61.53.56.39.48,1.13.62-.21.65-.39.47-.82.79s-.2.14-.35.36c.51.39.34.3,1,.33a5.137,5.137,0,0,0,.46-.71c.34-.6.21-.32.64-.78Zm3.59-1.95-1.82.23c.83.38.47-.12,1.06.64h-1c.48.58.08,0,.6.48.22.19.14.17.27.29.33.3.14.14.35.26.44-.75.16-.52.32-1s.35.11.27-.91Zm.6-4.85.1.58c-1.46.53-1.19.95-.77,1.77.61-.46.59-.7.85-1.5l.09-.24c.17-.81-.2-.57-.27-.61Zm-7.75,9.54c-.47.46-.4.46-.42,1h1.49ZM935.52,2329c0-.42.07-.82.11-1.23l.35.06a1.6,1.6,0,0,1-.46,1.17Zm.36-3.59v-.36a5.9,5.9,0,0,0,1.72.19c-1-1.35-1-.31-1.64-.82a5.585,5.585,0,0,1,.08-.57h1.26l1.08-.7c-.37.4-.27.06-.17.66a6.02,6.02,0,0,1,.93.35l.36-.32c.26.36.41.51.51.66,1.1.39,2.32.56,3.05-.76.38,1.37,0,.83.07,1.88a1.462,1.462,0,0,0,.15.28l.77.17-.21.15a1.27,1.27,0,0,1,1.14.54c-.77.13-.76-.12-1.74.11-.25.55.24.84-1.19,1.51a3.08,3.08,0,0,1-.22-2.58c-.15-.11-.32-.26-.53-.45l-.48-.37c-.14-.25-.38-.26-.66-.15a1.1,1.1,0,0,0,.08.46,1.27,1.27,0,0,1-1.71.69,1.587,1.587,0,0,1-.18.09l-.27.83c-1.24-.08-1.1-.14-2,.58.19-1.45.58-.62.73-1.85a6.142,6.142,0,0,0-1-.22Zm.71-4.63v-.21h.28a1.441,1.441,0,0,1-.32.17Zm.79-3.83a3.6,3.6,0,0,1,.15-.65c.56.62.15.26-.09.72Zm.37-1.51c.06-.25.13-.5.19-.76a5.627,5.627,0,0,1,.5.48Zm.6-2.27c.17-.59.35-1.18.53-1.76a3.192,3.192,0,0,1,1.35,1.64,7.291,7.291,0,0,0-1.88.12Zm5.83-14.87c.22-.43.44-.86.67-1.29h.37l.48.81-1.52.51Zm11.58,33.38c0,.78-.12,1.56-.2,2.36l-1,.58c-.07-.49.11-.2.17-.91l-.79.43c.37-2.54,0-.14-.05-1.49a2.1,2.1,0,0,0,1.24-.7c-.3-.5-.35-.36-.87-.56l-.91.88-.55-.83c.39-.63.7-.57.75-1.29-1.08.57-.59.52-1.7.67l-.38-1.1c.75-.31,0-.23.87-.11l.4-.66,1.4.48c1.08.66-.37,1.71,1.57,2a2.176,2.176,0,0,1,0,.25Zm-1.81,11.62-.12.5c-1.32.88-1.34,1.37-2.92,1.24-.23-1.43,1.77-2.37,3-1.74Zm-1.59,6c-.06.22-.13.44-.19.65a1,1,0,0,1-.58-1.12l.77.47Zm-1.8,5.71c-.15.45-.3.91-.47,1.37a3.79,3.79,0,0,1,.31-1.41h.16Zm-.37,1.9,1.35-1.67,1.41.32h.18l1,.1.17,1c-1.36.67-2.16.27-3.26-.59l-.81.81Zm44.35-9.09c-.88.89-1.74,1.75-2.6,2.59a8.269,8.269,0,0,1,1.53-2.66c.92-.12.41-.3,1.07.07Zm-4,3.91-.72.68a2.425,2.425,0,0,0-.19-.42,3.922,3.922,0,0,0-.76-.14c-1-.18-.31.15-.76-.52.92-.21,1.19,0,2.25-.23Zm-10,7.74c-.3.17-.6.34-.92.5a3.411,3.411,0,0,1,0-1.53c.61,0,.5-.17.71.43.08.23.14.43.19.6Zm2,10c.32.12.64.25.94.39-.14.33-.59.37-.83-.14C982.65,2369.629,982.57,2369.55,982.54,2369.469Zm10.59,5.26c.36.21.73.43,1.07.65-.22.29.37.37-.32,1-.2-.52-.14-.24-.08-.8-.71-.32-.2.08-.7-.39v-.5Zm2.75,1.71c.44.29.87.57,1.29.87l-.07.25c-.42,0,.26-.19-.31.07l-.4.24a7.134,7.134,0,0,1-.78-.6.71.71,0,0,1-.26.07c-.44.05-.34,0-.56-.39.27-.37.57-.63,1-.42l.13-.09Zm-16.4,18.4-1-.25a4.864,4.864,0,0,1,.75-1c.17.73.26,1.07.29,1.27Zm-6.88-2.21-.24-.1c.28-.34.18-.37.6-.44A1,1,0,0,1,972.6,2392.629Zm-.67-.28-.43-.2h0c.25.12.32.17.42.22Zm-1.16-.54-1.09-.53c.57-.22,2.6-.52,2.93.15-.55.13-.91-.21-1.61.21a1.7,1.7,0,0,0-.23.17Zm-1.18-.58-.56-.29h0c.29,0,.21-.1.55.3Zm-.73-.39c-.61-.32-1.2-.65-1.78-1a2.272,2.272,0,0,0,.16-.25c.22-.73-.16-.41.39-1.07.39.1,0-.36.43.16a.88.88,0,0,0-.21-.66c-.9-.62-.62-.05-1.62-1.12,2.6.31,2.41-2.7,2.84-3.69-.48-.41-.12-.3-.68-.25l1.23-.43c.3-.47.76-1,1-1.4.74,1.81-.76.59,0,2.43a8.329,8.329,0,0,0,1.33-3l-.66-1.18c0-.06,0-.21.11-.17.26.14-.25-.32.66-.29l1.11.39-.5.73a5.017,5.017,0,0,1,.45.52l.7.17c-.26.82.06.44-.48.76a1.369,1.369,0,0,1-.48.42c-1,.57-.83-.47-1.44,1.27,1.16.57.65-.19,2,.49-1.15.29-1,.22-1.65,1.21l-.89-.26a4.011,4.011,0,0,1-.84.27c.18.2.12.6-.35,1.14-.81,0-1-.09-.92-.73-.26.15-.39.34-.25.6v.57a3.14,3.14,0,0,1,0,1.45c.38-.58.3-.64,1.69-.43l.1-1.19c1.08.06,1.3-.21,2.25-.17-.31.73.28.29-.64.65a3.678,3.678,0,0,0-.72.27c-.24.78,0,.92-.42,1.37-.3,0,.14.24-.24-.2l-.22-.26a.936.936,0,0,0-.14-.14l-.31.52a1.689,1.689,0,0,0-1.35-.36c0,.15.12.24.61.54a7.278,7.278,0,0,0-.61.48.361.361,0,0,1,0,.111,1.089,1.089,0,0,1,.56.42l1.68.09c.44.15.31.31.4.57-.37.41-.17.36-1.34.42l-.26-.63h-1.11v-.63c-.1.26-.22.54-.35.94,0,0,.13.1.12.07l.37.17c.39.31.15,0,.17.36Zm-13.12-10-.27-.28a2.379,2.379,0,0,1,0-.92,3.537,3.537,0,0,0-.77.11l-.71-.75.06-.18a2.591,2.591,0,0,1,1.72.2c.4-.38,1-.05,1.29,1.47l-1.31.35Zm-1.23,3.24c.17.45.34.89.5,1.34l-.66-.56Zm6-9.1c.19-.14.46-.27.83-.49l.19.06a5.614,5.614,0,0,1,.27-.79l.25.62a9.716,9.716,0,0,0,1.44-1.48l.79.06c-.42.95-.62.24-.83,1.4-.62.4-.84.62-.89.84.8.24,0-.28.92.43l-.44,1.46c-.2,1,.22.65.58,1.66-.67-.09-.39.71-.9-1l-1.31.76c-.42-1.8.16.52.92-2.34l-.23-.1a4.316,4.316,0,0,1-1.51-.08c-.37,2.2,0-.18-2.06,2.69a2.6,2.6,0,0,1-.59-2.29c-.39-.12.17-.54-1.31-.12.68-.87.49-.58.42-1.13-1,.69-1.58.46-2.66,1.42l-1.31-1.07c-.45-1.66.21-.44-1-1.78,1.64,0,1.36,1,3.75.79,3.56-.37,3-.59,3.91-1l-.06-.17a1.762,1.762,0,0,1-.93,0l.56-1.86h.93l.64-.89c.5,1.05-.08.55.64,1.07.4.27.31-.59.49.44s-1,1.16-1.62,1.19c-.29,1.87.15.48-.92,1.62a1.655,1.655,0,0,0-.12.22,2,2,0,0,1,1.14-.08Zm13.74-14.629c-.89-.28-.59-.08-1.33.09,1.09-2,1.26-.87,1-2.33,0-.23-.05-.14,0-.44-1-.63-.82-.46-.89-1.4l.63-.4.08-.73.75-.39c-.15-.37-.1-.39-.19-.39a3.647,3.647,0,0,1-.38.63,6.261,6.261,0,0,1-1.15,0c-.64.63-.13.53-1.16,1.17-1.07-1.19.4-2,1.95-1.81l.08-.09-.21-.1a3.152,3.152,0,0,1,.65-.42l.29-.35h0l.06-.09-.79-.62v-.11h-.12c-1-.24-.59.52-1.05-.46.42-.12,1-.24,1.5-.39l.05.06v-.06c1.09,0,.46.26,1.67,0-.67-.93-.58-.32-1.09-1,1-1.62,2.46.18,2.66.59l-.64.92a1.18,1.18,0,0,0,2.11.24c.76-.82-.25-.37.82-.69.51,1-.07,1.84-1,2.44h.1a2.6,2.6,0,0,1-.09.73c.27.31.39.72.71,1.06.64.67.68.19,1.23.72-.1.29-.57.46-1,.62a2.571,2.571,0,0,0-.89-.57c-.59-.28-.42-.1-.77-.6l.13-.38-.13.14c-.26-1.43-.2-.67.11-1.7a5.65,5.65,0,0,0-2.16,0c-.12-.7.4-1.18-.87-.71.28.86,0,.16.61.84a1.01,1.01,0,0,1-.06.14c-.55,1-.36.07-.52,1.11a4.328,4.328,0,0,0-.95.47c.23.62-.05.83-.14,1.48.52.32.24.07.68.35l-.42.79a2.279,2.279,0,0,1,.4,1.81,5.321,5.321,0,0,1-.52,1.69c-.82-.33-.28.09,0-1.41v-.42Zm-22.36-35.07c-.71.87-.62.71-1.65,1l-.3.79c-.1-.51.17-.42.29-.79.31-.95-.79,0,1-2.31l.28.2v-.18c.14-.66.18-.48-.26-1.18-1.72.56-.36,1.09-1.13,2.52l-1.38-1.91c1.41-.81.48-.21,1.07-1.3.39-.73,1.35-1.07,2.18-1.67,1.3,1.18.65,2.24.53,3.68,0,.68.16.46.09.94a2.178,2.178,0,0,0,.15.41c.68-.48.11-.75.85-.93.09.05.14-.35.28.24s-.89,1.06-1.13,1.18l-.87-.7Zm16.51,25.86a1.59,1.59,0,0,1,.11-2.4c.12.51-.07.35.38.55l.54-.25c-.41-.59-.36-.3-.73-.73l.65-.15c.47,1.4-.1.77,1.23,1.56-.25.31-1.76,1.48-2.18,1.42Zm2.21,3.05c-.79-.53-.35-1-1.45-1.41-.86-.3-1.1.23-1.53-.82.8-.29.78-.16,1.39.19l.77-.54a5.309,5.309,0,0,1,.11.62,4.25,4.25,0,0,0,.08.61c1,.24.74-.06,1.71-.18,0,.44.08,0-.06.47,0,0-.22.47-.22.48-.21.35-.38.62-.8.58Zm-20.28-23.12-.65.15c.29-.31.6-.61.43-1l-.54-1.09c1-.31.14-.33.92-.09a3.277,3.277,0,0,1,.56.36l.17,1.25c.15.68,0,.73-.61,1.25-.33-.56-.26-.23-.28-.84Zm15.83,55.49a4.87,4.87,0,0,1,1.65-2.88c.83.82-.35,2.3-.92,3-.63.06-.29.2-.73-.08Zm16.36-32c.14-.2-.64-.32.53-.27a5.168,5.168,0,0,0,2,0,.941.941,0,0,1,.48,0c-1.62,2.3-2.82.73-3,.2Zm11.4,27.74-.08-.7a1.79,1.79,0,0,1,2.2.49l.65-.6a2.84,2.84,0,0,1-.27,1.38l-1.72-.47a.482.482,0,0,1-.12,0l-.66-.1Zm-13.76-28.71.86-.72.8.45-.55.94a2,2,0,0,1-.87.8C979.77,2354.4,979.97,2354.21,980.16,2353.59Zm-12.5,28.22a2.83,2.83,0,0,0-.92,1c-.25-1.31-.72-.88-.45-1.89,1.38.31-.55.7,1.47.27.39-.08,1.16.64,1.37.85-.63.28-1,0-1.47-.26Zm0-25.22.34-.6c.65.29.56.58,1.18.65s.65-.43,1.26.26c-.65,1.45-1.41.05-2.78-.31Zm-16.92-24.26h.12a1.549,1.549,0,0,0,1.11.17h.56c.57,0,.18-.11.67.08.12.59.09.57-.43,1a4.453,4.453,0,0,1-1.12-.54c-.65-.3-.86.11-.91-.68Zm17.51,47.92v-1.11l.88-.73a1.56,1.56,0,0,1,.17,1.36l-1.08.48Zm-18.68-39.86.47.41c1.29-.82,1.5-.38,2,.42-.75.2-.95.05-1.8-.21l-.27-.06c-.8-.33-.38-.48-.38-.56Zm10.45,32.8-.15.14.43-.15Zm-1,2.5-.12.41a.274.274,0,0,1-.06.17l-.31.05.53.61c.12-.68.17-.75,0-1.24ZM986.33,2388c-.27-.74-.14-.45-.36-.61-1.11,1.91-1.33.81-.94,2.73.07.32.07.19,0,.63,1,.58,1.22.67,1.3,1.08.38-.09.48-.19.75.4-.45.06-.61.06-.69.09a4.007,4.007,0,0,0,0,.44l-1.3.9a2.232,2.232,0,0,1-.43-1.29.585.585,0,0,1-.11-.15,1.48,1.48,0,0,1,.14-.12,10.5,10.5,0,0,0,.23-1.15c-.8-.44-.36-.09-1-.47l.56-1.19a1.622,1.622,0,0,1-.11-.17,1.758,1.758,0,0,1-.76,0c-.2.45-.1.29-.6.65a2.249,2.249,0,0,0-.75.72c-.42-.09-.93-.18-1.09-.44.44-.62.58-.15,1.07-.93.29-.47.28-1,.62-1.37l.36.58.69-.09a3.2,3.2,0,0,1-.13-1.28,9,9,0,0,0-1,.33c-1.11-.42-2-1.13-1.64-2.3,1.11.13,0-.14.95.54s1.69.43,2-.62l-.82-.79c.11-.43,1.18-2.46,2.49-1-.36.78-.39.16-.87,1.19,1.26.06.59-.06,1.65-.29.54.46.43.23.64.9l-.66.75c.59.58.29.19,1.16.65l-.29.21c-.75.38-.5-.06-.62.6l.82.25.41,1.3a3.78,3.78,0,0,0-1.63-.62Zm-.77-1v-.08c.44-.78.33,0,.43-.94-1.35-.23-.73.14-.72.86a4,4,0,0,0-.78,0h0c.73.2.93.21,1.13.13Zm-1.2-5.68.19-.2c.83-.63.77,0,.84,0-.62.4-.47.16-.89.38s-.28.27-.7.51c-.14,2.09-2.21,1.28-.66-.36.4-.42.48-.44,1.22-.33Zm-12.8,8.47c.51-.69.57-.4,1.59-.25l.4-.43c.68.48.32.07.46.55a2.139,2.139,0,0,1-1.4.79c-.05,0-.13,0-.13-.12s-.1-.08-.13-.1l-.43-.2c-.31-.14-.17-.06-.36-.24Zm-16.59-22.14c-.23.22-.63.42-.72,1.87-1.06,0-1.08-.31-1.64-.1v-.16c-.14-1.19.59-1.07,1.81-1.91.56.23.52.33.57.3Zm-.65,2.7.26-.42a3.113,3.113,0,0,0,.16-.28c.11.32.11,0,.12-.24l.06-.2a2.164,2.164,0,0,1,.13.41,1.241,1.241,0,0,1-.15.69,1.99,1.99,0,0,1-.58,0Zm-7.14-36.53c.37,0-.18,1,.81-.33.81-1.09-.51.14,1.69-2.19.38-.4.17-.16.39-.56C945.76,2330.47,946.66,2333.18,947.18,2333.82Zm-.89,3.45,1.67-.31.14-1.27-1.66-.23h-.82a2.389,2.389,0,0,0,.43-.86c-1.42-1.92-2.56.17-2.68,1l1,.38.41.17c.27.89.69.88,1.53,1.19Zm1.31-14.79c1.43-.49,1.09-.31,1-1.79,1.13-.33.42.24,1.25-.49-.19-.27-.44-1.42-1.86.21C947.32,2321.18,947.26,2321.41,947.6,2322.48Zm-2-8.46c.82.56.21.38,1.53.2l1.18,1.57-.31-2.28-.91-.39c-.88.16-1.09.21-1.49.9Zm-4.15,33c.52-.34,1.21-.89,1.82-1.28-.28-1-.22-1-.94-1.51-.94.67-.07.22-.52,1.23C941.22,2346.79,940.63,2345.66,941.45,2347.02Zm1.22-34.02,1.22-.94C942.36,2310.44,940.59,2311.15,942.67,2313Zm1.4,26,.36-.81a3.509,3.509,0,0,0-2.84-.68c1.64,1.63.56.73,2.48,1.49Zm-4.9-21.2c.63-1.28.4-.61,1.21-1.45-.66-.79-.72-.74-1.79-.65.67,2.62-.56.72.58,2.1Zm47.66,55.88c-.56-.18-.65,0-1.16.22l-.07.53a.246.246,0,0,1-.05.15c-1-.43-1.28-.79-2.18.32a1.33,1.33,0,0,0,2,.49l.73-.91c.48-.72-.14-.16.71-.8Zm-4.6-3.77a1.06,1.06,0,0,0-1.85-.27l-1,1.86c.88.08.93-.16,1.29-.66.55-.75.56-.5,1.56-.93Zm-6.52-21.26-.23-.16c-.94-.47-.77.09-.81.15.68.28.49.07.94.22s.33.21.79.36c.56,2,2.43.87.57-.47C976.49,2348.41,976.41,2348.41,975.71,2348.65Zm11.67-3-1.46.67c.45.81,0,.39.77.71.57.22.29.26,1,0l-.3-1.42Zm4.33,4c-1.2-.51-1.87.17-.68,1.1C991.91,2350.57,992.03,2350.47,991.71,2349.65Zm.57-4.59c-.66-.13.24.66-.92-.48l-.55.61h-.16a7.337,7.337,0,0,1,.61-2.66c-.06,0-.2-.13-.18-.09l-.55-.23c-.6-.43-.23-.05-.27-.52l1.14.15c.58-1.09,0-.83.6-1.77,3.41-.35.8,3.21.76,3.37-.26,1.09.28.59-.48,1.59Zm-21.55,30.57c.63,1.22.09.68,1.29,1.16-.38.9-.24,1.61-1.58,1.79-1.51-.73-.5-1.53-2.6-.5.06.72.2,2-.83,2.29a8.789,8.789,0,0,0,.53-1.1l-.57-1c1.32-.88,1.11-1,1.58-2.11l2.18-.57Zm7.84,5.81c-.39.94-1,1.19-1.85,1.77-1.24.8-1.61,1.24-2.83.55.31-.72.52-.78,1.21-1.56l1,.48.19.08a2.62,2.62,0,0,1,.92-2.53c.6,1.89.09.12,1.39,1.21Zm-27.77-19a5.908,5.908,0,0,1,1.74,1.41c-2.27,1.39-2,2.93-3.72,1.3.09,0,.17-.13.29-.07s.22-.05.29-.07a2.269,2.269,0,0,0,.7-.28c.68-.49.31-.22.39-.9l-1,.24.28-1.15c.61,0-.38.3.44-.11,0,0,.51-.33.58-.37Zm-7.2-47.92,1.87,1.68-.08,1.09a2.141,2.141,0,0,1-1.44.29c-.6-.81-.23-.59-.46-1.06-.59-1.2-2.55-1,.11-2Zm4.32,26.59,1.14,1.37c-1,.82-2.2,2.55-2.73-.46-.16-1,.9-1,1.59-.91Zm18.43,32.51c.78-.92.18-.61,1-1.33-.29,1.72-.25-.6-.34,2.43-.07,0-.22-.08-.21,0l-.4-.07-.36-.08a2.318,2.318,0,0,1-1-.62,2.488,2.488,0,0,1-.23.34l-.49.18c.13-.58-.2.18.28-.77.08-.18.19-.36.34-.65a3.34,3.34,0,0,1,1-1.33,3.27,3.27,0,0,1,.5,1.94Zm-21.77-52.9c.37.94-.13,2.07-.13,3.15-1-.09-1,0-1.82-.64.16-.54,1-2.75,2-2.51Zm14.58,49.2c-2.08,1-1.51,1.44-2.06,2.58.08-1.16-.46-2.65-.43-4.09A10.482,10.482,0,0,1,959.16,2369.92Zm-18.3-40.91c-1.62,2.39-2.54,1.43-2.07.27a3.55,3.55,0,0,0,.45-1.45Zm22.39,51.479c-1.48-.25-.77,0-2,.11-.32-1-.25-1,.45-1.76,1.92,2,.95,0,1.52,1.65Z" transform="translate(-842.956 -291.597)" fill="#172038" fill-rule="evenodd"/>
    <path id="Path_38435" data-name="Path 38435" d="M994.01,2316.73c-.7.79-1.38,1.58-2,2.36a12.79,12.79,0,0,0,1.86.28c1.11.42.36.54,1.67.53.27-.57.45.56.11-1l.85-.07.12-.11a9,9,0,0,0-2.68-1v-.19l.1-.55v-.22Zm20.67,31.69h.8a5.812,5.812,0,0,1,1-.15c1.66-.06,1.7.83,2.95-1.35l-1.77-1.42a4.91,4.91,0,0,0-2.34,1c.44,2.09-.12,1-.75,1.84l.12.05Zm-9.61-9.11,1.74.27c.2-.07.42-.16.68-.24a6.785,6.785,0,0,1,.28-.7c1.21.1,2-.39,3.62-.25l.61-.91c-1.55-.4-.84.47-2.48-.34-2,.61-1.9.25-2.64-.58a5.608,5.608,0,0,0-1.95,2.55A.986.986,0,0,0,1005.07,2339.31Zm6.4,1.11,1.77.36.6-.38c1,1.27,2.14,0,2.2-.08l.16-.27c-.56.06-.39.08-.82.51-.55-.69-.92-.86-1.69-.39-1.28-.51-2-.24-2.22.25Zm7.64,1.73,1.43.36a1,1,0,0,0,.35-.1l-.91-.86a4,4,0,0,1-.87.6Zm13.37,3.94c1,.33,2,.68,3.07,1,.12-.91-.39-.56.26-1.69h.12c-.11.46-.1,1.08-.2,1.74l.84.3a1.24,1.24,0,0,1,.14-.95c-.4-.7-.81-1.38-1.21-2l-.18-.13a2.836,2.836,0,0,0-1-.69.93.93,0,0,0,.16-.87c-.36-.55-.72-1.11-1.09-1.65a9.809,9.809,0,0,1-.21,1.13h-.08c.08-.8-.1-.94-.83-1-.69,1.32-.4,1.69,0,1.83a5.314,5.314,0,0,1-.94.11,1.751,1.751,0,0,0-.63.11,3.93,3.93,0,0,0,.21,2l.63-.58a2.906,2.906,0,0,0,1.16.66.69.69,0,0,1-.23.73Zm9.24,3.28,1.76.67a8.788,8.788,0,0,0,1.91-1c-.15-.33-.28-.66-.44-1a16.823,16.823,0,0,1-2.36,1.28,3.806,3.806,0,0,1-.35-.35c.58-1.29.73-.75,1.75-1.71-.58-.35,0-.12-.65-.35l-.8-.18c-.62-.09-1.1-.14-1.44.36,0,1.13.72,1.29.62,2.25Zm4.12,1.59.41.16c-.12-.31-.26-.62-.39-.93a4,4,0,0,1,0,.77Zm-2.62-6.69c-.17-.36-.35-.73-.53-1.09-.17.23-.23.4-.55.81-1.33.14-.8-.31-2.4.2l.06.48C1040.44,2346.11,1042.09,2345.58,1043.22,2344.27Zm-1.07-2.19c-.13-.26-.27-.53-.4-.8a2,2,0,0,0-.37-.3.167.167,0,0,0-.26-.16,10.7,10.7,0,0,1-1.14-.48c.07-.86.12-.32.17-1l-.79-.15a5.481,5.481,0,0,0,.06,1,2.415,2.415,0,0,0,.34.13c-.06,1.11-.1,1.32.21,1.61-.3.24-.44.26-.08.8.31-.3.4-.43.48-.48l.36.29,1.42-.46Zm-42.61-26,1,.26a2.346,2.346,0,0,0-.13.39c-.12.57.07.38-.52.79l-1.07-1,.76-.4Zm12.28,4.83c.43.24.86.48,1.28.73l-.35.6-1-1v-.35Zm1.83,1,.73.45c-.13.16-.28.34-.47.54l-.26-1Zm1.95,1.23.78.52h0c.2.32.28-.08.72.93-.51,1.35-1.23.63-.22,2.17-1.72,1.75.32,1.8-.9,2.82-.21-.94.08-.41-.45-1.21-.62.63-.3.47-.69,1a4.419,4.419,0,0,1-1-.7c0-1.5.14-.84-.93-1.86,1.8-1.34.33.83,3-2-.74-.48-.37-1-1.16.35a2.919,2.919,0,0,1,.93-2Zm4.41,3.21.69.57a24.39,24.39,0,0,0,.5,2.93c-1.36,1-1.41.32-2.56,1.49-.17,1.52.75.75-.43,1.44-.58-1.2,0-1.28-.09-2.44-.12-1.4-.81-1,.06-2.51.61.07.54.2,1.11.15,1.69-.14,1.47-.86.72-1.63Zm5.32,4.87c.21.22.43.44.64.67h-1.12c-.9,0-.06-.2-1.1.09.15-.53.34-.52.86-.77l.5.25h.16l.06-.32Zm7.17,8.71.52.75c-.26-.11-.07,0-.6-.39a1.292,1.292,0,0,1,.08-.36Zm-20.94-8.74c-.76.47-1.36,1.19-2,.36-.42-.54-.74-1.94.48-1.83h.4l.28-.33c1,.26.59-.15,1.26.39-1,.28-1.51.1-2.26,1l.39.59c.81-.53.34-1.06,1.77-.57h.14c.61-.43.68-.55,1.26-.33l-1.06.9h-.18l-.44-.2Zm-9.71-6.89c-.17-.73-.31-.7.87-1.48l-.81-.91c.82-.67.77-1,1.48-1.59.33.72.43,0,0,.88a5,5,0,0,0-.32.66c.41.72.69.67.72,1.26-.22.17.29.08-.32,0h-.55l.16.58c-.62,0-.72.18-1.26.64Zm10.41,10.19c.91-.69.7-.9,1.79-1.1l.55.74c-1.06.21,0-.34-1.11,0-.28.67.18.86,0,1.76,0,0-.39.34-.89-.42a2.079,2.079,0,0,1-.29-1Zm-7.42-8.47h.18c.2-.48,1.48-2.11,2.22-1.83-.29.45-.81.44-1,1.2s.55.64-.69,1.37a3.63,3.63,0,0,1-1-.42c-2,1.58,0,0-.77,1.69-1.51-.59-.55-.72-2-2.17a4.641,4.641,0,0,0,2.11-.08,4.577,4.577,0,0,1,.09-.66l-.72.62-.64-.62a1.212,1.212,0,0,1,.78-.09l1.26-1,.18-.06h0c.26-.05.32.1.53.2,0,.47.12.41-.4.93a2,2,0,0,1-.14.93Zm.36-2.38c-.15-.83.11-.66,1-1.22v-.57c.84-.09.27-.16.73.09a1.85,1.85,0,0,1-.41,1.48c-.06,0-.12.06-.19,0s-.13,0-.16,0l-.46.13a.739.739,0,0,1-.44.07Zm1.87,2.57-.09-.78c.49-.14.37-.09.9-.27,0-.43-.14-.38.11-.71.49.87-.47.61,1,1.93h0a4.238,4.238,0,0,1,.56.8l-1.7.3-1.41-.95.66-.32Zm-7.24-4.13c.23-1.21,1.21-1.34,1.35.1C1000.52,2322.75,1000.38,2322.771,999.83,2322.08Zm14.35,8.57.8,1.46-.74.76c-.66-.77-.09-.35-.15-1.67,0-.41-.11-.24.09-.55Zm-2.12,2.27a2.341,2.341,0,0,1-.27-1.12c.7.23.53-.08,1.15-.15l.24.49C1012.81,2332.74,1012.67,2332.67,1012.06,2332.92Zm9.18,8c-.28-.82.23-1,.84-1,.2.38.31.34,0,.65a1.25,1.25,0,0,1-.86.31Zm12.12,3.49a1.09,1.09,0,0,0-.15-.61,1.628,1.628,0,0,0-.09.22l.24.39Zm1.13.92-.62-.08.46.76C1034.4,2345.75,1034.44,2345.54,1034.49,2345.33Zm-.64-1.51c.72.21.8.25.86.89-.43.32-.17.24-.83.27,0-.06-.44,0,0-1.16Zm-37.22-20.63a8.338,8.338,0,0,0,5.08.76c-.28-1.64-3.19-1.67-4.53-1.63-.62.65-.49.14-.55.87Zm24.91,15.2c.07,0,0-.06-.17-.63a9.755,9.755,0,0,1-.41-1c-.19-.63-.39-1.1-.55-1.68a8.174,8.174,0,0,1-.19-1,3.55,3.55,0,0,1,1.18.4,3,3,0,0,0,0-3.66l-.83,1.61-1,.29a1.288,1.288,0,0,0-.86,0,2.16,2.16,0,0,0,.24.81l.12.45c-.13.08,0,0-.11.19-1.36.48-1.15.67-2.35,1,0,0-.65-.07-.49.57a.8.8,0,0,0,.28.46,1.588,1.588,0,0,0,.87.53,2.629,2.629,0,0,1,.54.35h0c-.61,1.28-1.22-.09-.33,3.19.53-.38.65-.57.65-.73.48.13.17,0,.76,0h.24l.66.06a5.8,5.8,0,0,1,.68.28,2.27,2.27,0,0,1,.56-.56h0a2.28,2.28,0,0,0-.2.84l1-.37a6.416,6.416,0,0,1,.72-.29,1.621,1.621,0,0,0,0,.21c.33.5,0-.72.87,1.55-.2.24-.46.52-.64.74.6.89.14.95,1.16,1.12,0-.05.06-.08.05-.15l.21-1.18c0-.71-.24.72,0-.22.1-.46-.09,0,.24-.41,1.12,2.05.27.55,1.14,1.5,1-.6.49.07,1.55-.38-.42-.77-.59-.38-1.15-.4l-.94-1.11-1,.29-.55-1.16c1-.65.47-.31,1.57-.5-.22-.4-.31-.62-.58-.65.8-3.33-1.23-3.31.67-3.94a3.639,3.639,0,0,0-1.33-.81c0,2.59.47,2.37,0,2.86,0,0-.87.46-.91.5l.33,1.12c-1.22.2-.68-.19-1.69-.15Zm-3.31.22Zm12.84,1.93c.32,1-.74,2.53-2.26.56.85-.55.09-.33,1.16-.46.53-.07-.11,0,.61,0l.49-.08Z" transform="translate(-946.966 -291.597)" fill="#99b8ae" fill-rule="evenodd"/>
    <path id="Path_38436" data-name="Path 38436" d="M988.612,2331.37c.5-14-9.22-36.31-32.41-43.34l-6.22.54c14.22,2.72,33,17.09,38.63,42.8Z" transform="translate(-847.317 -291.597)" fill="#172038" fill-rule="evenodd"/>
  </g>
</svg>
