<svg xmlns="http://www.w3.org/2000/svg" width="283.398" height="250.146" viewBox="0 0 283.398 250.146">
  <g id="Group_2880" data-name="Group 2880" transform="translate(40.953 -3983.879)">
    <g id="Group_2759" data-name="Group 2759" transform="translate(-19 21.827)">
      <path id="Path_38516" data-name="Path 38516" d="M1202.237,2384.86c-30.56,17.07-61.69,21.74-95.73,28.78,5.11-14.46,9.57-30.24,16.7-44.25,13.72-26.95,30.33-50.31,46.6-59.4,38.31-21.4,73.47-10.6,115.72-15,9.58-1,3.53,4-7,16.8-18.85,22.94-56.52,62-76.3,73.07Z" transform="matrix(0.998, 0.07, -0.07, 0.998, -897.511, 1679.073)" fill="#172038" fill-rule="evenodd"/>
      <path id="Path_38517" data-name="Path 38517" d="M1187.54,2454.75c9.79-21.93,44.71-95,128-122.38-65,23.41-96,67.17-121.53,122.38Z" transform="matrix(0.998, 0.07, -0.07, 0.998, -1003.505, 1671.661)" fill="#172038"/>
      <path id="Path_38518" data-name="Path 38518" d="M1230.589,2324.85h-.25l.22.11.58-.33a1.789,1.789,0,0,0-.75-.42Zm-46.51-20.77.65-.26h0c-.4.2-.45.29-.66.26Zm8-2.79.5-.16.17.22-.65.51a.861.861,0,0,1,0-.57Zm18.65-3.92c.75-.1,1.51-.18,2.27-.27.17.32.55.42,1.06.22v-.34l1.61-.16h0a.3.3,0,0,1,0,.1v.05h0a2.308,2.308,0,0,1,0,.25c-.58.15-.25-.12-1,.08.5.62.29.25.85.67,0,.44,0,.29-.23.68h-.68c-.07.53,0,.22.12.83l-.23-.05c-.52-.21-.18-.27-.59,0l.21.5-.54.73a2.343,2.343,0,0,0-.34-1c.39-.58.06,0,.23-.76a.5.5,0,0,0,0-.1c.61-.11.15.15.69-.18-.43-.74-.38-.29-.77,0a2.083,2.083,0,0,0-.44-.45,1.193,1.193,0,0,0-.19.31c-.28.67.17.69.11,1.28-.16.22-.37.18-.65.12l-.35-.11c-.3-.12,0,0-.28-.18.49-.39.54-.14.84-.71a2.667,2.667,0,0,0-.28-.3,3.77,3.77,0,0,1-.28-.32l.62-.12v-.27c-.15-.1-.31-.18-.44-.25v-.1a5.55,5.55,0,0,1-1.54.28l.1-.48Zm12.93-1.09h.68a4.433,4.433,0,0,1-.62.51,1.92,1.92,0,0,0-.06-.47Zm16.74-.27h1.12c-.43.62.29,1.25-1.92.82l-.06.47c-.93,0-.49-.32-1-.1l.19.49c-.88.1-1.47.41-1.95-.33a4.8,4.8,0,0,0,1.25-.26c.53-.19.46,0,1.1-.14.33-.26.19-.24.41-.41.47-.34.44,0,.87-.55Zm14.59.16h1.7a3.069,3.069,0,0,1-.49.75h0a2,2,0,0,1-.44.39h0a.187.187,0,0,1-.09,0h0l-.12.06h-.83l-.06-.05h.4Zm14.39-.08h1.3v.08c-.67.38-1.2.31-1.28,0Zm-49.25,77.19-.37.3h-.21c-.18-.47,0-.49.37-.73a.67.67,0,0,1,.21.42Zm-40.39-17.81h0Zm-.63-.14c-1.07-.22-2.14-.4-3.19-.55-.19.25-.38.5-.59.75-.78.9-2.37,1.7-1,2.64a2.849,2.849,0,0,0,.73-1c.32.07.07.1.34,0,1.18.71,1.22.45,2.19,1.13a.43.43,0,0,0,.75,0,.71.71,0,0,0,.22-.47,1.39,1.39,0,0,0,0-.94,2,2,0,0,1,.29-1.46l.28-.1Zm-13.46-.81-.52.05a2.523,2.523,0,0,0,.36.45C1165.789,2354.79,1165.759,2355.21,1165.649,2354.52Zm-7,1.08h-.19c.22.66-.3.64.35.72v-.29s-.07-.15-.08-.19a1.265,1.265,0,0,1-.07-.28Zm-1.35.33-.66.17h.17c.27,0,0-.08.48,0a.845.845,0,0,0,0-.21Zm-1.86.51-1.15.35c.24.11.33.37.4.74-.21.4-.71-.1-.11.64a1.42,1.42,0,0,0,.62-.94C1155.409,2355.86,1155.2,2357.09,1155.439,2356.44Zm-1.46.45-.53.17a.94.94,0,0,0,.84.38l-.31-.55Zm-1.29.43-.57.2a1.63,1.63,0,0,0,.73,0Zm-1.55.57-.43.17a.221.221,0,0,1,0,.08,1.384,1.384,0,0,0,.38-.25Zm-3.53,1.49-.28.12c-.07.09-.12.18-.21.31,1.23.15,1.15-.06,1.36.16,0,0,.16.39.18.41l.56-.07c0,.56-.16.23-.19.8a1.848,1.848,0,0,0,.45.19,1.259,1.259,0,0,0,.38.14l-.12-.43a3.577,3.577,0,0,1-.1-.38,3.556,3.556,0,0,0-.17-.8c-1.53-.55-1.69.25-1.86-.45Zm-2.65,1.3-1,.54a.407.407,0,0,1,0,.11c0,.24-.07.21-.13.46.65.44.51.13,1.18.17s.56.28,1.17.11c-.25-.53.06-.11-.66-.27-.48-.54-.18-.52-.53-1.12Zm-2.61,1.44c-.31.17-.6.35-.88.52a1.371,1.371,0,0,0,.85.45c-.61-.41-.36-.23-.09-.51,1.07,1.16.37.63.66,1.18l.21.08c.4-.29.17-.28.83-.19.24-.17.21-.2.39-.39-.21-.19-.15-.05-.42-.34.41-.18.15-.09.61-.12-.42-.57-.56.28-1.29-.54-.72.3-.47.11-.87-.14Zm8.28,4.3.61.17c.07-.21,0-.33-.12-.66C1150.709,2366.08,1150.669,2366.17,1150.629,2366.42Zm73.2-2.54-.84-.19c0,.74.33,1.27,1.14,1.23l-.3-1Zm.89-12.26.44-.38a.91.91,0,0,0,.06-.26c-.87-.6-1.23.49-.58.65Zm-5.25-10.25-.74.32.2.15Zm-2.42,1.12-1.25.65c.43.4.14.51.92.65.15-.22.08-.23.26-.41.6-.59.79-.13.83.45a2.962,2.962,0,0,0,.08.83c.49.23.13.44.89.43,1.39,0,.31.42,1.26,0-.24-.88,0-.63,0-1.09a4.531,4.531,0,0,1-1.75.05c-.43-1.06,0-.33-1.19-1.6Zm-16.69,15.27c-.62,1-1.21,2.12-1.77,3.26.06-.44.12-.87.17-1.29-.48.2-.75-.16-2,1.78.64.2,1.15.35,1.51,0l1.12.26a2,2,0,0,1,.2,1.47l-1.93.44c-1,.23-.26-.17-.74.49.57.67.71.39.89.42.34.06.26.15.15.51l2.7.62,1.08.25s.12-.09.13-.05l.67-.78a6.575,6.575,0,0,1,.08-1.21c-.21-.41,0-.13-.42-.36l-.63-.35a2.33,2.33,0,0,1,.4-1.54c.11,0,2.1.36,1.23-1.79-.69-.12-.46-.17-1,.15s-.11.33-.79.27a1.709,1.709,0,0,1-.16-1.09c.24-.5.43,0-.37-.92-.29-.33-.29-.25-.45-.55Zm-1.5.9c.06-.51.09-1,.12-1.5v-.08l-1.68-.37a1.759,1.759,0,0,0,0,1.3,3.208,3.208,0,0,1,1.57.65Zm-21.14-22.68a2.936,2.936,0,0,0,.12.39.724.724,0,0,1,.18-.28c.54.11.62.35,1.31.09l-.36-.6c-.66,0-.53-.11-1,.47-.16-.06-.16-.07-.22-.07Zm1.87,5.49.15.4a.671.671,0,0,0,0-.07c.1-.72,0-.24-.17-.33Zm.7,1.73.13.31a1.291,1.291,0,0,0,.52,0c.14.82.13.73.78,1.47l-.07.91c.23-.08.22.45.91-.92a7.58,7.58,0,0,0-1.54-2.27c-.24-.5.15-.21-.23-.78-.31.4-.33.34-.45.79v.49Zm37.77,4.37.93.07c.44-.11.46-.12.21-.94.4-.25.17,0,.33-.39-.2-.27-.24-.45-.66-.52-.22.18-.16-.09-.1.38-.44.06-.37,0-.68.17.45.7.45,0,.76.55-.87.3,0-.37-1.5-.31l.55.67-.62-.09.09.59.45.25.24-.43Zm-.44-2.52c-.65-.22-.59.22-.88-.55-1.14.07-.58-.61-1.3-.5.29.33.17.09.32.49h-.56a2.378,2.378,0,0,0,0,.54c.57.41.35.19.44.83,1-.21-.22-.34,1.57-.41,0,.38.27.42-.46.28.36.33.86.25,1.37.29-.15-.23-.28-.32-.33-.42s.11-.07-.14-.5Zm4.52-.64a1.789,1.789,0,0,0,1.45-.56c-.46-.64-1.78-.53-1.56.51-.45.15-.23,0-.41.28.62.19.28-.08.52-.23Zm4,3.75c-.17,0-.08,0-.58-.26h-.63l.35.74a2.257,2.257,0,0,0,1-.12h-.22Zm1.5-3.78h0a.582.582,0,0,0,.29.09h.18l-.46.24h0Zm-47.07-10.21c.4-.43.72-.18,1-.72h0c.26-.52-.09-.7.66-.9.16.51.07.49-.21.85l.33.5h-.87c-.23.59,0,.45,0,1.06-.3,0,0,0-.32-.07l-.33-.17c-.23-.14-.41-.26-.36-.52Zm-.67,1.33c-.4-.43-.37-.11-.75-.78.9-.59,1.36.36,1.16,1.31l.62.55a1.441,1.441,0,0,1-1.13-.37A4,4,0,0,1,1179.9,2335.5Zm-32.75,25.33c-.42.59-.23.52-.17.94l-.71.07-.15-.77-.72-.44A1.59,1.59,0,0,1,1147.149,2360.83Zm33.26-20.76.45.57-.36.47-.64-.4a1.3,1.3,0,0,1-.5-.58c.5-.35.62-.21,1-.06Zm-1.37-7.84.39.24c-.23.38-.43.32-.52.69s.27.42-.25.76C1177.659,2333.43,1178.659,2333.05,1179.039,2332.23Zm-30.31,30c.66.7.56,0,1,.63-1.62.17-.93,0-1.5-.33-.25-.14-.14.05-.43-.17.53-.06.13.17,1-.13Zm4.95-2.76a.689.689,0,0,1,.67.41c.17.38-.11.48-.45.69-.28-.49-.4-.68-.22-1.1Zm4.09-.83c.52.57.19.89-.35,1.15C1157.189,2359.21,1157.079,2358.99,1157.769,2358.64Zm24.18-23.11c.07.26.12.63.2.94-.43.25-.4.27-.81.23-.1-.49,0-.09.23-.56s-.33-.39.38-.61Zm-32.48,28.77.59,1.09C1149.589,2365.59,1148.719,2365.33,1149.469,2364.3Zm8.41-7.13.51-.08v.76l-.84.11.17-.45a.869.869,0,0,0,.12-.34Zm22.38-18.3-.15.37a1.511,1.511,0,0,1-1.16-.58C1180.019,2338.58,1179.369,2338.58,1180.259,2338.87Zm4.66,4.27a1.871,1.871,0,0,0-.21.9l.72-.06.67-1c-.08-.07-.07-.17-.11-.15l-.57-.71a2.829,2.829,0,0,0-1-.91c-.63,1-.5,1.41.47,2Zm-1.6.9c-.79.5-.56.95.19,1.38a1.28,1.28,0,0,0,.14-1.17C1183.329,2343.61,1183.449,2344.07,1183.319,2344.04Zm1.64,47.88c.54-.59.34-.94-.31-1.32C1184.349,2391.23,1184.339,2391.6,1184.959,2391.92Zm66.29-76.29-.07.1a.582.582,0,0,0-.19-.22l-.06-.06h-.07l-.36-.23a3.945,3.945,0,0,0-.47-.12,1.7,1.7,0,0,0-.08-.75l.23-.31c0-.25-.21-.1.33-.4.26-.15.34-.13.66-.33s.69-.4,1-.63l.14-.1h0l.06-.05h0l.18-.14h0a.9.9,0,0,1,.49-.18h.06a.428.428,0,0,1,.22.1h0a.91.91,0,0,1,.27.28,2.091,2.091,0,0,1-.71.4h-.05c0,.12.05,0,0,.16.47.77.27.79.74,1.44l.07.06c-.06.16-.12.31-.17.47a.675.675,0,0,1-.27.07,1.132,1.132,0,0,1-.68-.081,1.63,1.63,0,0,0-1.07.13l-.12.27c.17.43.12.17,0,.54l-.44.21a1.217,1.217,0,0,1-.27-.12v-.13Zm-31.55,25.18-.55.26a1.061,1.061,0,0,0-.45-.54c.68-.51.08,0,.26-.7l.69-.24c.12.59.17.27-.19.67Zm-4.18,1.86-.32.13a1,1,0,0,1-.33-.39c.59-.19,0-.11.65.26Zm-4.39-6.69c.06-.24.14-.48.21-.71a.9.9,0,0,1,.4.21A.879.879,0,0,1,1211.129,2335.98Zm1.71-4.79c.21-.44.42-.89.64-1.33,0,.19-.08.11-.05.42l.5.28v.4c-.6.41-.6.33-1,.23Zm4.72-6.89a1,1,0,0,1,.38.16,2.026,2.026,0,0,1-.21.24h.08c.12-.09.35-.15.89-.11l-.58.65.62-.07-.11.59-.46.23-.22-.44h-.94c-.43-.12-.46-.13-.17-.94h-.15c-.18-.11,0,0-.16-.31l.1-.13a3.157,3.157,0,0,1-.63-.4h.6a2.606,2.606,0,0,1,0-.58c-.26.09.1.24-.57-.06.28-.87,0-.62.11-1.08h.11l.9,1.53-.13.27h.64Zm.57-1.48.1-.13v.09h-.09Zm1.08-1.25c.27-.3.54-.6.82-.89a1.2,1.2,0,0,0,.63.18c.63-.35.09-.45.67-.24-.31.52-.49.35-.92.69s-.18.54-1,.65c-.13-.21-.07-.23-.22-.39Zm1.48-1.57.54-.54c.1.25.22.21.48.41l-.46.51Zm2.07-2,.49-.44.27.15a1.214,1.214,0,0,1-.38.16,2.093,2.093,0,0,1-.38.13Zm2.74-17.24h0l.41-.08-.27,1.55c-.47-.21-.48-.15-.42-.64a6.888,6.888,0,0,1,.17-.81h.11Zm-1.61-.46h0l-.51.21c-.18-.2.21.05-.16-.12l-.3-.09a2.983,2.983,0,0,0,0-.32h0c1.14.4,1.66-.11,1.49.91a.115.115,0,0,1-.11-.08c-.02-.08-.06-.06-.1-.08a.849.849,0,0,0-.29-.16c-.37-.1-.17,0-.45.11l.33.25Zm-7.39,33.86c-.36.08-.08-.06-.39.41-1.14-.95-.52,0-1.22-.27l-.41-.95a1.942,1.942,0,0,0,.79.25c.1-.18.15.15.1-.44,1-.42.65-.78-.1-1.09.07.6.14.61-.15,1-.74-.13-.15-.2-1.07-.57-.47-.19-.41-.36-.54-.44v-.09l-.07.05a1.978,1.978,0,0,0-.44,0c-.58,1,.44-.28-.55.9a1.36,1.36,0,0,0-.31,1.06c1-.1.26-.09.43-.51a1.24,1.24,0,0,1,.7-.26l-.14.23.25.12-.48.12c.87.82,1.3-.35,1.63,1l-.69.07a1.868,1.868,0,0,0,.66.62.6.6,0,0,0,.22-.18c.51-.5.25-.15.62-.44a7.815,7.815,0,0,1,.84.45c-.07.37-.08.09-.06.47a1,1,0,0,0,.53.15c-.07-.81-.43-.81-.12-1.6Zm-1-6.31-.37-.11c-.46.27-.59.39-.75.73l.3.3c.88-.25.68-.35,1-.52h.15a2.092,2.092,0,0,1,.75.68h-.46c-1.31.44.07.37-1.45.45l.06.67c.41-.1.4-.2.77-.37a8.486,8.486,0,0,1,.86-.33h.59v-.05h0v-.3h0v-.08h0v-.11h0v-.05h0v-.07h0v-.06h0v-.07l.12-.39c.58.1.77-.16,1.51-.18a1.68,1.68,0,0,0-1.46-.6,4.794,4.794,0,0,0-.88,1h-.84Zm.57,11.65c-.78.45-.18-.23-1.71-.92a3.984,3.984,0,0,0-.74.43,4.112,4.112,0,0,1-.37.19l-.42.21a1.19,1.19,0,0,0,.38.17,1.521,1.521,0,0,0,.46.17c.42-.41,0-.3.49-.67l.33.43.44-.16c.31,0,.1.08,1.06.81A1.27,1.27,0,0,0,1216.069,2339.5Zm-.9,1.33c-.17.69-.25.51-.61.77l.43.53.69-.43.84.18a1.49,1.49,0,0,0-1.35-1Zm6.18-11.8-.19-.76c-.57.09-1.57,0-.59,1,.31.33.61,0,.78-.26Zm6.14,6.41a6.4,6.4,0,0,1-.68-.4c-.24.33-.31.33-.28.77a3.554,3.554,0,0,0,1,.24h-.04Zm-4.22-3.95a1.842,1.842,0,0,0-.91-.08,1.2,1.2,0,0,1-.07.27l-.13.42c.32.18,1.43.4,1.11-.61Zm-1-5.24c-.9.29-1.08.06-1.52.68a.94.94,0,0,0,1.52-.68Zm8.52-.11c-.08.24.09,0-.08.51s-.07.4.12.85c1.52-.27.22-.07,1.19.08-.75-.47-.71-1.09-1.23-1.44Zm7.51-24.72-.08-.64-.7.05c-.22.25-.4.36-.42.63.45.12.85.34,1.2,0Zm-12.4,33.09c-.93.24-.51-.38-1.42,0a1.52,1.52,0,0,0,1,.83.062.062,0,0,0,.06-.07v-.07l.35-.69Zm-2,.25h-.92a1.685,1.685,0,0,1,.68.26v-.86Zm-10.86,5.94c-.82,0-.51-.28-.85-.28a2.469,2.469,0,0,1,0-.87l-.56-.11a2.608,2.608,0,0,0,.06,1.48l-.62,1.82h.83a1.55,1.55,0,0,0,.37-1,2.142,2.142,0,0,0,0-.52c.49.56.34.18.88.31.29.07.06.13.43.17-.33-.39-.22,0-.56-.73Zm12.06-4.72c-.42-.07-.7.07-.75.44h.08a1.641,1.641,0,0,0,1,.06c-.12-.4-.06-.37-.34-.65Zm-9.44,0c-.29-.39-1.15-.47-.84.59.44-.12.15.06.5-.25.17-.15,0,0,.17-.2l.17-.14Zm2-1.87c-.4-.15-.52-.24-.8-.1,0,0-.34-.08,0,.34a.43.43,0,0,0,.76-.24Zm38.42-36.4c.5-1.35,2-.47.49.87-.27.25-.4.34-.65.33h-.55l-.21.18c-.84.55-.75,0-.79-.06.61-.34.45-.12.87-.31s.29-.24.72-.44a.19.19,0,0,1,0-.08h0v-.07h0a.238.238,0,0,0,0-.08h0v-.06h0Zm10.87,2.79-1.48-.49c.34-.83-.08-.38.66-.76.51-.28.24-.29.94-.15Zm-48.45,22.67c.66-.19.58.25.9-.51,1.14.12.61-.58,1.33-.45-.31.32-.19.09-.35.48h.56a1.616,1.616,0,0,1,0,.54c-.59.39-.36.18-.47.81-1-.24.23-.33-1.55-.47,0,.38-.3.4.44.3-.38.32-.88.21-1.38.24.15-.23.3-.31.35-.42s-.1-.07.16-.49Zm4.82-4.15c1,.07.35-.4,1.16-.19-1,1.19-.66.61-1.31.75-.3.06-.07.13-.45.15C1223.069,2319.35,1222.949,2319.73,1223.319,2319.02Zm-10.93,16.39c.06-.64,0-.67.53-.66.24.65-.39.42.4,1.07,0,0-.08.37-.76-.24A.916.916,0,0,1,1212.389,2335.41Zm13-15.39,1.24.4C1226.449,2320.87,1225.629,2321.25,1225.389,2320.02Zm21-6.11,1-.19.36.52.79-.37c-.21-.73-.09-.34-.56-.87.63-.26.58-.29,1.33,1l-.19.15c-.4.12.35-.35-1.14.43v.63c-.71.21-.5.43-1.1.11v-.09l.42-.69c.32-.36-.21.46.12-.09.15-.28,0,0,.06-.31-1.49.6-.39.18-1.25.31-.21-.68-.28-.16-.62-.8.56-.23.48,0,.77.25Zm-3.53,4.36a1.569,1.569,0,0,1,.66-.09l-.07.46-.77.38c0-.05-.12-.05-.11-.08l-.49-.39a2.65,2.65,0,0,1-.43-.37h.83l.08.13Zm-6.56,3.59h.93l.77,1a1.281,1.281,0,0,0-.24.11c-.47.14-.17.05-.34.06-.29-.24-.23-.15-.31-.55h-.81Zm-61.65-9.26a1.485,1.485,0,0,0,0,.3,1.143,1.143,0,0,1,.25-.06c.56.68.11.67.39,1.38.28-.28.2-.36.65-.6.37.1.19.07.45.21.53.28.07.17.62.08-.12-.14-.37-.48-.48-.59s-.17-.05-.34-.26c-.29-.4.07-.37-.47-.79l.29-.41a1.519,1.519,0,0,0-1.28-.13h.41l.15.14c-.17.36-.34.38-.66.5Zm.06,2.09c0,.32.05.64.08.95l.18-.12a1,1,0,0,0-.26-.83Zm21.95,17.12.36-1.44c-.18-.09-.13.24-.49-.34,0,.49,0,.34-.23.5-.1-.51-.37-.6-.42-1.23h-.78c-.69.42-.07.21-.9.31.55.46.79,0,1.5.8,1,1.1.82,1,1,1.41Zm1.45-7a7.412,7.412,0,0,1,.13-.93l-.09-.12a1.918,1.918,0,0,0-.25.44h-.12l-.08-.05-.62.29.57.61c-.18.31-.08.34-.45.5a1.22,1.22,0,0,1-.41-.8h-1.05l.25.49h-.09c-.38-.08-.22-.16-.54-.15.43.82.92,1.46,0,1.56l-.14-.13-.13-.15a1.675,1.675,0,0,0-.27-.25,2.707,2.707,0,0,0-.51-.38c-.52.31.13.68.35.85s.41.75.66,1.09l.7-.09-.08-.77a2.134,2.134,0,0,1,.46-.1h.09a2.359,2.359,0,0,0,.19.39h-.13a.665.665,0,0,0-.2.19.306.306,0,0,0,0,.07l.34.27-.18.39a1.534,1.534,0,0,0,.51.39h.32a1.213,1.213,0,0,0,.24,0l-.2-.14h-.35l.32-.4-.2-.24.41-.54a4.177,4.177,0,0,0-.41-.74,1.8,1.8,0,0,0,.39,0c.1-.35.22-.51.36-.58h0a.412.412,0,0,1,0,.09.73.73,0,0,0,.26-.24h.16l-.3-.9Zm.17-1.19c0-.24.06-.47.08-.71a1.654,1.654,0,0,1-.32-.28l.07.41c-.41,0-.22,0-.55.1h.1a.57.57,0,0,0,.66.29Zm.38-4.54v-3.41c.43,1.09.88,2.19,1.32,3.31a7.088,7.088,0,0,1,.05-.93c.09-.58.23-1.05.33-1.68a9.333,9.333,0,0,1,.28-1l.07-.29-.44-1.06a2.453,2.453,0,0,1-.81-.6,4.748,4.748,0,0,1-.62.35l-.29.06-.34.07h-.25c-.61,0-.2-.18-.9.11l-.21.64c.36.45,0,.24.69.51l.17.38a2.151,2.151,0,0,1-.94,1.21,1.583,1.583,0,0,0-.77.6l-.12.18h-.08a.129.129,0,0,0,0,.06h.24a.805.805,0,0,0,.21,0c1.18.19,1,.4,2.33.71Zm5.54-16.08c.33-.14.54-.48.71-1.07a3.329,3.329,0,0,0-1.37,0l-1,.1h-.19l-.33,1.15.44.54h.2c-.1.23.1.45.47.28a2.756,2.756,0,0,0,.82-.57s0-.05.12-.1l-.07-.13h.18Zm2.08,3.09h0l.24-.28a1.429,1.429,0,0,0,.3-.84c-.7.12-.21.2-.76.37h-1.5a3.253,3.253,0,0,0-.46.1l.1-.41.12-.46c0-.51-.36-.86-1.06-.6h.25a.8.8,0,0,1,.06.58c0,.23-.06.37,0,.52a3.688,3.688,0,0,0-.39.14c-.59,1.4-.19,1-.09,1.25l.65-.68c.93-.06.95,0,1.49-.36h.19a1.473,1.473,0,0,0,.44.42h.34Zm2.51,2.55.42.28a.32.32,0,0,1,.25.17l.87.56a6.551,6.551,0,0,1,1.33.53c0,.24.07.14-.06.25h0l.46-.25a4.4,4.4,0,0,1,.82.05c-.47-.75-.44.08-.91-.68a4.342,4.342,0,0,1,1.49.41l.26.55s.09.05.1,0,0,.17.3-.13l.09-.28a1.475,1.475,0,0,0,.41-.11l-.11-.43a.4.4,0,0,0-.07-.28,1.877,1.877,0,0,0-.79,0c-.1-.08-.22-.09-.43,0-.49.16-.06.41-.88.12.12-.55.26-.17.39-.81-.43.3-.37.27-.92.2l-.15.36c-.29.1-1,.79-1.14.41l-.21-.18c-.56-.62-.64-.22-.58-.79a2.439,2.439,0,0,1-.95,0Zm5,3,.72.38.42-.28c-.27-.55-.22-.22-.06-.75-.45-.13-.67-.38-1.12,0a1.43,1.43,0,0,0,0,.64Zm14.55-7.53a4.561,4.561,0,0,0-.58.16,2.172,2.172,0,0,1-.15.31c-.54-.09-.93.11-1.63,0l-.3.38c.67.23.39-.18,1.09.24.91-.22.86-.06,1.17.34l.3-.24h0Zm-13.69,0c.24-.54.21-.31.63-.58-1.53-.36-1,.2-1.69-.54-.1-.12,0-.08-.25-.17.1-.73.12-.58-.35-1l-.7.17c.26.64.5.53.95.82,0,.38-.06.14-.11.47l.6.15a1.58,1.58,0,0,0,.79,1,2.583,2.583,0,0,0,.42.24.94.94,0,0,0,1.34.23c-.41-.63-.6-.4-1.49-.73v.08h-.14Zm17.78,9.24c-.13.25-.18-.26-.07.44h-.45a3.8,3.8,0,0,0,1.16.55v.09l-.07.24c0,.32,0,.09.12.24l.26-.42c.58.12.33.23.83.31,1.1-1-1-1.17-1-1.2-.49-.23-.15-.26-.74-.3Zm-17.45-5.81a1.862,1.862,0,0,0-1.18.1c-.65.18-.92.18-1,.77a2.46,2.46,0,0,0,.92,0l.1-.45v-.08a1.35,1.35,0,0,0,1.21.41c-.54-.72,0-.06-.07-.79Zm-2.58-6.44c.62,0,.34.18,1.13,0-.16-1-1.22-.68-1.81.11h-.86a1.379,1.379,0,0,0,1.06.5c.29-.24.24-.28.48-.55Zm19.63,10.72h-.54a3.49,3.49,0,0,0-.49-.16h.36c.31-.27.23-.05.28-.37Zm-24.05-6.4c-.16,0,.12-.45-.37.12s.24,0-.83.93c-.14.12-.11.09-.15.15h.07c1.79.19,1.5-1,1.28-1.3Zm.53-1.52-.76.08-.11.57.74.15a1.381,1.381,0,0,0,.8-.05C1209.1,2304.07,1208.919,2304.08,1208.509,2303.9Zm7-4.45-.46-.11c-.13.43.06.51-.18.83s-.51.11-.41.69C1215.509,2301.2,1215.1,2300.24,1215.509,2299.45Zm12.23,10.59-.6-.47h-.26l.13-.14-.6-.52-.31.39a.69.69,0,0,1,.16.32l.22.43.08-.1a1.212,1.212,0,0,0,.45.35l.73-.29Zm-16.77-10.34c-.25.14-.57.37-.86.52.09.46.06.46.36.7.46-.26.05-.09.28-.53S1211.289,2300.39,1210.969,2299.7Zm-1.44,3.46-.18.35a1.54,1.54,0,0,0,1.25.39C1209.919,2303.12,1210.369,2303.56,1209.529,2303.16Zm17.65-.56c-.25.25-.22.3-.17.58h.88a1.075,1.075,0,0,0,.37.11c0-.55,0-.46.2-.67h.08a3.828,3.828,0,0,0,1.38.38c0-.37.35,0-.25-.47h-1a1.313,1.313,0,0,1-.46-.09,3.762,3.762,0,0,0-.14-.77l-.82-.16c-.39.24-.47.36-.52,1l1.25.36a2.334,2.334,0,0,1,0,.48c-.2-.34-.21-.44-.65-.43Zm-7.07,9.65c.35.09.08-.06.36.42,1.18-.9.52,0,1.23-.22l.45-.94a1.942,1.942,0,0,1-.79.23c-.09-.19-.16.14-.08-.45-1-.46-.62-.8.14-1.08-.09.59-.16.6.11,1,.74-.1.17-.19,1.09-.52.77-.28.19-.55,1.11-.44.52,1-.43-.29.51.92a1.381,1.381,0,0,1,.26,1.07c-1-.13-.26-.1-.4-.53-.47-.31-.79-.43-1.18-.05l.83.25c-.9.79-1.28-.4-1.67.89l.69.1a2,2,0,0,1-.69.6.572.572,0,0,1-.21-.19c-.49-.52-.25-.16-.6-.47a7.464,7.464,0,0,0-.86.42c0,.37.08.09,0,.47a.94.94,0,0,1-.53.13c.11-.81.46-.79.2-1.59Zm4.61-14.1c-.37.08-.22,0-.54.25-1.36-.58-.51.12-1.47.05.21-.31.08-.17.41-.37-.12-.48-.12-.07-.07-.5.34-.24.17-.15.53-.25.44.26.2,0,.31.4.64.18.79.46,1.22.1s.34-.57,1.1-.38c.06.14.07.08.1.28.09.62-.2.31.5.81.49.36.53.55,1.27.61a1.423,1.423,0,0,1-.42.36l-.81-.18a2,2,0,0,1-1.93.36c0-.6.11-1.13-.2-1.54Zm-5,7.78c-.58.08-.76-.18-1.5-.24a1.67,1.67,0,0,1,1.48-.53,4.556,4.556,0,0,1,.84,1,6.986,6.986,0,0,0,1.22-.26,1.447,1.447,0,0,1,.72.76l-.32.28c-1-.31-.61-.39-1.16-.63a2.063,2.063,0,0,0-.78.65c2,.69.22.52,1.89.67l-.1.67c-.4-.12-.38-.22-.75-.4-1.94-.94-1.18,0-1.44-1.56l-.1-.4Zm3.12,3.18v-.4l.5-.26c.06-.38,0-.17,0-.6,1-.07.06,0,.81.35l.74-1.45c.8.72-.08.63.9,1.13l.19.09c.21.12.12.07.23.19-.61.44,0-.08-1.17-.42a2.343,2.343,0,0,0-.83.6l.58.2c0,.5-.1.11.16.46-.39.23-.14.15-.35.31s-.07,0-.46,0c-.68.09-.57.26-1.24-.24Zm-34.41,18.89a2.746,2.746,0,0,0-.89-.45l.07-.55c.29,0,1-.08,1.16-.08a5.235,5.235,0,0,1-.1,1.66c-.28.35-.2.2-.63.15l.39-.73Zm34.4-22.13c1.11.43.78.13,1.64.18a1.41,1.41,0,0,1-.72,1,1.251,1.251,0,0,1-.71-.38c-.48-.42-.4-.17-.21-.85Zm-.63-4.73c.31,0,.28.08.48.09.39,0,.47-.24,1,.08l.48.12.18.51-.72-.29a1.71,1.71,0,0,0-.37.42l-1-.19c.09-.42,0-.38,0-.74Zm4.5-.6c-.08-.37-.06-.27.47-.65s1.29-.36.85.61c-.27.59-.28.16-.69.17s-.2.22-.63-.13Zm-7.23.39.36-.33c.62.27.68.65.65,1.25l.59.07a2.313,2.313,0,0,1-.87.44l-.45-1v-.06l-.23-.35Zm-4,6,.23-.75c.58.11,1.57.06.55,1-.33.32-.61,0-.78-.29Zm-9.25-3.26c.07.25-.1,0,0,.51s0,.41-.15.84l-.73-.15h-.1c.39-.39.48-.84.9-1.09Zm19.43-6.7-.39.17a.727.727,0,0,1-.23-.18.857.857,0,0,0-.17-.19.663.663,0,0,0-.32.13c-.44.5.48-.32,0,.23-.13.15-.4,0-.27-.38.28-.76,1.16-.08,1.4.22Zm-.89,16.75a.739.739,0,0,1,.8-.15c.4.16.27.41.18.79-.57-.17-.79-.23-1-.64Zm-31.83,9.14.86.21a.941.941,0,0,1,.23.65c-.57-.23-1.46-.15-1.09-.86Zm34.15-12.41c.42,0,.62.18.68.39h0a1.192,1.192,0,0,1-.05.14c-.59-.26-.84-.35-.6-1Zm-6.2,3.63c.31-.39,1.17-.43.82.61-.45-.14-.15.06-.5-.27-.16-.16.06,0-.16-.2l-.16-.14Zm-1.94-2c.4-.13.54-.22.8-.07,0,0,.34-.07,0,.34-.14.14-.68.32-.75-.27Zm-26.35,20.72c1-.55.06-.34.89-1.3-.45-.39-.51-.11-.69-.71l.28-.47c-.09-.06-1.5-1.71-1.67-1.94l.6-.45c.58.51.41.6,1.09.58.4.73.83.5.26,1.67.53.65.55.47.37,1.28-.11.46-.18.31-.51,1l-.55,1.07c-.18-.35-.07-.46-.39-.73s-.36-.15-.62-.49c.58-.2.33.17.94.46Zm13.45-31,.63-.16.19-.82-.3-.26c1-.21,1.31.28,1.6-.09s-.74-.34.94-1.32c.38-.23.26-.21.55.06a3.221,3.221,0,0,1-.89,1c-.49.45-.14.5-.42,1,.62,1.25.18.47.86,1-.66.1-.82.14-1.15,0,.18-.35.12-.17.06-.48l-1.25-.15c.3.34.35.26.68.45-.06.12,0,.06-.13.21a.959.959,0,0,1-.15.15l-.49-.67c-.79.44-.24.24-.64.61a2.763,2.763,0,0,1-.09-.52Zm-24.73,8.27c.25.78,0,.29.6,1.15l-.13.07h-.68l.51.28v.05l-.36.79c-.38-1-.36-.67-.44-.83h-.1v-.06h-.14l.84-.53Zm-.65.35a4,4,0,0,1,.65-.35Zm2.18,22.41a1.22,1.22,0,0,1,1.68.2c-.37.05-.25-.06-.41.2l.15.35c.43-.22.21-.21.55-.4l.06.41c-1,.2-.53-.11-1.16.66-.21-.17-1-1.17-.87-1.42Zm2.11-8.78-.54-.91c.38-.39.41-.59,1-.51l-.43.49c.52,1.67-.1,1.07.56,1.85.37.44.23.2.21.46-.49-.19-.34-.41-.82-.55s-.64.2-.89-.5l.88-.33Zm58.3-8.88a1.327,1.327,0,0,1,0,.4c.6.12.53.11,1,.55h.67c-.07.14.32.16-.7.54a5.64,5.64,0,0,1-1.59-1.06c-.36-.18-.16.08-.56-.18a1.16,1.16,0,0,1,.59-.26,2.309,2.309,0,0,1,.26,0,1.336,1.336,0,0,1,.32,0Zm-33.28-17.28c.51,0,.31.21.94.12.38,0,.66-.27,1-.27l-.38.92c-.4.11-.23.09-.66,0a1.718,1.718,0,0,0-.71-.07c-.12-.24-.28-.51-.2-.7Zm-23.19,6.13c.53.75.33.62.94.77v.33l-.56-.11a.89.89,0,0,0-.12.88l-.79-1.3c.21-.39.15-.38.53-.57Zm3.76,23a1.27,1.27,0,0,1,1.32.51c-.52.07-.41.08-.84-.14-.19.41,0,.39,0,.73v.31c-.44,0-.31,0-.67-.23a2.875,2.875,0,0,1,.1-.53c.1-.44,0-.25,0-.65Zm-2.82-24.21.95.05.22.52-.62.19.53.4C1187.8,2304.209,1187.7,2302.919,1187.72,2302.81Zm1.89,21.8.82.84c-.6-.14-.18-.25-.83-.1l.55.4c-.51.11-.06,0-.52,0h-.56c.11-.56.15-.33.26-.62s-.23-.08.28-.56Zm2.32-10.27c-.4.13-.44,0-.9-.18-.08-.64.11-.31-.36-.81.52-.24.38,0,.75.3S1191.89,2313.71,1191.93,2314.34Zm-.43,7.57-.31.26c.5.85.17,1-.41,1.2-.1-.48,0-.59.25-1.09l.06-.16C1191.37,2321.64,1191.45,2321.91,1191.5,2321.91Zm52-4.79c.39-.49.71-.32,1,.17a1,1,0,0,1-.86,0c-.44-.23-.11-.13-.13-.21Zm-52.39,12.69c0,.42,0,.39-.23.67l-.77-.58,1-.09Zm1.9-27.79h.3a.335.335,0,0,1,.15,0h-.151l-.11-.11a.7.7,0,0,1-.17-.54Zm-2.43,33.51,1.43,1.13s.2-.31.2-.32c.26-.64.09-.23.13-.45-.35-.42-.21-.34-.84-.48-.24-.52-.06-.64-.46-1.22a2.619,2.619,0,0,0-.46,1.34Zm-.26-32.36-.2.09c-.2-.4-.2-.53.13-.57h.179Zm-62.34,62.07.09.1c.54.19.43-.13,1-.42-.23-.23-.59-.65-.74-.77-.07.17-.09-.07,0,.32.06.88,0,.24-.34.77Zm1.1,1.09.37.36a1.014,1.014,0,0,0,.09-.15c-.25-.24-.32-.29-.46-.21Zm10.33-3.45a3.932,3.932,0,0,1,.05-.77c-.45.23-.42.3-.23.61l.18.16Zm.25-3.88v-1.71a1.077,1.077,0,0,0-.59-.09,1.6,1.6,0,0,0,.56,1.37c.06.24-.29.23,0,.43Zm41.08-48.36h0l.17-.16Zm-50,55.31,1.16-.32-.28-.53h.49c-.41.81-.34.47-.12,1.37l-1,.08-.24-.65Zm2.94-7.75c.61.38.09.25.9.44l.39.46-.82.27c-.33-.31-.91-.83-.47-1.17Zm42.91-48.06,1.07-.14c-.21.64-.1-.46-.38.95l-.49.28c.12-.4-.1-.74-.22-1.18Zm-41.8,44.59c-.64.31-1,0-1.45-.39.51-.2.06,0,.42-.05a5.544,5.544,0,0,0,.55-.13c.36-.07.53.15.48.57Zm-2.37,6.26c1.07.18.47,1.18-.1.84C1132.109,2361.61,1132.129,2361.3,1132.419,2360.99Zm3.55-6.75.13.47c-.28.08-.24.36-1-.47a1.049,1.049,0,0,1,.82,0Zm73.84-17-.46-1.14a3.431,3.431,0,0,0-1,.34c-.64-.44-.41-.39-1-.29h-.18l-.11.64c.64.14.16,0,.77,0,.08.16.14.29.22.43.94.22,1.07-.06,1.57,0h.14Zm-8.11-13.86.58,1.44a2.1,2.1,0,0,0,.2-.23l.54-.54C1201.769,2323.05,1201.949,2323.37,1201.7,2323.38Zm9.24,18.27-.74.21-.5.14a.74.74,0,0,0,.46.44h.5Zm4.09,9.22c.32.25.54.28.33.74C1214.659,2351.61,1214.7,2351.22,1215.029,2350.87Zm-2-27.25c-.06-.09-.11-.18-.16-.27v-.13l.48-.1c.54-.3.62,0,1,0,.2,0,.16-.08.47-.07a1.47,1.47,0,0,0-.06.74l-1,.15a1.848,1.848,0,0,0-.36-.44l-.42.16Zm-1.25-2.11c-.3-.51-.62-1-.93-1.54.16-.11,0-.1.13-.53,0-.2,0-.14.12-.28.76-.16.64,0,1.07.42s.57.11,1.23,0c.12-.44-.13-.14.33-.38.35.11.18,0,.52.27,0,.43,0,0-.1.49.32.22.19.07.38.39-1,0-.07-.63-1.46-.11-.3-.28-.17-.18-.52-.26-.33.39-.2.92-.28,1.52l-.49.06Zm-4.15-6.8-.26-.43c.43,0,.23-.1.55.15a.752.752,0,0,1-.29.28Zm-2.4-3.82-.34-.54a1.465,1.465,0,0,1,.6.09,1.1,1.1,0,0,1-.26.45Zm5.57,2.29c.1.17.22.34.32.51s0,.11,0,.18c-.49,0-.51,0-.78-.35.3-.27.3-.16.43-.34Zm.51.81c.11.18.23.36.33.54a3.2,3.2,0,0,1-.53-.07c.06-.16.09-.26.11-.33h0a.3.3,0,0,1,.07-.1Zm.74,1.17.17.27a1,1,0,0,1-.53.41c-.25-.42-.21-.38-.58-.57l.15.63c-.52-.06-.75-.4-.94-.9,1.71.16.56-.47,1.73.16Zm.6,1c.12.18.24.37.35.56l-.6-.24a.759.759,0,0,1,.25-.32Zm.77,1.24.33.53a4.111,4.111,0,0,0-.12.58c-.54-.39-.94-1-1.4-1.29.5.12.56.36,1.19.18Zm.78,4.72a2.47,2.47,0,0,0,0-1c-1,.31-1.56-.08-1.56.58h0v.05a1.383,1.383,0,0,0,0,.18s.08,0,.1-.06a1.89,1.89,0,0,0,1.27.45c.25.15-.11.41.52.25-.18-.33,0-.14-.41-.3a.756.756,0,0,0,0-.21Zm-7.36-10.8v.06c-.52.11-.18-.12-.57.18.07.13.14.65.83,0l.09-.09a1.14,1.14,0,0,0,.51.05c.59-.09.1-.25.79,0l.37-1c-.76.13-.6.73-1.28.3.15-.34.1-.28.39-.4l.52-.23-.28-.49c-.37.16-.13.14-.46.33-.58.35-1.17.42-1.27,1.17a2.491,2.491,0,0,1,.36.12Zm4.79,7.41.39.19a.551.551,0,0,0,.22-.17,1.179,1.179,0,0,1,.19-.19.69.69,0,0,1,.31.15c.41.52-.46-.34,0,.23.13.16.41,0,.3-.37-.25-.77-1.16-.12-1.41.16Zm-2.41-3.76-.57.38C1209.269,2316.129,1210.089,2315.859,1209.219,2314.969Zm-6.21-11.92a2.9,2.9,0,0,1-.25.42,1.272,1.272,0,0,1,.7-.2l.07-.12a2.942,2.942,0,0,1-.52-.1Zm.39,1.7c.16.88-.35,1-1.21.82a1.41,1.41,0,0,1,.83-.9,2.19,2.19,0,0,1,.35-.09h0s-.06.09,0,.12Zm5.14,8.9c.26-.38.83-.52,1.25-.81.22.35.29.35.24.79a2.989,2.989,0,0,1-.42.12,1.2,1.2,0,0,1,.8.9c-.6.28-.79.24-1.45-.31l.2-.51C1208.869,2313.829,1208.609,2313.829,1208.539,2313.649Zm12.38,18.8c.36.43.39.56.17.93-.48-.15-.5-.31-.75-.78Zm-13.15,16.33-.52-1.11c-.48,0-.37.24-.75.65s-.48.3-.57.6c.49,0,.24-.45.9.28a1.909,1.909,0,0,0,.94-.42Zm-10.67-25.45v.07s-.19,0-.18.67v.34c0,.36.07.12-.09.42-.43,0-.41,0-.66-.33.23-.48.28-.39.45-.65s0-.54.53-.52Zm-3.06-10.62.68.73a1.26,1.26,0,0,1-1.28-.43ZM1178.659,2350l-.46-.41-.58.93c-1.13-.36-.53-.16-1.31-.84-.46.83-.51.76,1.46,1.91a3.128,3.128,0,0,0,.26-.26c.21-.51-.52.39.63-1.33Zm-23.38-19.15c-.07,0-.13-.1-.2-.15l-.07.25c.23,0,0,.15.26-.08h0Zm13.68,13.79.39.33h.12l.23-.35c1.33.49.18.59,1.06.52l-.28-.58c.87-.11.47-.05.55-.32-.51.09-.37.29-.82.15l-.67-.28c-.42.36-.05,0-.3.43l-.28.07Zm3.76,3.23.68.59.83-.65-.9.18c-.38-.43-.11-.32-.57-.36a.857.857,0,0,0,0,.24Zm5.37,4.78,2.4,2.2h0c-.25-.68-.14-.23-.55-.69a.334.334,0,0,0-.08-.09.518.518,0,0,0-.06-.1l-.32-.51a6.445,6.445,0,0,1-.16-.66,3.191,3.191,0,0,1-1.16-.17h-.08Zm-9.35-9.85c-.38-.38-.27-.11-.57-.47.8.22-.3.06,1.13.28v.25l-.06.14a1,1,0,0,1-.36.39,1.307,1.307,0,0,1,.15.12l.06.22c-.27-.09.07.09-.35-.16l-.29-.19a1.58,1.58,0,0,1-.58-.48,1.749,1.749,0,0,1,.95-.1Zm3.12,1.71c-.21.6-.07.32-.07.82-.48.08-.48.05-.81-.29C1172.049,2344.36,1170.979,2344.65,1171.859,2344.51Zm56.73-12.51-.31.49.51.24c.29.14.23.08.37.42-.7.4-.51-.19-1.27-.35l.33,1c.69-.23.21-.09.79,0a3.083,3.083,0,0,0,1.23-.24c-.06-.75-.65-.84-1.21-1.21-.32-.2-.09-.18-.44-.36Zm1.52,6-.1-1.09-.43-.28a.89.89,0,0,0-.51.39c.13.42.15.24.26.45a1.27,1.27,0,0,1,.07.69h.66Zm-1.2-27.44a2.127,2.127,0,0,1,1,0c-.59-.69-.15-.72-.81-1-.43.78.61.05-.49.8-.22.14-.17.82-.16,1,.43-.17.43-.48.51-.8Zm-.37,34.54h1.19c-.2-.48,0-.07-.23-.32s-.09-.17-.28-.46h-.76Zm-.38-17.91h0a.715.715,0,0,1,0-.12h0l.06-.82c1.18-.17.85.09,1.32.63.23.27.46.32.54.63-.5,0-.23-.47-.92.24a2.046,2.046,0,0,1-.59-.23l-.21.15a1.521,1.521,0,0,1-.19-.44Zm.69-27.31,1.35.41c-.33.35-.47.32-1,.21a.941.941,0,0,1-.3-.62Zm2.66-1.39-.4-.22c.34-.36.39-.32,1-.18l-.53.87c-.14-.14-.09-.26-.07-.47Zm-3.65,21.66c.46.18.52.23.67.61-.32.23-.08.18-.57.17-.23-.29-.31-.34-.1-.78Zm2,5.72a1.221,1.221,0,0,1-1.58,0A1.59,1.59,0,0,1,1229.859,2325.87Z" transform="matrix(0.998, 0.07, -0.07, 0.998, -899.338, 1678.945)" fill="#99b8ae" fill-rule="evenodd"/>
    </g>
    <path id="Path_38519" data-name="Path 38519" d="M1249.044,2330.36c-33.61,15.93-79.56,15.3-131.94,37.88,22.2-41.24,55.8-86.64,83-99.53,42.15-20,111.94-17.67,154.89-33.47,25.26-9.31-72.06,79.05-106,95.12Z" transform="translate(-1716.81 2210.514) rotate(-16)" fill="#99b8ae" fill-rule="evenodd"/>
    <path id="Path_38520" data-name="Path 38520" d="M1310.74,2331.17l-.86.38c-.23-.88-.42-2.15.37-2.52a4.559,4.559,0,0,1,.49,2.14Zm-1.33.59-1.19.51a3.779,3.779,0,0,1,.44-1l.22-.5c.2-.19.16-.4,0-.63-.16.6-.32.61-1,.34-.21-.65-.12-1,.09-1.15a3.38,3.38,0,0,1-.6-.55l-.8-.07c-.2-1.12-.12-1-1-1.68,1.35-.14.69.39,1.83.27.07-1.79-.16-.8-.77-1.65a1.248,1.248,0,0,1-.25-.55c-.34-.48-.2,0-.15-.86l.64.09a4.759,4.759,0,0,1,.52-.32l-.17-.83h1c.76.3.2.54.46.5.07,0,0,.13,0,.2l-.92.84a8.522,8.522,0,0,0,.1,3.19c1.22-1.4-.4-.81.79-2.2.1.47.31,1.11.41,1.64l.86.82c-.44-.25-.11-.22-.64,0,0,.8-.63,2.52,0,3.58Zm-1.3.55-.37.16a1.081,1.081,0,0,0-.81,0l-.09-.57-.16.07-.26.16c-.46.27,0,.18-.26.1-.2-.55,0-.61.09-1.4a3.774,3.774,0,0,0-.49-.49c-.64-.65-.3,0-.32-.81.8.3.89.62,1.79.94l-.31,1.11c1,.25,1.12.32,1.19.72Zm-10.14,3.77-1,.33a5.61,5.61,0,0,0,0-1l1,.64v.07Zm-7.08,2.17-1.17.33-.2-.36c.5-.46.45-.55,1.06-.56s.35-.14.71-.15A1.84,1.84,0,0,1,1290.89,2338.25Zm-14.74,3.73-.93.21c-1-1,0-.53.49-1.13.23-.25,0-.19.46-.57a1.25,1.25,0,0,1,.76.49l-.16.7-.62.3Zm-7.58,1.67-1.11.24a3.373,3.373,0,0,0-.21-.28,1.46,1.46,0,0,1-.19.37l-.4.08-.2-.15a1.243,1.243,0,0,1,0,.2l-1.66.35a1.279,1.279,0,0,1,.49-.73,2.64,2.64,0,0,1,.41.19,2.159,2.159,0,0,1,.08-1.16c-.12-.49.1-.42.29-.62h0l.11-.13c.72.46.31.35,1.21.66a6.28,6.28,0,0,1,1.07.42,2.152,2.152,0,0,0,.09.52Zm-21.81,4.6-1.35.29h0c-.17-.53-.07-.81-.26-1.26l-.27-.5.92-.64a1,1,0,0,1,.4.2,2.692,2.692,0,0,1,.3.28,2.38,2.38,0,0,1,.29,1.64Zm-64.41,16.72c.17-.31.33-.62.51-.94l.49.28C1182.74,2364.84,1182.61,2365.03,1182.35,2364.97Zm1-1.8,1.24-2.23.4.23a3.17,3.17,0,0,0-1,2,4.609,4.609,0,0,1-.62,0Zm5.3-9.26c1.2-2,2.43-4.09,3.68-6.13.08.07.14.14.21.21a8.488,8.488,0,0,0,.64,3.41c-.91.34-1.68-.24-.72,1.33,1.08-.58.21-.06,1-1h.21c1.46.48.18.47,1.61.42a5.288,5.288,0,0,0,1.59,1.73l-1.83.15-.73-.9c-.77.5-.34-.05-.44,1.09l-.12.47c-1-.85-.37-.68-1.4-1.12l-.62,1.21c-1,.08-.6.1-1.44-.34-.25-1.45.23-.67-.46-2.22-1.07,1.13-.26.86-1.07,1.7h-.07Zm25.7-38.57c.33-.45.67-.89,1-1.33,1.57,2.83,2.48,2.1,3.16,3l-1.53.6c-.63-1.41-1.06-2-2.41-1.82-.12-.26-.19-.38-.23-.45Zm131.82-7.34-1.42,1.09-.59-.48.27-.14a7,7,0,0,1-1.45-1.8,4.318,4.318,0,0,0-.89,1.89c.66.8.74.43,1.4,1.28l.12.11q-1.08.83-2.16,1.62a5.975,5.975,0,0,1-.58-.24c.62-.34.49,0,.58-.69l-.53-.61c-.61.76-.24.58-.69,1.21l-.43-.79c1.66-1.11,1-.15,1.59-2.17a1.611,1.611,0,0,1,.27.15,3.3,3.3,0,0,0-.11-.7,10.142,10.142,0,0,1-2.43-1.12,3.44,3.44,0,0,1,.26-3.24c.51,1.44,1.14,1.66,1.29,2.85h.84c3.17-.31,1-1.3,3.79,1.89l.4-.19c-.06-1.39-.35-1-.87-2.16.58-.12,0-.12.64-.1l.71.12c.54.14.94.25,1,.82-.27.85-.76.93-1.06,1.41Zm-11.62,8.63-.64.45-.3-.53c-.93-.87-.45-1.18-.69-1.95-.13-.4-.28-.28-.45-.89a2.934,2.934,0,0,0,1.49-.34l.94,1.91a3.187,3.187,0,0,0-.64,1l.29.38Zm-2.86,2-.59.41c-1,.2-.7-1-1.88-2.74a5,5,0,0,1,1.87-.67c.05.07.33.52.35.54.54.66-.16,0,.33.26l-.15,1.13-.72-.56c-.16.65-.37.27,0,.95a2.1,2.1,0,0,0,.48.5.218.218,0,0,0,.21.17Zm-2.34,1.62q-1.83,1.245-3.58,2.4c-.81-.47-2.15-1.66-.93-2.53a.79.79,0,0,1,.75-.13,8.779,8.779,0,0,0,.11-1.38v-.1l-.1-.1c0-.74-.08-.42.17-1.09l.08-1.29c.5.5.5.79,1,1.07h0c.23-.76,0-.43.52-1,.31.87.07,1-.08,1.22a3.138,3.138,0,0,1,1.34.5c-.72.66-.76.2-1.41-.1a4.816,4.816,0,0,0,.85,1.3c-.38.78-.25.44-.2,1.2a2.34,2.34,0,0,0,1.48,0Zm-6.62,4.35-.75.47-.06-.1a1.176,1.176,0,0,1-.12.21c-.85.52-1.68,1-2.49,1.5-.57-1.83-.92-.31-.55-2.18a3.254,3.254,0,0,1-1.26-.45h-.22c-.32,2.86.91,1,0,2.45l-.82-1.15c-1,1.4-.5.78-1.07.63.62-.79.85-.34,1-1.31l.11-1.48c1-.32.17-.12.89-.06a2.064,2.064,0,0,0-.45-1.07c.21-1.13-.2-.56-.22-1.56l.66.22a9.556,9.556,0,0,0,.69,1.83l.41-.46a6.034,6.034,0,0,1,0,.8h.18c.22.33.41.54.51.73a1.591,1.591,0,0,1,.91.48,1.644,1.644,0,0,0,0-.24c-.5-1.41-.59,0-.22-1.79-.47-.24-1.4-.81-.93-1.65s.12-.13.53-.24c.76-.21.12,0,.87-.74l.24,1,.77.3-.14,1.89a1.56,1.56,0,0,1-.78-.29l-.11.13c.57.66.13.7,2.49,2.07Zm-5.81,3.45-.53.3c-.59-.4-.17-.38-1.34-.64,1-1.31-.44.19,1.78-1,.24.72.33.91.09,1.3Zm-22.35,5.78h0a.471.471,0,0,1,.1-.26c.48-.74.77.85,1.38-1.81.14-.6.16-.45-.31-.71a4.57,4.57,0,0,0-.92,1.6c-.33.7-.53.5-.95.79h-.25l-1-.15a3.723,3.723,0,0,0-.09-.62,8.152,8.152,0,0,0-1.37-.6h0v-.05h0c-.23-.81.13-.6-.66-1.88a1.409,1.409,0,0,0-.91,1.16s0,0,0,.05v.07h0v.05h0v.06h0v.05h0v.05h0a.556.556,0,0,0,0,.11h0v.06h0v.06h0v.06h0v.06h0v.05h0v.05h0v.05h.81l.06.2.39,1.51a2.38,2.38,0,0,0,.42-1.07c.08-.05.1,0,.37,0l.73,1.59c-.59-.25-.5-.34-.89-.71-.14.13-.08,0-.23.26s-.05.13-.13.26l1.1.38c-.25,1.23-.21.41-.54,1.11a3.7,3.7,0,0,0,.72-.11v-.89l1-.61.47.29a3,3,0,0,0-.31-1.12h0v-.06h0v-.06h0a.3.3,0,0,0,0-.1h0v-.13h0v-.09Zm-26.39-4.66c-.88.19-1.76.43-2.67.69l1,.54.19-.17c.09.17.19.41.34.77.47,1.14.16.63.65.88.1-1.07-.44-1.05-.26-2.06a1.843,1.843,0,0,1,.07-.25c.6.25.21.32.91-.11l-.24-.29Zm-6.07,1.82-1.25.47c.33,1.14-.46.26.4,1.21,1-.75.83-.29,1.4-.6-.2-.41-.39-.75-.55-1.08Zm-2.27.89q-1.06.43-2.16.93c.2.19.4.06,1.1-.48.53.41.07.24.67.25a1.772,1.772,0,0,0,.39-.7Zm1.08-12.94c.07-.18.15-.35.22-.53l-.68-.95c-.45.37-.64,1.36.46,1.48Zm5.88-37.32-1.14.64a2.384,2.384,0,0,1,.71.38c.64,1.16.25,1.13.95,2.07a9.109,9.109,0,0,1,1.29,2.26c1.15-1.4.18-2.36-.57-4l-.83.68c-.76-.86.22-.22-.41-2Zm-5.94,3.26-1.43.77a7.862,7.862,0,0,1-.16.93l-.85.29c0,1-.35.84.33,1.5a.115.115,0,0,0,.1-.09l.73-.86c.35-.58-.52.47.08-.2.31-.33-.05,0,.39-.22-.17,2.25-.07.59.11,1.81,1,0,.33.3,1.34.47.06-.84-.25-.61-.66-.91l-.16-1.39-.85-.24.15-1.22c1.08,0,.51,0,1.41.38.06-.64.11-.83-.53-1Zm-48.29,54.34h0a1.42,1.42,0,0,0,.14,2.51l2.76.88c-.12-1.2-.47-1.21-1.23-1.56-1.14-.54-.81-.62-1.66-1.83Zm-1.15,0h-1.54l.26.43a1.119,1.119,0,0,1,.29-.1,3.713,3.713,0,0,0,1-.33Zm27.69,6.16h-.8c-1,.4-1.64,1-1.19,2.15l1.87-1.38a8.459,8.459,0,0,0-.09-.92h.21Zm43.51-8-.79-.17-.07.8c0,.44,0,.34-.38.68-.86-.72,0-.76-.15-1.83l-1.15.91c.64.81.23.24.35,1a4.1,4.1,0,0,0,.91,1.51c1-.46.8-1.27,1-2.2.12-.51.19-.19.26-.75Zm-31.82-19h.21a.21.21,0,0,1,0-.08l1.07-.43c-.28-1.64-.47-1.09-1.4-1.48-.47-.2-.62-.48-1.07-.45.19.66.72.1.07,1.31a3.491,3.491,0,0,0,.55.71l-.11.34a3.074,3.074,0,0,0,.67.07Zm12.4,16.72a2.54,2.54,0,0,0,1.42,1.63c.63-.92-.14-2.61-1.41-1.8-.41-.53-.06-.32-.57-.41.06.9.25.32.56.58Zm-14.46,5.9,1.08-1.2.51.7.22-.64c-1.26,0-.8.09-1.82-.8l-.67,1.19Zm28.47-2.35c.4-.52.34-1.33.55-2-.56-.15-.58-.24-1.15,0a4.733,4.733,0,0,0,0,.61,1.751,1.751,0,0,0-1.55-.69c-.12.92,0,1.17,1,1.81l.61-.48c.09.39.25.72.5.75Zm-16.92,4.06v-.11c.12,0,.16-.06.39.26l-.53.5c1,.73,1.46,1.53,2.5.9a6.492,6.492,0,0,1-1.29-1.19c-.49-.59-.54-.34-1.16-.88-.08-.24-.1-.08.07-.89l-.37-.8-.32.32c-.17-.15-.28-.26-.39-1.44l-.79-.27a3.706,3.706,0,0,0,1-.65c-.78-.69-1.09-.6-2.23-.75l-.34-.06c-1.13,0-.71.4-.76.5l.77-.26a2.87,2.87,0,0,0,1.07,1.2c.29,1.18-1.1,1.52,1.23,2.38a5.792,5.792,0,0,0,.32.78v.06h.08c.2.31.45.5.79.35Zm20.45-12.43a2.479,2.479,0,0,0-.32-1.23h-1.01c-.09.52.15,2.08,1.33,1.17Zm-2.75,4.87c-.75-1.1.26-.86-.67-1.87a2.159,2.159,0,0,0-.63,1.69.083.083,0,0,0,.11,0c.05-.05.09,0,.11,0l1.08.12Zm-1.26-2.49c-.46-1.85-1.16-1.44-1.12-.61a2.391,2.391,0,0,1,0,1l1.15-.39Zm-27.27,12.27c-.07-.27-.4-1-.56-1.44-.77.59-1.1.12-1.14,1.18,1-.05.14-.61,1.26.1.48.31.18.13.44.16Zm26.23-10.09c-.12-.65-.49-1-1.09-.74a2.13,2.13,0,0,0,.39,1.49C1275.46,2335.23,1275.46,2335.33,1275.69,2334.84Zm-29.26,8c.82-.35.91-.21.65-1-1-.05-.39.7-1.59-.08,0,0-.47.26.64.92a1,1,0,0,0,.3.14Zm9.58-.48c.38-1.43-1.23-1.38-1.13-.45a.85.85,0,0,0,1.13.45Zm4.34-26.56c-.44-.54-.53-.6-1.09-.62-.18.51-.21.17,0,.83C1259.75,2316.18,1259.84,2316.27,1260.35,2315.8Zm-35.7,30.18c-.47-.32-.6-.61-1.14-.13C1223.81,2346.78,1224.32,2346.57,1224.65,2345.98Zm35.56-52.86a1.6,1.6,0,0,0-.54.2c-.4-.74-.36-.66-1.17-1.15l-.27-.89c-.16.15-.35-.36-.42,1.17a7.8,7.8,0,0,0,2.09,1.66c.38.4,0,.25.47.67a1.548,1.548,0,0,0,.1-.89s-.07-.3-.09-.35a2.071,2.071,0,0,0-.17-.42Zm-3.71,1.86a2.161,2.161,0,0,0-.16-.92l-.58.29-.17,1.15c-.21.08-.44.19-.75.34,0,1.36.69.85-.54,1.84-.68.55-.82.93-1.73.82-.26-.79-.12-.6-.15-1.44a2.93,2.93,0,0,0-.93,2.42l1-.07c.26,1.43.56.74,1,1.7.24.52,0,.39.17.88.1.32.49,1.12.64,1.5.67-.88.45,0,.41-1.19,0-.63-.13-.26,0-1,.83-.54.92-.3,1.67-.49-1-1.28-1.42-.49-2.15-2.21a4.36,4.36,0,0,1,2.14-1.42,2.751,2.751,0,0,1,.69,1.89,1.964,1.964,0,0,0,0,.24v.27c.55-.42.74-.31,1.11-.81l-.24-.21c-.74-.59-.49-1.05-.82-1.95l.35.1c.18-1.1-.09-1.5-1.09-1.71Zm-2.06,8.91-1.6-.62s-.06.36-.06.37c0,.69,0,.25.06.47.45.29.3.26.87.19.39.42.28.59.83,1a2.919,2.919,0,0,0-.1-1.42Zm-2.45,9.47-.2.91c.86.89.56.48,1.52,1a2.8,2.8,0,0,0-1.32-1.9Zm-.16,2.14a1.7,1.7,0,0,0,.66,2.12,2.25,2.25,0,0,0-.66-2.12Zm-5,14.69c-.74-.3-.92-.28-1.32.18.4.56.62.53,1.35.66v-.84Zm10.68-36.57c.47-.74.12-1.09-.66-1.26a1.44,1.44,0,0,0,.31,1.16C1257.66,2294.02,1257.39,2293.63,1257.51,2293.62Zm12.48,42.11c.87.17.45.58,1.24-.16.44-.4.7-.45.74-1.1-.48-.29-.37-.16-.91-.28a1.79,1.79,0,0,1,1.66-.36l-.17.71c.89.36.4.48,1,.91.3.24.24.08.54.24a10.131,10.131,0,0,1,.88.63c-.65.36,0,.32-.81.14-.4-.08-.15-.12-.66-.1-.45.52-.31.61-.52,1.11-.69-.88-.13-1-1.15-1.78a3,3,0,0,0-1.17,1.32,1.69,1.69,0,0,0,1.12.72h.16l.16.06c-.34.34-.29.49-.66.68l-.1-.19c-.39-.8-.86-.3-1.83-1.45a2,2,0,0,1,.51-1.14Zm8.67-6.42c.67,1,.18.4,1.28,1.39-.56.75-.29,0-.91.74l.77.19-.08,1.35c-1.36-1.87-.38,0-1.49-1.84-.24-.38-.92-.45.43-1.83Zm-9.59,9.13c.64-.08.41.21,1.23.15.66-.05.6-.1,1.23.47l-.65.87.39.52c-.19,0-.19.31-.59-.27-.11-.16-.15-.4-.34-.72-.63-.09-1.09-.14-1.27-1Zm3.38-.06a1.7,1.7,0,0,1,.7,1.08l-.46.7.44.86-.68.68c-.5-.91.27-.41,0-1.73-.14-.73-.54-.89,0-1.59Zm-9.54,1.89c.93.57.13.36.64.88s.58.2.73,1c-.68-.18-.52-.42-1.09-.88l-.45.34-.12.06-.12.06c-.64-.73-.39-1.18.41-1.44Zm9.69-9.15,1.35-.53c0,1-.35-.62,0,1.5l-.49.61c0-.62-.47-1-.84-1.58Zm-6.09,12.28v-.08h0v.09Zm-60.5-1.45-.87.92-1.67-.55-.21-.82c-1.29,1.53-.68,2.63-1.63,2.75-1.24.16.06-1.7-3.27.2-.75.42-.62.25-.39,1a6.358,6.358,0,0,0,2.58-.52c1.25-.37,1,.29,2.26.38,1.71,2.46.69.83,1,2.58.8-1,1-1.29,1.1-2-.81-.05-.43,0-.93-.41l.85-2.36c.36.89.17.89.2,1.69a1.082,1.082,0,0,0,.51,0c.35-.05.19-.07.41-.11l-.77-1.59c1.52-.92.65-.16,1.69-.48a6.369,6.369,0,0,0-.86-.71Zm37.66-34.72c1.2,1.28.49.39,1.56,2.31,1.19-.66.07-.45,1.27-1.18l.07,1.21,1.87.25c-2.21-2.56.07-.58-2.14-2.76C1245.84,2306.6,1245.93,2305.56,1243.67,2307.23Zm40.26,27.56c-1.43.89-1.54,1.75-1.14,3.2.41-.6.09-.51.74-.5l.49.63c-.8.53-.57.18-1.24.54l.69.57c1.29-1.57.29-1.08,2.27-1.35-.12-.54-1.28-2.94-1.81-3.09Zm3.8-2.61c-.75.35-.75,1-2,.9s-1.18-.93-2.24.2c.78.83.84.65,1.73.54l.63,1.14a6.59,6.59,0,0,0,.45-.76,6.227,6.227,0,0,1,.43-.74c1.29.25.84.5,1.92,1.21.2-.59.11,0,.18-.66v-.75a2.513,2.513,0,0,0-.11-.66h-.87Zm-92.46,12.43c-.54.84.08.8-.59,1.73v.07c-.44.62-1.1.87-1.41,1.5l2,.32h.47a2.737,2.737,0,0,1,.08-.36,3.32,3.32,0,0,1,.52-1.32c-.31-.49-.67-1.07-1.09-1.13Zm63.56-49.43c-.28,1,.18.68-.13,1.91-.25,1-.29.88.33,2l1.36-.74.62.73c.09-.29.48-.21-.22-1-.19-.2-.51-.32-.89-.69C1259.9,2296.39,1259.99,2295.69,1258.83,2295.18Zm-34.31,15.44-.77,1.74.75,1,.91-.89.25,1.37c1.31-1.43-.92-3.09-1.14-3.18Zm33.32-10.34a2.42,2.42,0,0,0,1.3,1.35l1.09-.51,1.07.9,1.12-.85c-1.12-1-.64.3-2.4-.42-1-.4-1.08-1.06-2.18-.47Zm5.16-13.92c.54,1.56.47.31,1,1.21s.12.93,1.15,1.38c-.06-1.08-.44-.91-.92-1.9l.58-.59a.818.818,0,0,0,.12-.16,1.118,1.118,0,0,0,.12-.16c-.84-1.16-1.52-.92-2.1.22Zm-.31,51.43.8,2.36c.29-1.21-.29-.6.58-1.57l.23,1.4c.66-.78,0-.12.49-.92.19-.34.19-.22.31-.43.31-.51.16-.22.25-.53-1.12-.4-.74-.08-1.36-.19S1263.99,2337.42,1262.69,2337.79Zm-14.91-39.22-1.09,1.89c1.36.31-.77-.69,2.06.36l1-.57c-.86-.21-1.29-1-2-1.68Zm-6,32.1c.61-.57.46-.75.51-1.8-1.1-.83-.67-.14-1.16-1.51-.93.66-.38.65-.13,1.64s-.33.9.78,1.67Zm47.54,5.28c.42.39,1.07.89,1.56,1.37.84-.47.85-.42,1.15-1.17-.81-.71-.22,0-1.23-.21-1.32-.25-.43-1-1.48,0Zm-52.78-3.62.7,2a2.561,2.561,0,0,0,.39-2.75l-.82.56h0l-.27.18Zm-18.4-18.67.62,1.1c.74-1.42.86-.9.6-2.67-.95.77-1,.57-1.22,1.57Zm47.17-20.39c.83.87,1,.8,2.11.26l-.44-.93C1265.98,2292.6,1266.14,2292.75,1265.31,2293.27Zm-47.06,25.85c-.76.92-.24,1.4.47,1.73.45-.39.56-.27.38-.84A1.651,1.651,0,0,0,1218.25,2319.12Zm3.5-3.73c.66.76.41.7,1.4,0C1222.51,2314.39,1222.28,2314.39,1221.75,2315.39Zm127.36-10.53.19-.42c-1.13-1-.84-.42-1.88-1a9.929,9.929,0,0,0-.38-1.52,2.511,2.511,0,0,0-2.31,0l1.55.71c.34,1.92,1.7,3.46,2.83,2.23Zm1.76-3.93c.14-.3.25-.6.38-.91l-.69-.14c-.2.68,0,.21-.2,1a8.921,8.921,0,0,1-1.09,0l-.15-.1a.43.43,0,0,1-.11.12,2.1,2.1,0,0,0-1.06.67l1.09,1,.39-.14a2.962,2.962,0,0,0,.23.61c.47-.37.36-.44.19-.76.36-.15.4-.36.71-1.39a1.8,1.8,0,0,0,.31,0Zm3.55-10.2c.1-.38.2-.76.31-1.15l-.31-.06A1.55,1.55,0,0,0,1354.42,2290.73Zm.87-3.37.07-.35a4.671,4.671,0,0,1-1.46-.43c1.24-.87.91.07,1.6-.17l.12-.54a9.086,9.086,0,0,0-1-.44l-.66-1c.18.5.2.15-.07.67a4.75,4.75,0,0,0-.87,0l-.19-.41c-.33.23-.51.32-.63.42-1,0-2.08-.31-2.25-1.76-.75,1.11-.29.75-.66,1.69a1.176,1.176,0,0,1-.21.19l-.68-.1.11.2a1,1,0,0,0-1.1.09c.58.39.65.15,1.38.71,0,.58-.47.67.48,1.78a3.129,3.129,0,0,0,1-2.26,3.746,3.746,0,0,0,.57-.23l.51-.16c.21-.18.41-.1.6.1-.06.09-.13.21-.22.38.12.8.52,1.26,1.18,1.23l.1.14v.85c1,.35.94.25,1.45,1.23.31-1.38-.27-.76,0-1.94a5.174,5.174,0,0,1,.87.15Zm.92-4.46v-.19l-.23-.07a.9.9,0,0,0,.2.26Zm.59-3.75a4.936,4.936,0,0,1,.09-.64c-.65.38-.2.18-.15.69h.06Zm.2-1.49c0-.25.06-.5.08-.76a5.694,5.694,0,0,0-.56.26l.48.5Zm.24-2.27c0-.59.11-1.19.15-1.78a2.7,2.7,0,0,0-1.64,1,6.2,6.2,0,0,1,1.49.77Zm.07-15.53-.12-1.4a1.837,1.837,0,0,0-.31-.16c-.21.19-.42.38-.65.56l1.08,1Zm-20.29,26.24c-.21.71-.41,1.45-.6,2.21l.63.88c.2-.43,0-.23.15-.9l.5.67c.53-2.44.08-.12.52-1.34a2,2,0,0,1-.78-1.07c.42-.33.41-.19.9-.2l.45,1.12.73-.56c-.13-.71-.39-.77-.2-1.43.7.9.31.67,1.17,1.2l.66-.86c-.5-.54.12-.19-.67-.4l-.11-.75-1.29-.05c-1.11.22-.26,1.68-1.94,1.26a1.006,1.006,0,0,0-.12.22Zm-2.29,11.16a1.287,1.287,0,0,1-.07.51c.8,1.25.64,1.7,2,2.14a2,2,0,0,0-1.91-2.65Zm-.67,6v.65c.43-.1.64-.17.83-.82l-.78.17Zm-.38,5.8a9.454,9.454,0,0,1-.07,1.4,3.708,3.708,0,0,0,.21-1.38h-.14Zm-.32,1.85c-.18-.68-.36-1.34-.56-2l-1.25-.19-.14-.07-.83-.25-.47.88c.9,1.08,1.68,1,2.86.6l.39,1Zm-33.25-23.74c.44,1.11.86,2.2,1.28,3.25a9.1,9.1,0,0,0-.37-2.94C1300.3,2287.05,1300.77,2287.06,1300.11,2287.17Zm2,4.93.36.86a2.755,2.755,0,0,1,.3-.31,5.2,5.2,0,0,1,.66.14c.86.17.2.24.79-.21-.69-.51-1-.4-1.76-1l-.35.51Zm5.66,10.52c.19.26.39.52.59.77a3.551,3.551,0,0,0,.48-1.39c-.48-.26-.35-.33-.72.15C1307.98,2302.32,1307.87,2302.48,1307.77,2302.62Zm-4.85,8.36h-.9c0,.35.37.55.73.17a1.454,1.454,0,0,0,.17-.19Zm-10.35,1.07-1.09.21c.09.35-.41.22-.07,1.07.33-.41.2-.18.33-.7.68-.05.14.14.7-.11a2.233,2.233,0,0,0,.13-.47Zm-2.79.6c-.46.1-.9.21-1.34.33v.26c.34.15-.15-.27.24.16l.24.36a4.805,4.805,0,0,0,.83-.27,1.069,1.069,0,0,0,.2.16c.34.19.27.09.58-.16-.1-.43-.27-.77-.65-.71l-.07-.13Zm-2.52.66-.53.15a2.7,2.7,0,0,1-.4.67l.69,1.27a2,2,0,0,1,1-.28c-.14-.41-.24-.32-.33-.59-.18-.49.09-.72-.43-1.22Zm-6.37,2.26-1.14.51a2.714,2.714,0,0,0,.45.31c.76.46.39.45,1.22-.09a6,6,0,0,1-.53-.73Zm-3.19,1.54c-.27.14-.54.29-.79.44l.17.12.56-.12.06-.44Zm-2.59,1.54a21.735,21.735,0,0,0-2.85,2.22c.4.4.79.78,1.19,1.16.46-1.45-.37-.4-.35-1.39l1.07-1a2.719,2.719,0,0,0,0,1.16c.28,0-.12.27.63-.09,1,1.16,1.33.48,1.38-.66-.75.38-.73.49-1.35.29-.18-1,.19-.31.24-1.68h0Zm-1.22,3.8Zm23.29,12.61c.32.06.63.1.94.14a7.016,7.016,0,0,0-.28-1.18c-.38.6-.57.88-.66,1Zm-14.53-14.58c.15.81.58.93,1,1.89a2.34,2.34,0,0,0,.08-2.21l-.14-.09v-.42l.74-.08-.15-.47c-.83.05-.53.14-1.54-.7-.39.43-.31.4-.39,1l.2.19-.43-.15a9.518,9.518,0,0,1-.17-1.74,2.059,2.059,0,0,0-1.32-.63l-.25.54c.83,1.16.78.65,1.34,1.29a2.911,2.911,0,0,1-.55,1.31c-1.4-1.92-1.07-.84-1.32-1.39l.06-.07-.13-.09c-.08-.16-.16-.37-.29-.69l-.41.2-.25-.17s-.08-.09-.14-.07a.378.378,0,0,1-.15,0c-.05,0,0,.12,0,.15s.06.25.08.35h0c.22,1.08-.27.26.27,1a.682.682,0,0,0,.56-.17c2.07,2.17.52,1.55,2.69,1.24h.57Zm30-14.88c.82.06.51.13,1.06.54-.25-2.17-.74-1.23-.08-2.48.1-.19.08-.1.1-.4,1-.23.82-.14,1.18-1l-.39-.58.18-.69-.49-.62c.25-.28.21-.32.28-.29a4.219,4.219,0,0,0,.11.72,5.774,5.774,0,0,0,1,.36c.32.8-.06.53.57,1.47,1.26-.71.31-1.93-1-2.33v-.11h.2a2.311,2.311,0,0,0-.39-.6l-.13-.42h0v-.11l.85-.28v-.1h.1c.91.13.32.68,1-.05-.3-.26-.75-.58-1.09-.88h-.07v-.08c-.89-.35-.45.08-1.36-.59.86-.61.58-.08,1.22-.54-.29-1.82-2.07-.7-2.35-.4l.22,1.06c-.76.69-1.46.45-1.8-.51s.31-.26-.45-.92a1.92,1.92,0,0,0,0,2.55h-.09a2.078,2.078,0,0,0-.16.69c-.32.18-.56.52-.93.71-.74.39-.61-.06-1.23.22,0,.3.32.63.59.91a2,2,0,0,1,.91-.21c.58,0,.37.05.82-.27v-.39l.06.17c.68-1.21.39-.54.47-1.58a4.6,4.6,0,0,1,1.75.79c.33-.59,0-1.22.94-.34-.51.68-.07.14-.77.55v.15c.13,1.08.28.18.07,1.18a4.213,4.213,0,0,1,.62.76c-.38.48-.23.77-.36,1.4-.54.1-.22,0-.68.07l.09.86a2.32,2.32,0,0,0-.91,1.51,6,6,0,0,0-.13,1.71c.78,0,.2.18.47-1.27l.06-.26a.687.687,0,0,1,0-.14Zm29.65-24c.29,1,.27.86,1,1.5v.82c.26-.43,0-.44,0-.82.06-1,.65.29,0-2.44l-.29.09v-.19c.11-.63,0-.49.59-1,1.23,1.12,0,1.13.12,2.7l1.73-1.25c-.87-1.23-.31-.36-.45-1.56-.08-.8-.74-1.44-1.23-2.28-1.45.62-1.26,1.81-1.64,3.15-.17.64-.26.37-.37.82a1.61,1.61,0,0,1-.25.33c-.41-.68.15-.73-.39-1.15-.09,0,0-.36-.31.12s.37,1.28.53,1.47l1-.33Zm-21.88,17.68a1.62,1.62,0,0,0,.69-2.21c-.26.42,0,.35-.48.36l-.37-.41c.54-.39.39-.14.84-.41l-.49-.36c-.83,1.11-.17.74-1.51,1,.11.37,1,2,1.32,2.05Zm-2.79,2c.81-.21.63-.82,1.63-.78.81,0,.83.6,1.53-.2-.57-.55-.59-.42-1.21-.32l-.44-.75a3.207,3.207,0,0,0-.29.52,4.246,4.246,0,0,1-.27.52c-.89-.12-.59-.31-1.34-.76-.12.41-.08,0-.1.45v.52c0,.39.1.68.46.8Zm24.07-13.88.48.36c-.15-.38-.3-.76,0-1.05l.8-.8c-.68-.62,0-.35-.72-.4a2.228,2.228,0,0,0-.58.14l-.54,1.06c-.35.57-.28.65.09,1.35.45-.39.29-.11.51-.66Zm-33.96,10.1c0-.23.64-.06-.33-.43-.81-.31.17.28-1.63-.65a.834.834,0,0,0-.41-.15c.58,2.66,2.07,1.65,2.37,1.23Zm-18.31,21.18.29-.61c-.63-.71-1.16-.63-2-.32l-.34-.77a3.419,3.419,0,0,0-.22,1.35l1.55.17h.11l.56.14Zm-6.34,7.88.91-.61c-.39-.73-.76-2.08-1.63-.3-.29.58.31.8.72.91Zm26.9-29.12-.48-1-.79.13.15,1.05a1.87,1.87,0,0,0,.45,1c.73-.37.62-.61.67-1.25Zm1,30a3.068,3.068,0,0,1,.42,1.26c.63-1.1.87-.55,1-1.56-1.23-.2.23.82-1.28-.27-.3-.21-1.16.17-1.4.3.43.47.83.33,1.29.27Zm8.16-22.88-.08-.66c-.62,0-.64.33-1.17.17s-.39-.62-1.12-.21C1316.85,2305.41,1317.92,2304.41,1319.15,2304.56Zm-32,21.84c-.81-1-.59-1.39-1.61-1.68a1.31,1.31,0,0,0,1.61,1.68Zm53.72-37.94h-.1c.02,0-.15.22-1-.24a.265.265,0,0,1-.1-.06l-.34-.15c-.47-.21-.12-.16-.58-.17-.3.5-.26.49,0,1a3.527,3.527,0,0,0,1.09-.11c.63,0,.66.41,1-.3Zm-29.84,37.33c.12-.35.23-.7.34-1l-.48-1a1.62,1.62,0,0,0-.58,1.17l.72.82Zm28.2-29.63-.51.21c-.79-1.2-1.11-.87-1.76-.31.55.44.76.37,1.54.44h.24c.76,0,.46-.3.49-.37Zm-19.18,26.1.08.18a3.064,3.064,0,0,0-.31-.28l.23.1Zm0,2.61v.6l.24.15-.64.37c.13-.66.11-.74.44-1.12Zm-26.25,1.59c.45-.58.26-.36.48-.43.29,2.13.83,1.2-.11,2.8-.16.28-.13.15-.17.6-1,.17-1.21.18-1.41.52-.28-.21-.33-.34-.74.1.35.21.47.27.54.33s-.11.23-.18.38l.77,1.27a2.239,2.239,0,0,0,.77-1,.6.6,0,0,0,.13-.09l-.06-.17a7.881,7.881,0,0,1,.18-1.12,6.237,6.237,0,0,1,1-.06l-.07-1.28.15-.11a1.343,1.343,0,0,0,.62.25c0,.48,0,.29.27.8a2.273,2.273,0,0,1,.39.92c.37.06.81.16,1,0-.15-.71-.42-.33-.56-1.21-.09-.52.09-1-.07-1.46l-.48.4-.53-.32a3.345,3.345,0,0,0,.52-1.11,6.019,6.019,0,0,1,.72.65c1,0,2-.34,2.09-1.51-1-.27,0-.14-1,.15s-1.52-.2-1.45-1.27l.93-.43c.05-.43-.16-2.64-1.69-1.82,0,.83.26.28.32,1.39-1-.39-.46-.27-1.25-.84-.59.22-.42.06-.82.59l.3.91c-.67.32-.3.07-1.16.19l.17.29c.5.6.43.11.31.76l-.75-.06-.75,1a3,3,0,0,1,1.53,0Zm1-.68.07-.05c-.11-.86-.26-.15,0-1,1.17.26.55.39.3,1a3.689,3.689,0,0,1,.63.3h0c-.65-.07-.82-.14-1-.28Zm2.82-4.73-.09-.25c-.47-.86-.61-.3-.68-.28.37.56.33.3.6.65s.14.34.41.7c-.56,1.95,1.39,1.94.65-.09-.19-.53-.24-.57-.89-.73Zm7.71,12.16c-.2-.81-.34-.56-1.22-.78l-.19-.53c-.71.2-.28,0-.55.33a2,2,0,0,0,.88,1.21s.11,0,.15-.06.11,0,.13,0h.41c.31,0,.17,0,.39-.09Zm20.72-14.28c.13.28.38.6,0,1.95.87.38,1,.08,1.37.47a.466.466,0,0,0,.08-.14c.5-1-.15-1.17-.86-2.36-.53,0-.53.12-.57.08Zm-.34,2.67a3.315,3.315,0,0,0-.08-.47,1.027,1.027,0,0,1,0-.31c-.19.25-.09,0,0-.26a1.35,1.35,0,0,1,0-.2,2.639,2.639,0,0,0-.24.32,1.321,1.321,0,0,0-.1.69,2,2,0,0,0,.46.23Zm17.7-30.64c-.33-.1-.19,1-.56-.57-.31-1.28.37.3-.67-2.59a1.258,1.258,0,0,1-.14-.65c3.6,1.27,2,3.41,1.37,3.81Zm-.41,3.44-1.26-.86.3-1.2,1.44.37a4.532,4.532,0,0,1,.66.27,3,3,0,0,1-.07-.94c1.79-1.24,2,1.06,1.89,1.8h-.93a2.538,2.538,0,0,0-.39,0c-.51.71-.85.56-1.64.54Zm3.74-13.87c-1-.94-.8-.66-.24-2-.81-.7-.41.07-.85-.88.23-.19.81-1.14,1.44.83a1.7,1.7,0,0,1-.35,2Zm4.33-7c-.84.23-.3.27-1.31-.35l-1.47,1,1-2h.87c.66.45.82.58.92,1.33Zm-7.31,31.35c-.31-.49-.69-1.24-1.07-1.81.56-.81.51-.83,1.26-1,.56.94,0,.22,0,1.3,0,1.41.89.58-.22,1.54Zm10-31.14-.69-1.27C1354.84,2271.47,1356.07,2272.781,1353.76,2273.74Zm-9.59,23.07v-.85a2.82,2.82,0,0,1,2.54.37c-1.87.92-.7.47-2.52.48Zm10.9-17.5c-.1-1.38-.13-.7-.53-1.74.81-.49.83-.43,1.69,0-1.41,2.13.21.85-1.16,1.71Zm-57,34c.51,0,.53.2.87.61l-.11.5a.823.823,0,0,0,0,.16c1,0,1.3-.28,1.68,1a1.11,1.11,0,0,1-1.82-.26s-.3-1-.3-1.07c-.15-.82.17-.1-.31-1Zm5-1.81c.75-.67,1.31-.31,1.6.4l.21,2c-.74-.23-.71-.47-.84-1-.2-.87-.29-.65-1-1.39Zm12.23-17,.24-.06c.91-.1.59.35.61.42-.65,0-.41-.11-.84-.14s-.34.08-.76.06c-1.12,1.64-2.27-.07-.31-.62C1314.73,2294.01,1314.8,2294.031,1315.3,2294.5Zm-32,21.82,1.2-.33.52.65-.68.53.84.34c-1.07.74-1.86-1-1.88-1.19Zm23.48-28.65,1,1.12c-.64.57-.11.36-.87.37-.53,0-.32.14-.81-.3l.7-1.19Zm-4.85,2.15c1.14,0,1.47.81.21,1.24C1301.48,2290.581,1301.44,2290.46,1301.93,2289.821Zm-15.24,25.15c.4.56.4.37-.19,1C1285.96,2315.4,1285.98,2315.24,1286.69,2314.97Zm2.68,7.44c-.11,1-.47,1.38-.49,2.19.76-.19.42-.31,1.08-.53.12-.51-.54-1.75,1.63-1.2.12.66,0,.85-.7,1l-.11,1.31c-.47.19-.45.21-.91.07a2.4,2.4,0,0,1-.45,1.16c-.34.32-.65.21-1.07.42a8.534,8.534,0,0,0,0-2l-.19-.2c-.39-.59.24-1.76.38-1.89.43-.38.51-.27.85-.33Zm.24,2.48c0,.69,0,.77-.61,1-.38-.32-.26-.11-.43-.69,0,0-.07-.4,1-.27Zm13.34-39.43c.59.11-.4.52.92-.12l.25.75a.476.476,0,0,0,.12.08,8.2,8.2,0,0,0,.36-2.62c.06,0,.21-.05.18,0h.52c.63-.17.2,0,.4-.38l-1-.26c-.12-1.19.26-.76.09-1.82-2.68-1.5-1.7,2.64-1.72,2.79-.14,1.09-.42.44-.13,1.62Zm7.68,35.26c-.92.88-.3.58-1.43.61,0,.94-.34,1.53.71,2.17,1.46-.14.9-1.21,2.28.46-.29.61-.82,1.72-.07,2.35a9.079,9.079,0,0,1-.08-1.18l.79-.66a3,3,0,0,1-.61-2.47l-1.59-1.28Zm-8.3,2.53a3.831,3.831,0,0,0,1,2.25c.74,1.16.91,1.69,2.12,1.49a4.727,4.727,0,0,0-.49-1.84l-.93.1h-.18a2.86,2.86,0,0,0,.07-2.62c-1.11,1.51-.12.08-1.54.62Zm50.3-48.52-2.08.86-.28,1a1.9,1.9,0,0,0,1.08.76c.75-.52.37-.45.72-.8.87-.89,2.4,0,.56-1.85Zm-12.16,22.6-1.37.85c.52,1.08,1,3.08,2.37.53.45-.82-.42-1.19-1-1.38Zm-25.61,23.05c-.33-1.11.06-.62-.34-1.53-.32,1.65.38-.47-.51,2.3h.17l.35.08h.33a1.811,1.811,0,0,0,1-.21,1.872,1.872,0,0,0,.08.4l.34.33c.08-.57.1.23,0-.79a3.489,3.489,0,0,0-.06-.72,3.658,3.658,0,0,0-.37-1.54c-.76.68-.64.74-1,1.58ZM1349.74,2280c-.6.73-.56,1.93-.92,2.9.81.26.85.39,1.7.06,0-.55.08-2.84-.78-3Zm-63.71,47.21.08,1c.91,0,1-.44,1.72-.17.93.31.54.93,1.63.37,0-2.27-1.63-.87-3.43-1.18Zm35.83-7.67c1.37,1.67.77,1.83.85,3.05.32-1.07,1.24-2.24,1.68-3.56a8.822,8.822,0,0,0-2.53.51Zm28.23-30.71c.55,2.73,1.61,2.18,1.6,1a3.8,3.8,0,0,1,.11-1.47l-1.71.51Zm-111,56.56h1.41l.39.7a3.885,3.885,0,0,1-2,.55h-.06l-.12-.77Z" transform="translate(-1777.856 2228.019) rotate(-16)" fill="#172038" fill-rule="evenodd"/>
    <path id="Path_38521" data-name="Path 38521" d="M1198.75,2391.35c5.76-8.43,31.09-30.77,40-38.21,26.94-22.54,55.89-39.55,81-51.84,32.54-15.92,58.63-23.94,65.58-25.8-7,3.71-33.85,12.46-64.93,28.3-26.16,13.34-55.42,31.56-80.19,52.42-8.39,7.06-30.91,26-41.47,41.07v-5.94Z" transform="translate(-1820.469 2240.238) rotate(-16)" fill="#172038"/>
  </g>
</svg>
