<svg xmlns="http://www.w3.org/2000/svg" width="209.033" height="159.884" viewBox="0 0 209.033 159.884">
  <g id="Group_2878" data-name="Group 2878" transform="translate(-1731.047 -2907.058)">
    <path id="Path_38437" data-name="Path 38437" d="M1194.59,2384.86c30.56,17.07,61.69,21.74,95.73,28.78-5.11-14.46-9.57-30.24-16.7-44.25-13.72-26.95-30.33-50.31-46.6-59.4-38.31-21.4-73.47-10.6-115.72-15-9.58-1-3.53,4,7,16.8,18.85,22.94,56.52,62,76.3,73.07Z" transform="translate(624.54 612.192)" fill="#172038" fill-rule="evenodd"/>
    <path id="Path_38438" data-name="Path 38438" d="M1315.54,2454.75c-9.79-21.93-44.71-95-128-122.38,65,23.41,96,67.17,121.53,122.38Z" transform="translate(624.54 612.192)" fill="#172038"/>
    <path id="Path_38439" data-name="Path 38439" d="M1168.07,2324.85h.25l-.22.11-.58-.33a1.789,1.789,0,0,1,.75-.42Zm46.51-20.77-.65-.26h0c.4.2.45.29.66.26Zm-8-2.79-.5-.16-.17.22.65.51a.861.861,0,0,0,0-.57Zm-18.65-3.92c-.75-.1-1.51-.18-2.27-.27-.17.32-.55.42-1.06.22v-.34l-1.61-.16h0a.3.3,0,0,0,0,.1v.05h0a2.308,2.308,0,0,0,0,.25c.58.15.25-.12,1,.08-.5.62-.29.25-.85.67,0,.44,0,.29.23.68h.68c.07.53,0,.22-.12.83l.23-.05c.52-.21.18-.27.59,0l-.21.5.54.73a2.343,2.343,0,0,1,.34-1c-.39-.58-.06,0-.23-.76a.5.5,0,0,1,0-.1c-.61-.11-.15.15-.69-.18.43-.74.38-.29.77,0a2.083,2.083,0,0,1,.44-.45,1.193,1.193,0,0,1,.19.31c.28.67-.17.69-.11,1.28.16.22.37.18.65.12l.35-.11c.3-.12,0,0,.28-.18-.49-.39-.54-.14-.84-.71a2.667,2.667,0,0,1,.28-.3,3.77,3.77,0,0,0,.28-.32l-.62-.12v-.27c.15-.1.31-.18.44-.25v-.1a5.55,5.55,0,0,0,1.54.28l-.1-.48Zm-12.93-1.09h-.68a4.433,4.433,0,0,0,.62.51,1.92,1.92,0,0,1,.06-.47Zm-16.74-.27h-1.12c.43.62-.29,1.25,1.92.82l.06.47c.93,0,.49-.32,1-.1l-.19.49c.88.1,1.47.41,1.95-.33a4.8,4.8,0,0,1-1.25-.26c-.53-.19-.46,0-1.1-.14-.33-.26-.19-.24-.41-.41-.47-.34-.44,0-.87-.55Zm-14.59.16h-1.7a3.069,3.069,0,0,0,.49.75h0a2,2,0,0,0,.44.39h0a.187.187,0,0,0,.09,0h0l.12.06h.83l.06-.05h-.4Zm-14.39-.08h-1.3v.08c.67.38,1.2.31,1.28,0Zm49.25,77.19.37.3h.21c.18-.47,0-.49-.37-.73a.67.67,0,0,0-.21.42Zm40.39-17.81h0Zm.63-.14c1.07-.22,2.14-.4,3.19-.55.19.25.38.5.59.75.78.9,2.37,1.7,1,2.64a2.849,2.849,0,0,1-.73-1c-.32.07-.07.1-.34,0-1.18.71-1.22.45-2.19,1.13a.43.43,0,0,1-.75,0,.71.71,0,0,1-.22-.47,1.39,1.39,0,0,1,0-.94,2,2,0,0,0-.29-1.46l-.28-.1Zm13.46-.81.52.05a2.523,2.523,0,0,1-.36.45C1232.87,2354.79,1232.9,2355.21,1233.01,2354.52Zm7,1.08h.19c-.22.66.3.64-.35.72v-.29s.07-.15.08-.19a1.265,1.265,0,0,0,.07-.28Zm1.35.33.66.17h-.17c-.27,0,0-.08-.48,0a.845.845,0,0,1,0-.21Zm1.86.51,1.15.35c-.24.11-.33.37-.4.74.21.4.71-.1.11.64a1.42,1.42,0,0,1-.62-.94C1243.25,2355.86,1243.46,2357.09,1243.22,2356.44Zm1.46.45.53.17a.94.94,0,0,1-.84.38l.31-.55Zm1.29.43.57.2a1.63,1.63,0,0,1-.73,0Zm1.55.57.43.17a.221.221,0,0,0,0,.08,1.384,1.384,0,0,1-.38-.25Zm3.53,1.49.28.12c.07.09.12.18.21.31-1.23.15-1.15-.06-1.36.16,0,0-.16.39-.18.41l-.56-.07c0,.56.16.23.19.8a1.848,1.848,0,0,1-.45.19,1.259,1.259,0,0,1-.38.14l.12-.43a3.577,3.577,0,0,0,.1-.38,3.556,3.556,0,0,1,.17-.8c1.53-.55,1.69.25,1.86-.45Zm2.65,1.3,1,.54a.407.407,0,0,0,0,.11c0,.24.07.21.13.46-.65.44-.51.13-1.18.17s-.56.28-1.17.11c.25-.53-.06-.11.66-.27.48-.54.18-.52.53-1.12Zm2.61,1.44c.31.17.6.35.88.52a1.371,1.371,0,0,1-.85.45c.61-.41.36-.23.09-.51-1.07,1.16-.37.63-.66,1.18l-.21.08c-.4-.29-.17-.28-.83-.19-.24-.17-.21-.2-.39-.39.21-.19.15-.05.42-.34-.41-.18-.15-.09-.61-.12.42-.57.56.28,1.29-.54.72.3.47.11.87-.14Zm-8.28,4.3-.61.17c-.07-.21,0-.33.12-.66C1247.95,2366.08,1247.99,2366.17,1248.03,2366.42Zm-73.2-2.54.84-.19c0,.74-.33,1.27-1.14,1.23l.3-1Zm-.89-12.26-.44-.38a.91.91,0,0,1-.06-.26c.87-.6,1.23.49.58.65Zm5.25-10.25.74.32-.2.15Zm2.42,1.12,1.25.65c-.43.4-.14.51-.92.65-.15-.22-.08-.23-.26-.41-.6-.59-.79-.13-.83.45a2.962,2.962,0,0,1-.08.83c-.49.23-.13.44-.89.43-1.39,0-.31.42-1.26,0,.24-.88,0-.63,0-1.09a4.531,4.531,0,0,0,1.75.05c.43-1.06,0-.33,1.19-1.6Zm16.69,15.27c.62,1,1.21,2.12,1.77,3.26-.06-.44-.12-.87-.17-1.29.48.2.75-.16,2,1.78-.64.2-1.15.35-1.51,0l-1.12.26a2,2,0,0,0-.2,1.47l1.93.44c1,.23.26-.17.74.49-.57.67-.71.39-.89.42-.34.06-.26.15-.15.51l-2.7.62-1.08.25s-.12-.09-.13-.05l-.67-.78a6.575,6.575,0,0,0-.08-1.21c.21-.41,0-.13.42-.36l.63-.35a2.33,2.33,0,0,0-.4-1.54c-.11,0-2.1.36-1.23-1.79.69-.12.46-.17,1,.15s.11.33.79.27a1.709,1.709,0,0,0,.16-1.09c-.24-.5-.43,0,.37-.92.29-.33.29-.25.45-.55Zm1.5.9c-.06-.51-.09-1-.12-1.5v-.08l1.68-.37a1.759,1.759,0,0,1,0,1.3,3.208,3.208,0,0,0-1.57.65Zm21.14-22.68a2.936,2.936,0,0,1-.12.39.724.724,0,0,0-.18-.28c-.54.11-.62.35-1.31.09l.36-.6c.66,0,.53-.11,1,.47.16-.06.16-.07.22-.07Zm-1.87,5.49-.15.4a.671.671,0,0,1,0-.07c-.1-.72,0-.24.17-.33Zm-.7,1.73-.13.31a1.291,1.291,0,0,1-.52,0c-.14.82-.13.73-.78,1.47l.07.91c-.23-.08-.22.45-.91-.92a7.58,7.58,0,0,1,1.54-2.27c.24-.5-.15-.21.23-.78.31.4.33.34.45.79v.49Zm-37.77,4.37-.93.07c-.44-.11-.46-.12-.21-.94-.4-.25-.17,0-.33-.39.2-.27.24-.45.66-.52.22.18.16-.09.1.38.44.06.37,0,.68.17-.45.7-.45,0-.76.55.87.3,0-.37,1.5-.31l-.55.67.62-.09-.09.59-.45.25-.24-.43Zm.44-2.52c.65-.22.59.22.88-.55,1.14.07.58-.61,1.3-.5-.29.33-.17.09-.32.49h.56a2.378,2.378,0,0,1,0,.54c-.57.41-.35.19-.44.83-1-.21.22-.34-1.57-.41,0,.38-.27.42.46.28-.36.33-.86.25-1.37.29.15-.23.28-.32.33-.42s-.11-.07.14-.5Zm-4.52-.64a1.789,1.789,0,0,1-1.45-.56c.46-.64,1.78-.53,1.56.51.45.15.23,0,.41.28-.62.19-.28-.08-.52-.23Zm-4,3.75c.17,0,.08,0,.58-.26h.63l-.35.74a2.257,2.257,0,0,1-1-.12h.22Zm-1.5-3.78h0a.582.582,0,0,1-.29.09h-.18l.46.24h0Zm47.07-10.21c-.4-.43-.72-.18-1-.72h0c-.26-.52.09-.7-.66-.9-.16.51-.07.49.21.85l-.33.5h.87c.23.59,0,.45,0,1.06.3,0,0,0,.32-.07l.33-.17c.23-.14.41-.26.36-.52Zm.67,1.33c.4-.43.37-.11.75-.78-.9-.59-1.36.36-1.16,1.31l-.62.55a1.441,1.441,0,0,0,1.13-.37A4,4,0,0,0,1218.76,2335.5Zm32.75,25.33c.42.59.23.52.17.94l.71.07.15-.77.72-.44A1.59,1.59,0,0,0,1251.51,2360.83Zm-33.26-20.76-.45.57.36.47.64-.4a1.3,1.3,0,0,0,.5-.58c-.5-.35-.62-.21-1-.06Zm1.37-7.84-.39.24c.23.38.43.32.52.69s-.27.42.25.76C1221,2333.43,1220,2333.05,1219.62,2332.23Zm30.31,30c-.66.7-.56,0-1,.63,1.62.17.93,0,1.5-.33.25-.14.14.05.43-.17-.53-.06-.13.17-1-.13Zm-4.95-2.76a.689.689,0,0,0-.67.41c-.17.38.11.48.45.69.28-.49.4-.68.22-1.1Zm-4.09-.83c-.52.57-.19.89.35,1.15C1241.47,2359.21,1241.58,2358.99,1240.89,2358.64Zm-24.18-23.11c-.07.26-.12.63-.2.94.43.25.4.27.81.23.1-.49,0-.09-.23-.56s.33-.39-.38-.61Zm32.48,28.77-.59,1.09C1249.07,2365.59,1249.94,2365.33,1249.19,2364.3Zm-8.41-7.13-.51-.08v.76l.84.11-.17-.45a.869.869,0,0,1-.12-.34Zm-22.38-18.3.15.37a1.511,1.511,0,0,0,1.16-.58C1218.64,2338.58,1219.29,2338.58,1218.4,2338.87Zm-4.66,4.27a1.871,1.871,0,0,1,.21.9l-.72-.06-.67-1c.08-.07.07-.17.11-.15l.57-.71a2.829,2.829,0,0,1,1-.91c.63,1,.5,1.41-.47,2Zm1.6.9c.79.5.56.95-.19,1.38a1.28,1.28,0,0,1-.14-1.17C1215.33,2343.61,1215.21,2344.07,1215.34,2344.04Zm-1.64,47.88c-.54-.59-.34-.94.31-1.32C1214.31,2391.23,1214.32,2391.6,1213.7,2391.92Zm-66.29-76.29.07.1a.582.582,0,0,1,.19-.22l.06-.06h.07l.36-.23a3.945,3.945,0,0,1,.47-.12,1.7,1.7,0,0,1,.08-.75l-.23-.31c0-.25.21-.1-.33-.4-.26-.15-.34-.13-.66-.33s-.69-.4-1-.63l-.14-.1h0l-.06-.05h0l-.18-.14h0a.9.9,0,0,0-.49-.18h-.06a.428.428,0,0,0-.22.1h0a.91.91,0,0,0-.27.28,2.091,2.091,0,0,0,.71.4h.05c0,.12-.05,0,0,.16-.47.77-.27.79-.74,1.44l-.07.06c.06.16.12.31.17.47a.675.675,0,0,0,.27.07,1.132,1.132,0,0,0,.68-.081,1.63,1.63,0,0,1,1.07.13l.12.27c-.17.43-.12.17,0,.54l.44.21a1.217,1.217,0,0,0,.27-.12v-.13Zm31.55,25.18.55.26a1.061,1.061,0,0,1,.45-.54c-.68-.51-.08,0-.26-.7l-.69-.24c-.12.59-.17.27.19.67Zm4.18,1.86.32.13a1,1,0,0,0,.33-.39c-.59-.19,0-.11-.65.26Zm4.39-6.69c-.06-.24-.14-.48-.21-.71a.9.9,0,0,0-.4.21A.879.879,0,0,0,1187.53,2335.98Zm-1.71-4.79c-.21-.44-.42-.89-.64-1.33,0,.19.08.11.05.42l-.5.28v.4c.6.41.6.33,1,.23Zm-4.72-6.89a1,1,0,0,0-.38.16,2.026,2.026,0,0,0,.21.24h-.08c-.12-.09-.35-.15-.89-.11l.58.65-.62-.07.11.59.46.23.22-.44h.94c.43-.12.46-.13.17-.94h.15c.18-.11,0,0,.16-.31l-.1-.13a3.157,3.157,0,0,0,.63-.4h-.6a2.606,2.606,0,0,0,0-.58c.26.09-.1.24.57-.06-.28-.87,0-.62-.11-1.08h-.11l-.9,1.53.13.27H1181Zm-.57-1.48-.1-.13v.09h.09Zm-1.08-1.25c-.27-.3-.54-.6-.82-.89a1.2,1.2,0,0,1-.63.18c-.63-.35-.09-.45-.67-.24.31.52.49.35.92.69s.18.54,1,.65c.13-.21.07-.23.22-.39Zm-1.48-1.57-.54-.54c-.1.25-.22.21-.48.41l.46.51Zm-2.07-2-.49-.44-.27.15a1.214,1.214,0,0,0,.38.16,2.093,2.093,0,0,0,.38.13Zm-2.74-17.24h0l-.41-.08.27,1.55c.47-.21.48-.15.42-.64a6.888,6.888,0,0,0-.17-.81h-.11Zm1.61-.46h0l.51.21c.18-.2-.21.05.16-.12l.3-.09a2.983,2.983,0,0,1,0-.32h0c-1.14.4-1.66-.11-1.49.91a.115.115,0,0,0,.11-.08c.02-.08.06-.06.1-.08a.849.849,0,0,1,.29-.16c.37-.1.17,0,.45.11l-.33.25Zm7.39,33.86c.36.08.08-.06.39.41,1.14-.95.52,0,1.22-.27l.41-.95a1.942,1.942,0,0,1-.79.25c-.1-.18-.15.15-.1-.44-1-.42-.65-.78.1-1.09-.07.6-.14.61.15,1,.74-.13.15-.2,1.07-.57.47-.19.41-.36.54-.44v-.09l.07.05a1.978,1.978,0,0,1,.44,0c.58,1-.44-.28.55.9a1.36,1.36,0,0,1,.31,1.06c-1-.1-.26-.09-.43-.51a1.24,1.24,0,0,0-.7-.26l.14.23-.25.12.48.12c-.87.82-1.3-.35-1.63,1l.69.07a1.868,1.868,0,0,1-.66.62.6.6,0,0,1-.22-.18c-.51-.5-.25-.15-.62-.44a7.815,7.815,0,0,0-.84.45c.07.37.08.09.06.47a1,1,0,0,1-.53.15c.07-.81.43-.81.12-1.6Zm1-6.31.37-.11c.46.27.59.39.75.73l-.3.3c-.88-.25-.68-.35-1-.52h-.15a2.092,2.092,0,0,0-.75.68h.46c1.31.44-.07.37,1.45.45l-.06.67c-.41-.1-.4-.2-.77-.37a8.486,8.486,0,0,0-.86-.33h-.59v-.05h0v-.3h0v-.08h0v-.11h0v-.05h0v-.07h0v-.06h0v-.07l-.12-.39c-.58.1-.77-.16-1.51-.18a1.68,1.68,0,0,1,1.46-.6,4.794,4.794,0,0,1,.88,1h.84Zm-.57,11.65c.78.45.18-.23,1.71-.92a3.984,3.984,0,0,1,.74.43,4.112,4.112,0,0,0,.37.19l.42.21a1.19,1.19,0,0,1-.38.17,1.521,1.521,0,0,1-.46.17c-.42-.41,0-.3-.49-.67l-.33.43-.44-.16c-.31,0-.1.08-1.06.81A1.27,1.27,0,0,1,1182.59,2339.5Zm.9,1.33c.17.69.25.51.61.77l-.43.53-.69-.43-.84.18a1.49,1.49,0,0,1,1.35-1Zm-6.18-11.8.19-.76c.57.09,1.57,0,.59,1-.31.33-.61,0-.78-.26Zm-6.14,6.41a6.4,6.4,0,0,0,.68-.4c.24.33.31.33.28.77a3.554,3.554,0,0,1-1,.24h.04Zm4.22-3.95a1.842,1.842,0,0,1,.91-.08,1.2,1.2,0,0,0,.07.27l.13.42c-.32.18-1.43.4-1.11-.61Zm1-5.24c.9.29,1.08.06,1.52.68a.94.94,0,0,1-1.52-.68Zm-8.52-.11c.08.24-.09,0,.08.51s.07.4-.12.85c-1.52-.27-.22-.07-1.19.08.75-.47.71-1.09,1.23-1.44Zm-7.51-24.72.08-.64.7.05c.22.25.4.36.42.63-.45.12-.85.34-1.2,0Zm12.4,33.09c.93.24.51-.38,1.42,0a1.52,1.52,0,0,1-1,.83.062.062,0,0,1-.06-.07v-.07l-.35-.69Zm2,.25h.92a1.685,1.685,0,0,0-.68.26v-.86Zm10.86,5.94c.82,0,.51-.28.85-.28a2.469,2.469,0,0,0,0-.87l.56-.11a2.608,2.608,0,0,1-.06,1.48l.62,1.82h-.83a1.55,1.55,0,0,1-.37-1,2.142,2.142,0,0,1,0-.52c-.49.56-.34.18-.88.31-.29.07-.06.13-.43.17.33-.39.22,0,.56-.73Zm-12.06-4.72c.42-.07.7.07.75.44h-.08a1.641,1.641,0,0,1-1,.06c.12-.4.06-.37.34-.65Zm9.44,0c.29-.39,1.15-.47.84.59-.44-.12-.15.06-.5-.25-.17-.15,0,0-.17-.2l-.17-.14Zm-2-1.87c.4-.15.52-.24.8-.1,0,0,.34-.08,0,.34a.43.43,0,0,1-.76-.24Zm-38.42-36.4c-.5-1.35-2-.47-.49.87.27.25.4.34.65.33h.55l.21.18c.84.55.75,0,.79-.06-.61-.34-.45-.12-.87-.31s-.29-.24-.72-.44a.19.19,0,0,0,0-.08h0v-.07h0a.238.238,0,0,1,0-.08h0v-.06h0Zm-10.87,2.79,1.48-.49c-.34-.83.08-.38-.66-.76-.51-.28-.24-.29-.94-.15Zm48.45,22.67c-.66-.19-.58.25-.9-.51-1.14.12-.61-.58-1.33-.45.31.32.19.09.35.48h-.56a1.616,1.616,0,0,0,0,.54c.59.39.36.18.47.81,1-.24-.23-.33,1.55-.47,0,.38.3.4-.44.3.38.32.88.21,1.38.24-.15-.23-.3-.31-.35-.42s.1-.07-.16-.49Zm-4.82-4.15c-1,.07-.35-.4-1.16-.19,1,1.19.66.61,1.31.75.3.06.07.13.45.15C1175.59,2319.35,1175.71,2319.73,1175.34,2319.02Zm10.93,16.39c-.06-.64,0-.67-.53-.66-.24.65.39.42-.4,1.07,0,0,.08.37.76-.24A.916.916,0,0,0,1186.27,2335.41Zm-13-15.39-1.24.4C1172.21,2320.87,1173.03,2321.25,1173.27,2320.02Zm-21-6.11-1-.19-.36.52-.79-.37c.21-.73.09-.34.56-.87-.63-.26-.58-.29-1.33,1l.19.15c.4.12-.35-.35,1.14.43v.63c.71.21.5.43,1.1.11v-.09l-.42-.69c-.32-.36.21.46-.12-.09-.15-.28,0,0-.06-.31,1.49.6.39.18,1.25.31.21-.68.28-.16.62-.8-.56-.23-.48,0-.77.25Zm3.53,4.36a1.569,1.569,0,0,0-.66-.09l.07.46.77.38c0-.05.12-.05.11-.08l.49-.39a2.65,2.65,0,0,0,.43-.37h-.83l-.08.13Zm6.56,3.59h-.93l-.77,1a1.281,1.281,0,0,1,.24.11c.47.14.17.05.34.06.29-.24.23-.15.31-.55h.81Zm61.65-9.26a1.485,1.485,0,0,1,0,.3,1.143,1.143,0,0,0-.25-.06c-.56.68-.11.67-.39,1.38-.28-.28-.2-.36-.65-.6-.37.1-.19.07-.45.21-.53.28-.07.17-.62.08.12-.14.37-.48.48-.59s.17-.05.34-.26c.29-.4-.07-.37.47-.79l-.29-.41a1.519,1.519,0,0,1,1.28-.13h-.41l-.15.14c.17.36.34.38.66.5Zm-.06,2.09c0,.32-.05.64-.08.95l-.18-.12a1,1,0,0,1,.26-.83ZM1202,2331.81l-.36-1.44c.18-.09.13.24.49-.34,0,.49,0,.34.23.5.1-.51.37-.6.42-1.23h.78c.69.42.07.21.9.31-.55.46-.79,0-1.5.8-1,1.1-.82,1-1,1.41Zm-1.45-7a7.412,7.412,0,0,0-.13-.93l.09-.12a1.918,1.918,0,0,1,.25.44h.12l.08-.05.62.29-.57.61c.18.31.08.34.45.5a1.22,1.22,0,0,0,.41-.8h1.05l-.25.49h.09c.38-.08.22-.16.54-.15-.43.82-.92,1.46,0,1.56l.14-.13.13-.15a1.675,1.675,0,0,1,.27-.25,2.707,2.707,0,0,1,.51-.38c.52.31-.13.68-.35.85s-.41.75-.66,1.09l-.7-.09.08-.77a2.134,2.134,0,0,0-.46-.1h-.09a2.359,2.359,0,0,1-.19.39h.13a.665.665,0,0,1,.2.19.306.306,0,0,1,0,.07l-.34.27.18.39a1.534,1.534,0,0,1-.51.39h-.32a1.213,1.213,0,0,1-.24,0l.2-.14h.35l-.32-.4.2-.24-.41-.54a4.177,4.177,0,0,1,.41-.74,1.8,1.8,0,0,1-.39,0c-.1-.35-.22-.51-.36-.58h0a.412.412,0,0,0,0,.09.73.73,0,0,1-.26-.24h-.16l.3-.9Zm-.17-1.19c0-.24-.06-.47-.08-.71a1.654,1.654,0,0,0,.32-.28l-.07.41c.41,0,.22,0,.55.1h-.1a.57.57,0,0,1-.66.29Zm-.38-4.54v-3.41c-.43,1.09-.88,2.19-1.32,3.31a7.088,7.088,0,0,0-.05-.93c-.09-.58-.23-1.05-.33-1.68a9.333,9.333,0,0,0-.28-1l-.07-.29.44-1.06a2.453,2.453,0,0,0,.81-.6,4.748,4.748,0,0,0,.62.35l.29.06.34.07h.25c.61,0,.2-.18.9.11l.21.64c-.36.45,0,.24-.69.51l-.17.38a2.151,2.151,0,0,0,.94,1.21,1.583,1.583,0,0,1,.77.6l.12.18h.08a.129.129,0,0,1,0,.06h-.24a.805.805,0,0,1-.21,0c-1.18.19-1,.4-2.33.71Zm-5.54-16.08c-.33-.14-.54-.48-.71-1.07a3.329,3.329,0,0,1,1.37,0l1,.1h.19l.33,1.15-.44.54h-.2c.1.23-.1.45-.47.28a2.756,2.756,0,0,1-.82-.57s0-.05-.12-.1l.07-.13h-.18Zm-2.08,3.09h0l-.24-.28a1.429,1.429,0,0,1-.3-.84c.7.12.21.2.76.37h1.5a3.253,3.253,0,0,1,.46.1l-.1-.41-.12-.46c0-.51.36-.86,1.06-.6h-.25a.8.8,0,0,0-.06.58c0,.23.06.37,0,.52a3.688,3.688,0,0,1,.39.14c.59,1.4.19,1,.09,1.25l-.65-.68c-.93-.06-.95,0-1.49-.36h-.19a1.473,1.473,0,0,1-.44.42h-.34Zm-2.51,2.55-.42.28a.32.32,0,0,0-.25.17l-.87.56a6.551,6.551,0,0,0-1.33.53c0,.24-.07.14.06.25h0l-.46-.25a4.4,4.4,0,0,0-.82.05c.47-.75.44.08.91-.68a4.342,4.342,0,0,0-1.49.41l-.26.55s-.09.05-.1,0,0,.17-.3-.13l-.09-.28a1.475,1.475,0,0,1-.41-.11l.11-.43a.4.4,0,0,1,.07-.28,1.877,1.877,0,0,1,.79,0c.1-.08.22-.09.43,0,.49.16.06.41.88.12-.12-.55-.26-.17-.39-.81.43.3.37.27.92.2l.15.36c.29.1,1,.79,1.14.41l.21-.18c.56-.62.64-.22.58-.79a2.439,2.439,0,0,0,.95,0Zm-5,3-.72.38-.42-.28c.27-.55.22-.22.06-.75.45-.13.67-.38,1.12,0a1.43,1.43,0,0,1,0,.64Zm-14.55-7.53a4.561,4.561,0,0,1,.58.16,2.172,2.172,0,0,0,.15.31c.54-.09.93.11,1.63,0l.3.38c-.67.23-.39-.18-1.09.24-.91-.22-.86-.06-1.17.34l-.3-.24h0Zm13.69,0c-.24-.54-.21-.31-.63-.58,1.53-.36,1,.2,1.69-.54.1-.12,0-.08.25-.17-.1-.73-.12-.58.35-1l.7.17c-.26.64-.5.53-.95.82,0,.38.06.14.11.47l-.6.15a1.58,1.58,0,0,1-.79,1,2.583,2.583,0,0,1-.42.24.94.94,0,0,1-1.34.23c.41-.63.6-.4,1.49-.73v.08h.14Zm-17.78,9.24c.13.25.18-.26.07.44h.45a3.8,3.8,0,0,1-1.16.55v.09l.07.24c0,.32,0,.09-.12.24l-.26-.42c-.58.12-.33.23-.83.31-1.1-1,1-1.17,1-1.2.49-.23.15-.26.74-.3Zm17.45-5.81a1.862,1.862,0,0,1,1.18.1c.65.18.92.18,1,.77a2.46,2.46,0,0,1-.92,0l-.1-.45v-.08a1.35,1.35,0,0,1-1.21.41c.54-.72,0-.06.07-.79Zm2.58-6.44c-.62,0-.34.18-1.13,0,.16-1,1.22-.68,1.81.11h.86a1.379,1.379,0,0,1-1.06.5c-.29-.24-.24-.28-.48-.55Zm-19.63,10.72h.54a3.49,3.49,0,0,1,.49-.16h-.36c-.31-.27-.23-.05-.28-.37Zm24.05-6.4c.16,0-.12-.45.37.12s-.24,0,.83.93c.14.12.11.09.15.15h-.07c-1.79.19-1.5-1-1.28-1.3Zm-.53-1.52.76.08.11.57-.74.15a1.381,1.381,0,0,1-.8-.05C1189.56,2304.07,1189.74,2304.08,1190.15,2303.9Zm-7-4.45.46-.11c.13.43-.06.51.18.83s.51.11.41.69C1183.15,2301.2,1183.56,2300.24,1183.15,2299.45Zm-12.23,10.59.6-.47h.26l-.13-.14.6-.52.31.39a.69.69,0,0,0-.16.32l-.22.43-.08-.1a1.212,1.212,0,0,1-.45.35l-.73-.29Zm16.77-10.34c.25.14.57.37.86.52-.09.46-.06.46-.36.7-.46-.26-.05-.09-.28-.53S1187.37,2300.39,1187.69,2299.7Zm1.44,3.46.18.35a1.54,1.54,0,0,1-1.25.39C1188.74,2303.12,1188.29,2303.56,1189.13,2303.16Zm-17.65-.56c.25.25.22.3.17.58h-.88a1.075,1.075,0,0,1-.37.11c0-.55,0-.46-.2-.67h-.08a3.828,3.828,0,0,1-1.38.38c0-.37-.35,0,.25-.47h1a1.313,1.313,0,0,0,.46-.09,3.762,3.762,0,0,1,.14-.77l.82-.16c.39.24.47.36.52,1l-1.25.36a2.334,2.334,0,0,0,0,.48c.2-.34.21-.44.65-.43Zm7.07,9.65c-.35.09-.08-.06-.36.42-1.18-.9-.52,0-1.23-.22l-.45-.94a1.942,1.942,0,0,0,.79.23c.09-.19.16.14.08-.45,1-.46.62-.8-.14-1.08.09.59.16.6-.11,1-.74-.1-.17-.19-1.09-.52-.77-.28-.19-.55-1.11-.44-.52,1,.43-.29-.51.92a1.381,1.381,0,0,0-.26,1.07c1-.13.26-.1.4-.53.47-.31.79-.43,1.18-.05l-.83.25c.9.79,1.28-.4,1.67.89l-.69.1a2,2,0,0,0,.69.6.572.572,0,0,0,.21-.19c.49-.52.25-.16.6-.47a7.464,7.464,0,0,1,.86.42c0,.37-.08.09,0,.47a.94.94,0,0,0,.53.13c-.11-.81-.46-.79-.2-1.59Zm-4.61-14.1c.37.08.22,0,.54.25,1.36-.58.51.12,1.47.05-.21-.31-.08-.17-.41-.37.12-.48.12-.07.07-.5-.34-.24-.17-.15-.53-.25-.44.26-.2,0-.31.4-.64.18-.79.46-1.22.1s-.34-.57-1.1-.38c-.06.14-.07.08-.1.28-.09.62.2.31-.5.81-.49.36-.53.55-1.27.61a1.423,1.423,0,0,0,.42.36l.81-.18a2,2,0,0,0,1.93.36c0-.6-.11-1.13.2-1.54Zm5,7.78c.58.08.76-.18,1.5-.24a1.67,1.67,0,0,0-1.48-.53,4.556,4.556,0,0,0-.84,1,6.986,6.986,0,0,1-1.22-.26,1.447,1.447,0,0,0-.72.76l.32.28c1-.31.61-.39,1.16-.63a2.063,2.063,0,0,1,.78.65c-2,.69-.22.52-1.89.67l.1.67c.4-.12.38-.22.75-.4,1.94-.94,1.18,0,1.44-1.56l.1-.4Zm-3.12,3.18v-.4l-.5-.26c-.06-.38,0-.17,0-.6-1-.07-.06,0-.81.35l-.74-1.45c-.8.72.08.63-.9,1.13l-.19.09c-.21.12-.12.07-.23.19.61.44,0-.08,1.17-.42a2.343,2.343,0,0,1,.83.6l-.58.2c0,.5.1.11-.16.46.39.23.14.15.35.31s.07,0,.46,0c.68.09.57.26,1.24-.24Zm34.41,18.89a2.746,2.746,0,0,1,.89-.45l-.07-.55c-.29,0-1-.08-1.16-.08a5.235,5.235,0,0,0,.1,1.66c.28.35.2.2.63.15l-.39-.73Zm-34.4-22.13c-1.11.43-.78.13-1.64.18a1.41,1.41,0,0,0,.72,1,1.251,1.251,0,0,0,.71-.38c.48-.42.4-.17.21-.85Zm.63-4.73c-.31,0-.28.08-.48.09-.39,0-.47-.24-1,.08l-.48.12-.18.51.72-.29a1.71,1.71,0,0,1,.37.42l1-.19c-.09-.42,0-.38,0-.74Zm-4.5-.6c.08-.37.06-.27-.47-.65s-1.29-.36-.85.61c.27.59.28.16.69.17s.2.22.63-.13Zm7.23.39-.36-.33c-.62.27-.68.65-.65,1.25l-.59.07a2.313,2.313,0,0,0,.87.44l.45-1v-.06l.23-.35Zm4,6-.23-.75c-.58.11-1.57.06-.55,1,.33.32.61,0,.78-.29Zm9.25-3.26c-.07.25.1,0,0,.51s0,.41.15.84l.73-.15h.1c-.39-.39-.48-.84-.9-1.09Zm-19.43-6.7.39.17a.727.727,0,0,0,.23-.18.857.857,0,0,1,.17-.19.663.663,0,0,1,.32.13c.44.5-.48-.32,0,.23.13.15.4,0,.27-.38-.28-.76-1.16-.08-1.4.22Zm.89,16.75a.739.739,0,0,0-.8-.15c-.4.16-.27.41-.18.79.57-.17.79-.23,1-.64Zm31.83,9.14-.86.21a.941.941,0,0,0-.23.65c.57-.23,1.46-.15,1.09-.86Zm-34.15-12.41c-.42,0-.62.18-.68.39h0a1.192,1.192,0,0,0,.05.14c.59-.26.84-.35.6-1Zm6.2,3.63c-.31-.39-1.17-.43-.82.61.45-.14.15.06.5-.27.16-.16-.06,0,.16-.2l.16-.14Zm1.94-2c-.4-.13-.54-.22-.8-.07,0,0-.34-.07,0,.34.14.14.68.32.75-.27Zm26.35,20.72c-1-.55-.06-.34-.89-1.3.45-.39.51-.11.69-.71l-.28-.47c.09-.06,1.5-1.71,1.67-1.94l-.6-.45c-.58.51-.41.6-1.09.58-.4.73-.83.5-.26,1.67-.53.65-.55.47-.37,1.28.11.46.18.31.51,1l.55,1.07c.18-.35.07-.46.39-.73s.36-.15.62-.49c-.58-.2-.33.17-.94.46Zm-13.45-31-.63-.16-.19-.82.3-.26c-1-.21-1.31.28-1.6-.09s.74-.34-.94-1.32c-.38-.23-.26-.21-.55.06a3.221,3.221,0,0,0,.89,1c.49.45.14.5.42,1-.62,1.25-.18.47-.86,1,.66.1.82.14,1.15,0-.18-.35-.12-.17-.06-.48l1.25-.15c-.3.34-.35.26-.68.45.06.12,0,.06.13.21a.959.959,0,0,0,.15.15l.49-.67c.79.44.24.24.64.61a2.763,2.763,0,0,0,.09-.52Zm24.73,8.27c-.25.78,0,.29-.6,1.15l.13.07h.68l-.51.28v.05l.36.79c.38-1,.36-.67.44-.83h.1v-.06h.14l-.84-.53Zm.65.35a4,4,0,0,0-.65-.35Zm-2.18,22.41a1.22,1.22,0,0,0-1.68.2c.37.05.25-.06.41.2l-.15.35c-.43-.22-.21-.21-.55-.4l-.06.41c1,.2.53-.11,1.16.66.21-.17,1-1.17.87-1.42Zm-2.11-8.78.54-.91c-.38-.39-.41-.59-1-.51l.43.49c-.52,1.67.1,1.07-.56,1.85-.37.44-.23.2-.21.46.49-.19.34-.41.82-.55s.64.2.89-.5l-.88-.33Zm-58.3-8.88a1.327,1.327,0,0,0,0,.4c-.6.12-.53.11-1,.55h-.67c.07.14-.32.16.7.54a5.64,5.64,0,0,0,1.59-1.06c.36-.18.16.08.56-.18a1.16,1.16,0,0,0-.59-.26,2.309,2.309,0,0,0-.26,0,1.336,1.336,0,0,0-.32,0Zm33.28-17.28c-.51,0-.31.21-.94.12-.38,0-.66-.27-1-.27l.38.92c.4.11.23.09.66,0a1.718,1.718,0,0,1,.71-.07c.12-.24.28-.51.2-.7Zm23.19,6.13c-.53.75-.33.62-.94.77v.33l.56-.11a.89.89,0,0,1,.12.88l.79-1.3c-.21-.39-.15-.38-.53-.57Zm-3.76,23a1.27,1.27,0,0,0-1.32.51c.52.07.41.08.84-.14.19.41,0,.39,0,.73v.31c.44,0,.31,0,.67-.23a2.875,2.875,0,0,0-.1-.53c-.1-.44,0-.25,0-.65Zm2.82-24.21-.95.05-.22.52.62.19-.53.4C1210.859,2304.209,1210.959,2302.919,1210.939,2302.81Zm-1.89,21.8-.82.84c.6-.14.18-.25.83-.1l-.55.4c.51.11.06,0,.52,0h.56c-.11-.56-.15-.33-.26-.62s.23-.08-.28-.56Zm-2.32-10.27c.4.13.44,0,.9-.18.08-.64-.11-.31.36-.81-.52-.24-.38,0-.75.3S1206.769,2313.71,1206.729,2314.34Zm.43,7.57.31.26c-.5.85-.17,1,.41,1.2.1-.48,0-.59-.25-1.09l-.06-.16C1207.289,2321.64,1207.209,2321.91,1207.159,2321.91Zm-52-4.79c-.39-.49-.71-.32-1,.17a1,1,0,0,0,.86,0c.44-.23.11-.13.13-.21Zm52.39,12.69c0,.42,0,.39.23.67l.77-.58-1-.09Zm-1.9-27.79h-.3a.335.335,0,0,0-.15,0h.151l.11-.11a.7.7,0,0,0,.17-.54Zm2.43,33.51-1.43,1.13s-.2-.31-.2-.32c-.26-.64-.09-.23-.13-.45.35-.42.21-.34.84-.48.24-.52.06-.64.46-1.22a2.619,2.619,0,0,1,.46,1.34Zm.26-32.36.2.09c.2-.4.2-.53-.13-.57h-.179Zm62.34,62.07-.09.1c-.54.19-.43-.13-1-.42.23-.23.59-.65.74-.77.07.17.09-.07,0,.32-.06.88,0,.24.34.77Zm-1.1,1.09-.37.36a1.014,1.014,0,0,1-.09-.15c.25-.24.32-.29.46-.21Zm-10.33-3.45a3.932,3.932,0,0,0-.05-.77c.45.23.42.3.23.61l-.18.16ZM1259,2359v-1.71a1.077,1.077,0,0,1,.59-.09,1.6,1.6,0,0,1-.56,1.37c-.06.24.29.23,0,.43Zm-41.08-48.36h0l-.17-.16Zm50,55.31-1.16-.32.28-.53h-.49c.41.81.34.47.12,1.37l1,.08.24-.65Zm-2.94-7.75c-.61.38-.09.25-.9.44l-.39.46.82.27c.33-.31.91-.83.47-1.17Zm-42.91-48.06L1221,2310c.21.64.1-.46.38.95l.49.28c-.12-.4.1-.74.22-1.18Zm41.8,44.59c.64.31,1,0,1.45-.39-.51-.2-.06,0-.42-.05a5.544,5.544,0,0,1-.55-.13c-.36-.07-.53.15-.48.57Zm2.37,6.26c-1.07.18-.47,1.18.1.84C1266.55,2361.61,1266.53,2361.3,1266.24,2360.99Zm-3.55-6.75-.13.47c.28.08.24.36,1-.47a1.049,1.049,0,0,0-.82,0Zm-73.84-17,.46-1.14a3.431,3.431,0,0,1,1,.34c.64-.44.41-.39,1-.29h.18l.11.64c-.64.14-.16,0-.77,0-.08.16-.14.29-.22.43-.94.22-1.07-.06-1.57,0h-.14Zm8.11-13.86-.58,1.44a2.1,2.1,0,0,1-.2-.23l-.54-.54C1196.89,2323.05,1196.71,2323.37,1196.96,2323.38Zm-9.24,18.27.74.21.5.14a.74.74,0,0,1-.46.44h-.5Zm-4.09,9.22c-.32.25-.54.28-.33.74C1184,2351.61,1183.96,2351.22,1183.63,2350.87Zm2-27.25c.06-.09.11-.18.16-.27v-.13l-.48-.1c-.54-.3-.62,0-1,0-.2,0-.16-.08-.47-.07a1.47,1.47,0,0,1,.06.74l1,.15a1.848,1.848,0,0,1,.36-.44l.42.16Zm1.25-2.11c.3-.51.62-1,.93-1.54-.16-.11,0-.1-.13-.53,0-.2,0-.14-.12-.28-.76-.16-.64,0-1.07.42s-.57.11-1.23,0c-.12-.44.13-.14-.33-.38-.35.11-.18,0-.52.27,0,.43,0,0,.1.49-.32.22-.19.07-.38.39,1,0,.07-.63,1.46-.11.3-.28.17-.18.52-.26.33.39.2.92.28,1.52l.49.06Zm4.15-6.8.26-.43c-.43,0-.23-.1-.55.15a.752.752,0,0,0,.29.28Zm2.4-3.82.34-.54a1.465,1.465,0,0,0-.6.09,1.1,1.1,0,0,0,.26.45Zm-5.57,2.29c-.1.17-.22.34-.32.51s0,.11,0,.18c.49,0,.51,0,.78-.35-.3-.27-.3-.16-.43-.34Zm-.51.81c-.11.18-.23.36-.33.54a3.2,3.2,0,0,0,.53-.07c-.06-.16-.09-.26-.11-.33h0a.3.3,0,0,0-.07-.1Zm-.74,1.17-.17.27a1,1,0,0,0,.53.41c.25-.42.21-.38.58-.57l-.15.63c.52-.06.75-.4.94-.9-1.71.16-.56-.47-1.73.16Zm-.6,1c-.12.18-.24.37-.35.56l.6-.24a.759.759,0,0,0-.25-.32Zm-.77,1.24-.33.53a4.111,4.111,0,0,1,.12.58c.54-.39.94-1,1.4-1.29-.5.12-.56.36-1.19.18Zm-.78,4.72a2.47,2.47,0,0,1,0-1c1,.31,1.56-.08,1.56.58h0v.05a1.383,1.383,0,0,1,0,.18s-.08,0-.1-.06a1.89,1.89,0,0,1-1.27.45c-.25.15.11.41-.52.25.18-.33,0-.14.41-.3a.756.756,0,0,1,0-.21Zm7.36-10.8v.06c.52.11.18-.12.57.18-.07.13-.14.65-.83,0l-.09-.09a1.14,1.14,0,0,1-.51.05c-.59-.09-.1-.25-.79,0l-.37-1c.76.13.6.73,1.28.3-.15-.34-.1-.28-.39-.4l-.52-.23.28-.49c.37.16.13.14.46.33.58.35,1.17.42,1.27,1.17a2.491,2.491,0,0,0-.36.12Zm-4.79,7.41-.39.19a.551.551,0,0,1-.22-.17,1.179,1.179,0,0,0-.19-.19.69.69,0,0,0-.31.15c-.41.52.46-.34,0,.23-.13.16-.41,0-.3-.37.25-.77,1.16-.12,1.41.16Zm2.41-3.76.57.38C1189.39,2316.129,1188.57,2315.859,1189.44,2314.969Zm6.21-11.92a2.9,2.9,0,0,0,.25.42,1.272,1.272,0,0,0-.7-.2l-.07-.12a2.942,2.942,0,0,0,.52-.1Zm-.39,1.7c-.16.88.35,1,1.21.82a1.41,1.41,0,0,0-.83-.9,2.19,2.19,0,0,0-.35-.09h0s.06.09,0,.12Zm-5.14,8.9c-.26-.38-.83-.52-1.25-.81-.22.35-.29.35-.24.79a2.989,2.989,0,0,0,.42.12,1.2,1.2,0,0,0-.8.9c.6.28.79.24,1.45-.31l-.2-.51C1189.79,2313.829,1190.05,2313.829,1190.12,2313.649Zm-12.38,18.8c-.36.43-.39.56-.17.93.48-.15.5-.31.75-.78Zm13.15,16.33.52-1.11c.48,0,.37.24.75.65s.48.3.57.6c-.49,0-.24-.45-.9.28a1.909,1.909,0,0,1-.94-.42Zm10.67-25.45v.07s.19,0,.18.67v.34c0,.36-.07.12.09.42.43,0,.41,0,.66-.33-.23-.48-.28-.39-.45-.65s0-.54-.53-.52Zm3.06-10.62-.68.73a1.26,1.26,0,0,0,1.28-.43ZM1220,2350l.46-.41.58.93c1.13-.36.53-.16,1.31-.84.46.83.51.76-1.46,1.91a3.128,3.128,0,0,1-.26-.26c-.21-.51.52.39-.63-1.33Zm23.38-19.15c.07,0,.13-.1.2-.15l.07.25c-.23,0,0,.15-.26-.08h0Zm-13.68,13.79-.39.33h-.12l-.23-.35c-1.33.49-.18.59-1.06.52l.28-.58c-.87-.11-.47-.05-.55-.32.51.09.37.29.82.15l.67-.28c.42.36.05,0,.3.43l.28.07Zm-3.76,3.23-.68.59-.83-.65.9.18c.38-.43.11-.32.57-.36a.857.857,0,0,1,0,.24Zm-5.37,4.78-2.4,2.2h0c.25-.68.14-.23.55-.69a.334.334,0,0,1,.08-.09.518.518,0,0,1,.06-.1l.32-.51a6.445,6.445,0,0,0,.16-.66,3.191,3.191,0,0,0,1.16-.17h.08Zm9.35-9.85c.38-.38.27-.11.57-.47-.8.22.3.06-1.13.28v.25l.06.14a1,1,0,0,0,.36.39,1.307,1.307,0,0,0-.15.12l-.06.22c.27-.09-.07.09.35-.16l.29-.19a1.58,1.58,0,0,0,.58-.48,1.749,1.749,0,0,0-.95-.1Zm-3.12,1.71c.21.6.07.32.07.82.48.08.48.05.81-.29C1226.61,2344.36,1227.68,2344.65,1226.8,2344.51ZM1170.07,2332l.31.49-.51.24c-.29.14-.23.08-.37.42.7.4.51-.19,1.27-.35l-.33,1c-.69-.23-.21-.09-.79,0a3.083,3.083,0,0,1-1.23-.24c.06-.75.65-.84,1.21-1.21.32-.2.09-.18.44-.36Zm-1.52,6,.1-1.09.43-.28a.89.89,0,0,1,.51.39c-.13.42-.15.24-.26.45a1.27,1.27,0,0,0-.07.69h-.66Zm1.2-27.44a2.127,2.127,0,0,0-1,0c.59-.69.15-.72.81-1,.43.78-.61.05.49.8.22.14.17.82.16,1-.43-.17-.43-.48-.51-.8Zm.37,34.54h-1.19c.2-.48,0-.07.23-.32s.09-.17.28-.46h.76Zm.38-17.91h0a.715.715,0,0,0,0-.12h0l-.06-.82c-1.18-.17-.85.09-1.32.63-.23.27-.46.32-.54.63.5,0,.23-.47.92.24a2.046,2.046,0,0,0,.59-.23l.21.15a1.521,1.521,0,0,0,.19-.44Zm-.69-27.31-1.35.41c.33.35.47.32,1,.21a.941.941,0,0,0,.3-.62Zm-2.66-1.39.4-.22c-.34-.36-.39-.32-1-.18l.53.87c.14-.14.09-.26.07-.47Zm3.65,21.66c-.46.18-.52.23-.67.61.32.23.08.18.57.17.23-.29.31-.34.1-.78Zm-2,5.72a1.221,1.221,0,0,0,1.58,0A1.59,1.59,0,0,0,1168.8,2325.87Z" transform="translate(624.54 612.192)" fill="#99b8ae" fill-rule="evenodd"/>
  </g>
</svg>
