<svg xmlns="http://www.w3.org/2000/svg" width="45.502" height="40.777" viewBox="0 0 45.502 40.777">
  <g id="listening" transform="translate(-1.597 -6.116)">
    <g id="Group_2692" data-name="Group 2692" transform="translate(-0.403 -6.223)">
      <path id="Path_38464" data-name="Path 38464" d="M42.145,32.614v-.881A19.416,19.416,0,0,0,22.751,12.339a19.347,19.347,0,0,0-14.2,6.2.666.666,0,1,0,.975.907A18.054,18.054,0,0,1,40.813,31.719a2.081,2.081,0,0,0-2.054-1.768h-1.7a14.425,14.425,0,0,0-28.625,0h-1.7a2.081,2.081,0,0,0-2.054,1.768A17.951,17.951,0,0,1,7.743,21.694a.666.666,0,0,0-1.106-.742,19.279,19.279,0,0,0-3.28,10.782v.881A3.6,3.6,0,0,0,0,36.2V46.867a3.6,3.6,0,0,0,3.6,3.6h1.07v.577a2.08,2.08,0,0,0,2.077,2.077h2.9a2.08,2.08,0,0,0,2.077-2.077V32.028a2.08,2.08,0,0,0-1.937-2.072,13.092,13.092,0,0,1,25.941,0,2.08,2.08,0,0,0-1.937,2.072V51.039a2.08,2.08,0,0,0,2.077,2.077h2.9a2.08,2.08,0,0,0,2.078-2.077v-.577h1.07a3.6,3.6,0,0,0,3.6-3.6V36.2a3.6,3.6,0,0,0-3.357-3.586ZM3.6,49.13a2.266,2.266,0,0,1-2.264-2.264V36.2A2.266,2.266,0,0,1,3.6,33.937h1.07V49.13Zm6.791-17.1V51.039a.747.747,0,0,1-.746.746h-2.9A.747.747,0,0,1,6,51.039V32.028a.747.747,0,0,1,.746-.746h2.9A.747.747,0,0,1,10.386,32.028ZM44.171,46.867a2.266,2.266,0,0,1-2.264,2.264h-1.07V38.739a.666.666,0,1,0-1.331,0v12.3a.747.747,0,0,1-.746.746h-2.9a.747.747,0,0,1-.746-.746V32.028a.747.747,0,0,1,.746-.746h2.9a.747.747,0,0,1,.746.746v3.555a.666.666,0,0,0,1.331,0V33.937h1.07A2.266,2.266,0,0,1,44.171,36.2Z" transform="translate(2)" fill="#fff"/>
      <path id="Path_38465" data-name="Path 38465" d="M189.224,204.972a.666.666,0,0,0,.666-.666v-5.395a.666.666,0,0,0-1.331,0v5.395A.666.666,0,0,0,189.224,204.972Z" transform="translate(-169.801 -169.385)" fill="#fff"/>
      <path id="Path_38466" data-name="Path 38466" d="M339.1,208.717a.666.666,0,0,0-.666.666v3.533a.666.666,0,1,0,1.331,0v-3.533A.666.666,0,0,0,339.1,208.717Z" transform="translate(-306.359 -178.926)" fill="#fff"/>
      <path id="Path_38467" data-name="Path 38467" d="M219.865,190.442v-8.392a.666.666,0,0,0-1.331,0v8.392a.666.666,0,1,0,1.331,0Z" transform="translate(-197.113 -154.023)" fill="#fff"/>
      <path id="Path_38468" data-name="Path 38468" d="M249.84,197.375v-6.893a.666.666,0,1,0-1.331,0v6.893a.666.666,0,1,0,1.331,0Z" transform="translate(-224.424 -161.704)" fill="#fff"/>
      <path id="Path_38469" data-name="Path 38469" d="M309.792,190.442v-8.392a.666.666,0,0,0-1.331,0v8.392a.666.666,0,0,0,1.331,0Z" transform="translate(-279.048 -154.023)" fill="#fff"/>
      <path id="Path_38470" data-name="Path 38470" d="M279.816,221.527v-1.672a.666.666,0,0,0-1.331,0v1.672a.666.666,0,1,0,1.331,0Z" transform="translate(-251.736 -188.467)" fill="#fff"/>
      <path id="Path_38471" data-name="Path 38471" d="M159.914,221.527v-1.672a.666.666,0,0,0-1.331,0v1.672a.666.666,0,0,0,1.331,0Z" transform="translate(-142.49 -188.467)" fill="#fff"/>
    </g>
  </g>
</svg>
