<svg xmlns="http://www.w3.org/2000/svg" width="501.999" height="484.352" viewBox="0 0 501.999 484.352">
  <g id="vector" transform="translate(0.01)">
    <path id="Path_23800" data-name="Path 23800" d="M434.2,440.062c0,16.166-93.448,29.193-208.746,29.193S16.71,456.186,16.71,440.062s93.457-29.193,208.746-29.193S434.2,423.939,434.2,440.062Z" transform="translate(-2.502 15.097)" fill="#e2e1e1"/>
    <path id="Path_23801" data-name="Path 23801" d="M431.318,28.983c-2.553-26.861-21.926-42.006-43.308-42.627-10.5-.34-241.878-.34-252.378,0C114.25-13.024,94.9,2.121,92.315,28.983S72.38,225.7,72.38,225.7H451.253S433.9,55.844,431.318,28.983Z" transform="translate(-10.806 78.454)" fill="#ffcd88"/>
    <path id="Path_23802" data-name="Path 23802" d="M419.361,48.706C417,24.031,399.247,10.18,379.635,9.567c-9.691-.255-220.207-.255-229.813.026-19.62.587-37.361,14.464-39.743,39.139S91.76,229.17,91.76,229.17h345.9S421.735,73.346,419.361,48.706Z" transform="translate(-13.696 74.982)" fill="#fff9fc"/>
    <path id="Path_23803" data-name="Path 23803" d="M407.288,126.55c0-1-6.951-1.855-16.787-2.212a9.827,9.827,0,0,0-7.53-7.071c-.374-9.223-1.293-15.758-2.357-15.758s-1.948,6.534-2.357,15.732a9.861,9.861,0,0,0-7.53,7.071c-9.827.357-16.787,1.217-16.787,2.212s6.96,1.863,16.787,2.212a9.827,9.827,0,0,0,7.53,7.019c.374,9.24,1.285,15.766,2.357,15.766s1.982-6.526,2.357-15.766a9.8,9.8,0,0,0,7.53-7.019C400.32,128.414,407.288,127.554,407.288,126.55Z" transform="translate(-52.802 61.24)" fill="#e2c1ba"/>
    <path id="Path_23804" data-name="Path 23804" d="M238.245,126.546c0-1-6.968-1.855-16.787-2.212a9.836,9.836,0,0,0-7.547-7.1c-.383-9.223-1.293-15.758-2.357-15.758s-1.982,6.534-2.357,15.758a9.844,9.844,0,0,0-7.538,7.071c-9.827.357-16.779,1.217-16.779,2.212s6.951,1.863,16.779,2.212a9.827,9.827,0,0,0,7.538,7.019c.374,9.24,1.285,15.766,2.357,15.766s1.974-6.526,2.357-15.766a9.819,9.819,0,0,0,7.53-7.019C231.277,128.409,238.245,127.55,238.245,126.546Z" transform="translate(-27.586 61.244)" fill="#e2c1ba"/>
    <path id="Path_23805" data-name="Path 23805" d="M454.2,282.4c0,17.17-13.129,31.107-29.32,31.107H121.439c-16.166,0-29.329-13.928-29.329-31.107h0c0-17.179,13.137-31.115,29.329-31.115H424.876C441.016,251.28,454.2,265.208,454.2,282.4Z" transform="translate(-13.749 38.901)" fill="#ffdeaf"/>
    <path id="Path_23806" data-name="Path 23806" d="M502,178.764c.119-24.3-20.761-44.1-46.643-44.244s-46.95,19.518-47.06,43.8v.425h0v85.51c0,15.749-9.5,29.984-26.648,29.984H120.437c-17.153,0-26.657-14.235-26.657-29.984V178.764h0c0-24.3-20.931-44.023-46.8-44.048S0,154.362,0,178.67c0,19.884,14.167,37.318,34.621,42.542V329.831c0,37.956,20.837,53.6,59.117,53.6H408.3c38.288,0,59.117-15.673,59.117-53.6V221.23C487.841,216.031,502,198.631,502,178.764Z" transform="translate(-0.01 56.316)" fill="#ffcd88"/>
    <path id="Path_23807" data-name="Path 23807" d="M108.868,142.506c5.8-1.166,10.7,2.348,10.7,2.348s23.024,1.183,55.952-7.071,54.7-5.658,54.7-5.658,5-5.777,8.508-6.126a8.457,8.457,0,0,1-.145,9.581s16.166,18.906,21.714,44.116c5.25,23.551,4.28,51.808,4.28,51.808s9.232,6.671,8.951,12.763-17.017-2.127-17.017-2.127a475.423,475.423,0,0,1-54.19,5.148c-23.015.944-66.136,2.221-66.136,2.221s-5.854,7.343-10,5.471.97-10.159.97-10.159-9.759-26.419-12.712-47.647a160.01,160.01,0,0,1,0-44.627S105.516,147.654,108.868,142.506Z" transform="translate(-16.136 57.587)" fill="#ededed"/>
    <path id="Path_23808" data-name="Path 23808" d="M150.134,199.836c3.225,21.773,1.378,48.745-2.306,50.038s-12.244-24.913-15.5-46.677-2.553-44.771,2.791-45.631S146.841,178.062,150.134,199.836Z" transform="translate(-19.454 52.883)" fill="#cddbe4"/>
    <path id="Path_23809" data-name="Path 23809" d="M183.26,171.76s18.531,25.908,34.085,34.093,33.464,9.087,33.464,9.087Z" transform="translate(-27.344 50.762)" fill="#cddbe4"/>
    <path id="Path_23810" data-name="Path 23810" d="M460.994,450.143h12.38V427.17H454Z" transform="translate(-67.726 12.666)" fill="#c6c6c6"/>
    <path id="Path_23811" data-name="Path 23811" d="M109.088,450.143H96.7V427.17h19.425Z" transform="translate(-14.433 12.666)" fill="#c6c6c6"/>
    <path id="Path_23812" data-name="Path 23812" d="M456.765,436.379,454,427.13h19.416v9.249Z" transform="translate(-67.726 12.672)" fill="#c6c6c6"/>
    <path id="Path_23813" data-name="Path 23813" d="M113.317,436.386l2.808-9.206H96.7v9.206Z" transform="translate(-14.433 12.665)" fill="#c6c6c6"/>
    <path id="Path_23814" data-name="Path 23814" d="M425.622,291.821c0,13.324-11.495,24.13-25.679,24.13H135.876c-14.192,0-25.7-10.806-25.7-24.13h0c0-13.324,11.5-24.121,25.7-24.121H399.986c14.184,0,25.7,10.8,25.7,24.121Z" transform="translate(-16.444 36.452)" fill="#ffc472"/>
    <path id="Path_23815" data-name="Path 23815" d="M481.987,257.379c-1.183-12.592-2.068-25.832-2.723-38.288-.749-13.877-3.718-60.614,16.166-71.131" transform="translate(-71.405 54.311)" fill="none" stroke="#ffdcab" stroke-linecap="round" stroke-miterlimit="10" stroke-width="2.32"/>
    <path id="Path_23816" data-name="Path 23816" d="M543.175,233.239c-7.088,1.948-25.823-1.957-27.525-10.959" transform="translate(-76.922 43.226)" fill="none" stroke="#ffdcab" stroke-linecap="round" stroke-miterlimit="10" stroke-width="2.32"/>
    <path id="Path_23817" data-name="Path 23817" d="M103.855,257.379c1.183-12.592,2.068-25.832,2.731-38.288.732-13.877,3.7-60.614-16.166-71.131" transform="translate(-13.497 54.311)" fill="none" stroke="#ffdcab" stroke-linecap="round" stroke-miterlimit="10" stroke-width="2.32"/>
    <path id="Path_23818" data-name="Path 23818" d="M40.77,233.239c7.079,1.948,25.823-1.957,27.508-10.959" transform="translate(-6.091 43.226)" fill="none" stroke="#ffdcab" stroke-linecap="round" stroke-miterlimit="10" stroke-width="2.32"/>
    <path id="Line_45" data-name="Line 45" d="M0,0H321.926" transform="translate(93.685 370.211)" fill="none" stroke="#ffdcab" stroke-linecap="round" stroke-width="2.32"/>
    <path id="Path_23819" data-name="Path 23819" d="M214.718,216.453c5.752,21.543,192.606-2.765,178.831-22.879-10.21-14.873-49-19.042-60.623-21.722-13.614-3.14-80.4-8.764-94.052,2.85C219.925,190.8,211.791,205.477,214.718,216.453Z" transform="translate(-31.949 51.368)" fill="#ff4053"/>
    <path id="Path_23820" data-name="Path 23820" d="M155.908,238.659c-12.516-.2-14.618,9.257-14.618,14.686,0,8.015,7.53,12.227,16.694,14,8.508,1.651,42.942-1.778,42.942-1.778l-2.076-21.85S162.416,238.77,155.908,238.659Z" transform="translate(-21.084 40.784)" fill="#dadada"/>
    <path id="Path_23821" data-name="Path 23821" d="M162.2,238.659c-12.507-.2-14.609,9.257-14.609,14.686,0,8.015,7.53,12.227,16.685,14,8.508,1.651,42.959-1.778,42.959-1.778l-2.093-21.85S168.708,238.77,162.2,238.659Z" transform="translate(-22.024 40.784)" fill="#fff"/>
    <path id="Path_23822" data-name="Path 23822" d="M164.76,238.66c5.837,5.879,6.671,18.787,2.076,28.691,8.508,1.651,42.959-1.778,42.959-1.778l-2.093-21.85S171.269,238.771,164.76,238.66Z" transform="translate(-24.585 40.783)" fill="#396cb3"/>
    <path id="Path_23823" data-name="Path 23823" d="M178.52,245c3.523,3.54,4.024,11.316,1.259,17.272,5.105,1.013,31.481-1.566,31.481-1.566l-1.072-11.291S182.451,245,178.52,245Z" transform="translate(-26.637 39.838)" fill="#144c9c"/>
    <path id="Path_23824" data-name="Path 23824" d="M165.538,265.807s-15.553-2.025-14.507-13.46c1.259-13.818,12.916-12.039,12.916-12.039" transform="translate(-22.529 40.549)" fill="none" stroke="#396cb3" stroke-miterlimit="10" stroke-width="0.58"/>
    <path id="Path_23825" data-name="Path 23825" d="M378.658,238.072c-29.227,17.57-160.444,22.769-161.712,22.53-7.292-3.029-4.382-25.653-.281-29.865,1.846-.434,122.071-38.56,153.943-40.271S411.348,218.4,378.658,238.072Z" transform="translate(-31.702 47.982)" fill="#ff4053"/>
    <path id="Path_23826" data-name="Path 23826" d="M250.969,428.052c2.553,11.495-6.934,15.213-12.618,16.226-8.381,1.506-14.2-4.629-17.791-12.763-3.327-7.521-6.22-39.93-6.22-39.93l23.262-2.2S249.633,422.062,250.969,428.052Z" transform="translate(-31.98 18.301)" fill="#dadada"/>
    <path id="Path_23827" data-name="Path 23827" d="M249.78,422.225c2.553,11.486-6.934,15.154-12.6,16.234-8.4,1.506-14.218-4.637-17.8-12.763-3.327-7.513-6.22-39.93-6.22-39.93l23.254-2.187S248.445,416.269,249.78,422.225Z" transform="translate(-31.804 19.168)" fill="#fff"/>
    <path id="Path_23828" data-name="Path 23828" d="M249.78,422.225c-7.241-4.254-20.914-2.612-30.4,3.471-3.327-7.513-6.22-39.93-6.22-39.93l23.254-2.187S248.445,416.269,249.78,422.225Z" transform="translate(-31.804 19.168)" fill="#396cb3"/>
    <path id="Path_23829" data-name="Path 23829" d="M243.038,412.533c-4.356-2.553-12.593-1.574-18.293,2.093-2-4.527-4.305-29.295-4.305-29.295l12.022-1.132S242.256,408.934,243.038,412.533Z" transform="translate(-32.89 19.075)" fill="#144c9c"/>
    <path id="Path_23830" data-name="Path 23830" d="M222.49,431.31s5.105,13.962,16.813,10.848C253.554,438.4,249.47,428,249.47,428" transform="translate(-33.195 12.542)" fill="none" stroke="#396cb3" stroke-miterlimit="10" stroke-width="0.58"/>
    <path id="Path_23831" data-name="Path 23831" d="M202.362,206.227c-12.916,30.3,5.377,147.851,5.854,148.983,4.518,6.152,28.682,3.565,32.281-1.012.111-1.787,17.357-119.808,13.137-149.5S216.793,172.355,202.362,206.227Z" transform="translate(-29.506 49.291)" fill="#ff4053"/>
    <path id="Path_23832" data-name="Path 23832" d="M414.812,123.95c-3.905,6.245-18,9.759-27.227,2.025a93.132,93.132,0,0,1-15.315-16.711l27.55-9.215S421.33,113.536,414.812,123.95Z" transform="translate(-55.536 61.457)" fill="#f8bb98"/>
    <path id="Path_23833" data-name="Path 23833" d="M392.813,83.73c-13.324-25.066-33.268-53.535-44.491-56.871-10.4-3.123-2.272,56.156-2.272,56.156s21.884,17.264,24.879,21.058C377.48,104.048,386.7,93.625,392.813,83.73Z" transform="translate(-51.174 72.392)" fill="#f6f6f6"/>
    <path id="Path_23834" data-name="Path 23834" d="M336.69,149.288c7.147-8.806-6.458-51.663-5.76-71.233s7.207-48.787,1.931-52.7-28.189-8.7-28.189-8.7H276.051s-23.135,3.523-31.115,11.112-3.148,30.852-3.148,59.032-5.956,57.687.851,65.319S329.543,158.1,336.69,149.288Z" transform="translate(-35.714 73.897)" fill="#f6f6f6"/>
    <path id="Path_23835" data-name="Path 23835" d="M319.62-9.974c-4.977,2.952-11.495,2.348-11.495,2.348l1.081,9.912s-2.034,8.917-14.881,8.806C281.077,11,280.583,2.261,280.583,2.261L280.3-17.411a59.924,59.924,0,0,0-4.424-19.527c-4.365-10.414-7.139-6.492-6.228-18.659,1.183-15.315,35.1-24.053,35.1-24.053L321.968-77.1s5.165,13.614,5.216,25.721S332.885-17.836,319.62-9.974Z" transform="translate(-40.204 88.261)" fill="#f8bb98"/>
    <path id="Path_23836" data-name="Path 23836" d="M264.269-64.091c5.462-18.123,21.195-25.679,37.658-25.679,13.733,0,25.6,4.254,23.773,16.583-1.183,7.972-11.061,16.226-29.78,7.658s-14.184,13-14.184,13,1.472,8.194,0,10.942c-2.153,3.888-5.956,7.811-7.317,4.042S261.589-55.243,264.269-64.091Z" transform="translate(-39.367 89.77)" fill="#24214d"/>
    <path id="Path_23837" data-name="Path 23837" d="M282.786-34.688c4.756.681-2.757,6.4-6.339,5.828-2.553-.4-5.377-3.642-5.377-8.168,0-4.977,3.4-7.011,5.956-6.611C281.518-42.941,279.519-35.147,282.786-34.688Z" transform="translate(-40.441 82.897)" fill="#f8bb98"/>
    <path id="Path_23838" data-name="Path 23838" d="M305.62-39.135c0,1.149-.562,2.076-1.251,2.076s-1.259-.927-1.259-2.076.562-2.025,1.259-2.025S305.62-40.275,305.62-39.135Z" transform="translate(-45.22 82.52)" fill="#392e39"/>
    <path id="Path_23839" data-name="Path 23839" d="M298.536-47.024c2.893-2.178,8.287-2.2,8.287-2.6s.434-2.017,0-2.246-6.858,1.549-8.73,3.778C297.634-47.492,297.77-46.437,298.536-47.024Z" transform="translate(-44.433 84.121)" fill="#24214d"/>
    <path id="Path_23840" data-name="Path 23840" d="M328.41-39.135c0,1.149.57,2.076,1.259,2.076s1.259-.927,1.259-2.076-.57-2.025-1.259-2.025S328.41-40.275,328.41-39.135Z" transform="translate(-48.994 82.52)" fill="#392e39"/>
    <path id="Path_23841" data-name="Path 23841" d="M333.338-47.416c-2.893-2.17-7.292-1.812-7.292-2.212s-.434-2.017,0-2.246,5.956,1.259,7.819,3.488C334.333-47.79,334.129-46.82,333.338-47.416Z" transform="translate(-48.612 84.121)" fill="#24214d"/>
    <path id="Path_23842" data-name="Path 23842" d="M318.194-39.85c-1.234,4.169,2.246,10.287,2.246,10.287" transform="translate(-47.431 82.324)" fill="none" stroke="#e9a37c" stroke-linecap="round" stroke-miterlimit="10" stroke-width="1.5"/>
    <path id="Path_23843" data-name="Path 23843" d="M299,.85c4.561,4.254,12.082,3.531,12.082,3.531" transform="translate(-44.607 76.254)" fill="none" stroke="#e9a37c" stroke-linecap="round" stroke-miterlimit="10" stroke-width="1.5"/>
    <path id="Path_23844" data-name="Path 23844" d="M346.792,84.016c0-9.223-1.081-18.3-1.7-27.406" transform="translate(-51.482 67.937)" fill="none" stroke="#c6c6c6" stroke-miterlimit="10" stroke-width="1.16"/>
    <path id="Path_23845" data-name="Path 23845" d="M318.32-26.494c1.327-1.013,3.667-1.208,4.365.579" transform="translate(-47.489 80.446)" fill="none" stroke="#e9a37c" stroke-linecap="round" stroke-miterlimit="10" stroke-width="1.5"/>
    <path id="Path_23846" data-name="Path 23846" d="M312.76-14.309c4.373,1.583,9.512.919,13.614-.851" transform="translate(-46.66 78.642)" fill="none" stroke="#e9a37c" stroke-linecap="round" stroke-miterlimit="10" stroke-width="1.5"/>
    <path id="Path_23847" data-name="Path 23847" d="M327.987-32.36a.732.732,0,0,0-.525.2.732.732,0,0,0-.232.51.732.732,0,0,0,.232.51.732.732,0,0,0,.525.2.723.723,0,0,0,.522-.2.723.723,0,0,0,.227-.51h0a.723.723,0,0,0-.227-.51A.723.723,0,0,0,327.987-32.36Z" transform="translate(-48.818 81.207)" fill="#e9a37c"/>
    <path id="Path_23848" data-name="Path 23848" d="M331.295-32.924a.579.579,0,0,0-.7.366.528.528,0,0,0,.059.406.528.528,0,0,0,.332.241.57.57,0,0,0,.689-.357.442.442,0,0,0,0-.145.536.536,0,0,0-.383-.511Z" transform="translate(-49.318 81.294)" fill="#e9a37c"/>
    <path id="Path_23849" data-name="Path 23849" d="M330.1-29.38a.34.34,0,0,0-.349.332.34.34,0,0,0,.349.332.34.34,0,0,0,.249-.091.34.34,0,0,0,.109-.241h0a.34.34,0,0,0-.109-.241.34.34,0,0,0-.249-.09Z" transform="translate(-49.194 80.763)" fill="#e9a37c"/>
    <path id="Path_23850" data-name="Path 23850" d="M333.577-31.18a.732.732,0,0,0-.525.2.732.732,0,0,0-.232.51.732.732,0,0,0,.232.51.732.732,0,0,0,.525.2.732.732,0,0,0,.749-.706h0A.732.732,0,0,0,333.577-31.18Z" transform="translate(-49.652 81.031)" fill="#e9a37c"/>
    <path id="Path_23851" data-name="Path 23851" d="M334.646-32.87a.519.519,0,0,0-.372.14.519.519,0,0,0-.164.362.527.527,0,0,0,.536.511.528.528,0,0,0,.378-.142.527.527,0,0,0,.166-.368.528.528,0,0,0-.545-.5Z" transform="translate(-49.844 81.283)" fill="#e9a37c"/>
    <path id="Path_23852" data-name="Path 23852" d="M300.567-30.59a.732.732,0,0,0-.525.2.732.732,0,0,0-.232.51.732.732,0,0,0,.232.51.732.732,0,0,0,.525.2.723.723,0,0,0,.522-.2.723.723,0,0,0,.227-.51h0a.723.723,0,0,0-.227-.51.723.723,0,0,0-.522-.2Z" transform="translate(-44.728 80.943)" fill="#e9a37c"/>
    <path id="Path_23853" data-name="Path 23853" d="M303.966-31.154a.562.562,0,0,0-.689.366.519.519,0,0,0,.053.405.519.519,0,0,0,.33.241.57.57,0,0,0,.689-.366.373.373,0,0,0,0-.136.536.536,0,0,0-.383-.511Z" transform="translate(-45.242 81.03)" fill="#e9a37c"/>
    <path id="Path_23854" data-name="Path 23854" d="M302.759-27.61a.34.34,0,0,0-.349.332.34.34,0,0,0,.349.332.34.34,0,0,0,.249-.091.34.34,0,0,0,.109-.241h0a.34.34,0,0,0-.109-.241.34.34,0,0,0-.249-.091Z" transform="translate(-45.116 80.499)" fill="#e9a37c"/>
    <path id="Path_23855" data-name="Path 23855" d="M306.169-29.42a.732.732,0,0,0-.749.715.732.732,0,0,0,.749.706.732.732,0,0,0,.525-.2.732.732,0,0,0,.232-.51h0a.74.74,0,0,0-.757-.715Z" transform="translate(-45.565 80.769)" fill="#e9a37c"/>
    <path id="Path_23856" data-name="Path 23856" d="M307.256-31.1a.519.519,0,0,0-.372.14.519.519,0,0,0-.164.362.528.528,0,0,0,.536.511.528.528,0,0,0,.536-.511.519.519,0,0,0-.164-.362A.519.519,0,0,0,307.256-31.1Z" transform="translate(-45.759 81.019)" fill="#e9a37c"/>
    <path id="Rectangle_47" data-name="Rectangle 47" d="M466.75,106.629l2.1-1.659,3.386,3.8-2.1,1.651Z" transform="translate(-69.619 -15.657)" fill="#fff496"/>
    <path id="Path_23857" data-name="Path 23857" d="M470.529,22.819c-.511.136-1.872-1.6-1.634-1.821s3.4-3.174,3.88-3.029,1.7,1.217,1.634,1.812S471.022,22.683,470.529,22.819Z" transform="translate(-69.944 73.701)" fill="#fff496"/>
    <path id="Rectangle_48" data-name="Rectangle 48" d="M458.69,111.849l2.1-1.659,3.386,3.8-2.1,1.651Z" transform="translate(-68.417 -16.435)" fill="#fff496"/>
    <path id="Path_23858" data-name="Path 23858" d="M462.45,28c-.493.145-1.863-1.6-1.625-1.812s3.4-3.165,3.88-3.029,1.7,1.242,1.625,1.821S462.944,27.873,462.45,28Z" transform="translate(-68.74 72.927)" fill="#fff496"/>
    <path id="Rectangle_49" data-name="Rectangle 49" d="M451.63,118.019l2.1-1.659,3.386,3.8-2.1,1.651Z" transform="translate(-67.364 -17.356)" fill="#fff496"/>
    <path id="Path_23859" data-name="Path 23859" d="M455.4,34.248c-.5.128-1.855-1.608-1.634-1.829s3.4-3.165,3.888-3.029,1.7,1.234,1.634,1.829S455.893,34.1,455.4,34.248Z" transform="translate(-67.688 71.998)" fill="#fff496"/>
    <path id="Rectangle_50" data-name="Rectangle 50" d="M449.96,87.981l2.1-1.651,3.386,3.786-2.1,1.659Z" transform="translate(-67.115 -12.877)" fill="#fff496"/>
    <path id="Path_23860" data-name="Path 23860" d="M448-2.46c-.238.442,1.344,2.017,1.625,1.829s3.905-2.553,3.871-3.029-.987-1.8-1.625-1.821S448.217-2.893,448-2.46Z" transform="translate(-66.827 77.198)" fill="#fff496"/>
    <path id="Rectangle_51" data-name="Rectangle 51" d="M443.09,94.539l2.1-1.659,3.395,3.8-2.1,1.651Z" transform="translate(-66.09 -13.853)" fill="#fff496"/>
    <path id="Path_23861" data-name="Path 23861" d="M441.106,4.089c-.221.442,1.361,2.025,1.625,1.829s3.914-2.553,3.888-3.029-1-1.812-1.625-1.829S441.336,3.655,441.106,4.089Z" transform="translate(-65.8 76.222)" fill="#fff496"/>
    <path id="Rectangle_52" data-name="Rectangle 52" d="M437.22,108.192l2.11-1.642,3.378,3.8L440.589,112Z" transform="translate(-65.215 -15.892)" fill="#fff496"/>
    <path id="Path_23862" data-name="Path 23862" d="M433.346,9.519c-.23.442,1.353,2.017,1.625,1.821s3.914-2.553,3.88-3.038-.987-1.8-1.625-1.812S433.584,9.085,433.346,9.519Z" transform="translate(-64.642 75.412)" fill="#fff496"/>
    <path id="Path_23863" data-name="Path 23863" d="M307,166.075c8.891-11.384,15.23-4.705,27.108-15.724,10.593-9.827,7.53-22.973-7.164-39.335s-27.823-21.577-39.99-13.511c-13.614,9.1-7.734,16.072-21.271,22.3-15.451,7.13-28.929-7.972-48.422,9.6-14.464,13.035-18.489,35.208,6.262,62.963s48.7,27.908,64.911,16.821C310.282,194.2,296.813,179.05,307,166.075Z" transform="translate(-30.687 62.394)" fill="#e27828"/>
    <path id="Path_23864" data-name="Path 23864" d="M299.632,157.7c9-11.265,15.068-4.918,26.963-15.885,10.636-9.785,7.9-22.462-6.058-38.092S293.8,83.357,281.662,91.466c-13.613,9.1-7.989,15.792-21.382,22.122-15.315,7.275-28.189-7.071-47.724,10.4-14.515,12.992-19.008,34.638,4.578,61.065s47.069,26.07,63.243,14.941C302.185,185.025,289.337,170.62,299.632,157.7Z" transform="translate(-29.924 63.32)" fill="#16133e"/>
    <path id="Path_23865" data-name="Path 23865" d="M306.522,157.965c9-11.265,15.068-4.918,26.963-15.885,10.636-9.785,7.9-22.462-6.058-38.092-6.645-7.445-13.052-12.388-19.2-14.677q7.93,3.948,16.353,13.443c13.988,15.639,16.677,28.282,6.049,38.092-11.912,10.967-17.961,4.62-26.963,15.877-10.312,12.89,2.553,27.278-19.255,42.3-10.21,7.071-23.39,9.759-37.658,4.127,15.366,7.241,29.618,4.654,40.543-2.859C309.074,185.285,296.227,170.881,306.522,157.965Z" transform="translate(-36.814 63.059)" fill="#fcd6b1"/>
    <path id="Path_23866" data-name="Path 23866" d="M312.948,125.024,299.93,110.432,416.921,19.46l8.56,9.581Z" transform="translate(-44.746 73.478)" fill="#e68c72"/>
    <path id="Path_23867" data-name="Path 23867" d="M442.214,32.276A22.649,22.649,0,0,1,427.75,16.109s9.359-4.254,15.188-8.832S454.645-5,454.645-5a26.776,26.776,0,0,1,10.108,6.713,16.387,16.387,0,0,1,4.3,9.453s-6.228,2.025-14.209,8.3a70.561,70.561,0,0,0-12.627,12.814Z" transform="translate(-63.811 77.126)" fill="#fc8f3c"/>
    <line id="Line_46" data-name="Line 46" y1="110.04" x2="138.858" transform="translate(258.273 77.333)" fill="none" stroke="#fff496" stroke-miterlimit="10" stroke-width="0.51"/>
    <line id="Line_47" data-name="Line 47" y1="110.559" x2="138.399" transform="translate(260.434 79.239)" fill="none" stroke="#fff496" stroke-miterlimit="10" stroke-width="0.51"/>
    <line id="Line_48" data-name="Line 48" y1="113.494" x2="135.769" transform="translate(265.224 81.664)" fill="none" stroke="#fff496" stroke-miterlimit="10" stroke-width="0.51"/>
    <line id="Line_49" data-name="Line 49" y1="111.844" x2="135.54" transform="translate(264.254 80.303)" fill="none" stroke="#fff496" stroke-miterlimit="10" stroke-width="0.51"/>
    <path id="Path_23868" data-name="Path 23868" d="M300.129,161.435c-10.21,8.023-25.415,6.807-33.966-2.816s-7.207-23.824,3-31.89,25.415-6.807,33.966,2.816,7.207,23.824-3,31.89Z" transform="translate(-38.87 58.271)" fill="#9325e6"/>
    <path id="Path_23869" data-name="Path 23869" d="M296.012,156.5a15.979,15.979,0,0,1-21.526-1.778,13.75,13.75,0,0,1,1.9-20.208,15.97,15.97,0,0,1,21.526,1.787h0a13.75,13.75,0,0,1-1.9,20.2Z" transform="translate(-40.419 56.817)" fill="#522910"/>
    <path id="Path_23870" data-name="Path 23870" d="M283.133,153.471a13.716,13.716,0,0,1,1.838-20.165,15.137,15.137,0,0,1,3.31-1.991c-8.355-1.1-16.081,4.373-17.247,12.218s4.663,15.094,13.018,16.166a16.166,16.166,0,0,0,8.713-1.268,15.494,15.494,0,0,1-9.632-4.986Z" transform="translate(-40.414 56.815)" fill="#3a1103"/>
    <path id="Path_23871" data-name="Path 23871" d="M457.255-1.942a.332.332,0,0,0,.035-.271.332.332,0,0,0-.18-.206.391.391,0,0,0-.468.077c-6.033,7.2-11.912,12.916-20.667,17.17a.153.153,0,0,0-.06.221.162.162,0,0,0,.2.068C444.773,12.4,452.737,5.384,457.255-1.942Z" transform="translate(-65.025 76.748)" fill="#fff"/>
    <path id="Path_23872" data-name="Path 23872" d="M452.532-4.441a.749.749,0,0,0-1-.085.638.638,0,0,0-.248.449.638.638,0,0,0,.163.487.749.749,0,0,0,1,.077.638.638,0,0,0,.243-.445.638.638,0,0,0-.158-.482Z" transform="translate(-67.321 77.078)" fill="#fff"/>
    <path id="Path_23873" data-name="Path 23873" d="M444.46,2.5v.179a.221.221,0,0,0,.2.221h.2C445.872,2.87,444.6,1.492,444.46,2.5Z" transform="translate(-66.303 76.063)" fill="#fff"/>
    <path id="Path_23874" data-name="Path 23874" d="M437.037,8.249a.468.468,0,0,0-.63,0,.391.391,0,0,0-.051.528C436.722,9.176,437.4,8.649,437.037,8.249Z" transform="translate(-65.083 75.168)" fill="#fff"/>
    <path id="Path_23875" data-name="Path 23875" d="M473.439,19.529a.383.383,0,0,0-.51-.043.332.332,0,0,0-.043.476.383.383,0,0,0,.511,0h0a.315.315,0,0,0,.043-.468Z" transform="translate(-70.531 73.486)" fill="#fff"/>
    <path id="Path_23876" data-name="Path 23876" d="M465.284,25.1a.6.6,0,0,0-.851-.077.528.528,0,0,0-.077.774C464.884,26.344,465.735,25.638,465.284,25.1Z" transform="translate(-69.251 72.669)" fill="#fff"/>
    <path id="Path_23877" data-name="Path 23877" d="M458.2,31.005a.8.8,0,0,0-1.064-.187.689.689,0,0,0-.162.987.8.8,0,0,0,1.064.187h.06a.689.689,0,0,0,.1-.987Z" transform="translate(-68.149 71.802)" fill="#fff"/>
    <path id="Path_23878" data-name="Path 23878" d="M331.718,140.729a.655.655,0,0,0-.893,0,.562.562,0,0,0-.077.783C331.225,142.065,332.2,141.3,331.718,140.729Z" transform="translate(-49.324 55.416)" fill="#fcd6b1"/>
    <path id="Path_23879" data-name="Path 23879" d="M332.669,147.252a.6.6,0,0,0-.8-.111.511.511,0,0,0-.119.749.579.579,0,0,0,.791.111h0a.527.527,0,0,0,.128-.749Z" transform="translate(-49.475 54.45)" fill="#fcd6b1"/>
    <path id="Path_23880" data-name="Path 23880" d="M336.968,146.721a.6.6,0,0,0-.8-.119.511.511,0,0,0-.128.749.6.6,0,0,0,.8.119h0a.519.519,0,0,0,.128-.749Z" transform="translate(-50.116 54.53)" fill="#fcd6b1"/>
    <path id="Path_23881" data-name="Path 23881" d="M336.852,141.3v-.187a.561.561,0,0,0-.519-.6h-.213a.749.749,0,0,0-.851.664.723.723,0,0,0,.7.766.757.757,0,0,0,.851-.647Z" transform="translate(-50.017 55.423)" fill="#fcd6b1"/>
    <path id="Path_23882" data-name="Path 23882" d="M342.123,133.248a.851.851,0,0,0-1.081-.085.681.681,0,0,0-.094,1,.791.791,0,0,0,1.072.094h0a.7.7,0,0,0,.1-1.012Z" transform="translate(-50.837 56.542)" fill="#fcd6b1"/>
    <path id="Path_23883" data-name="Path 23883" d="M342.815,141.2a.851.851,0,0,0-1.174-.23.766.766,0,0,0-.255,1.106.9.9,0,0,0,1.183.23l.077-.051A.766.766,0,0,0,342.815,141.2Z" transform="translate(-50.909 55.375)" fill="#fcd6b1"/>
    <path id="Path_23884" data-name="Path 23884" d="M250.7,208.559l-.247-.247a.851.851,0,0,0-.978-.2.783.783,0,0,0-.332,1.2l.213.272C250.01,210.4,251.422,209.308,250.7,208.559Z" transform="translate(-37.147 45.35)" fill="#fcd6b1"/>
    <path id="Path_23885" data-name="Path 23885" d="M255.844,217.78c-.408-.468-1.183.136-.774.613a.536.536,0,0,0,.715,0,.459.459,0,0,0,.06-.613Z" transform="translate(-38.038 43.923)" fill="#fcd6b1"/>
    <path id="Path_23886" data-name="Path 23886" d="M268.013,214.326a.613.613,0,0,0-.808-.162.536.536,0,0,0-.17.757.613.613,0,0,0,.8.162h.06a.528.528,0,0,0,.119-.757Z" transform="translate(-39.826 44.45)" fill="#fcd6b1"/>
    <path id="Path_23887" data-name="Path 23887" d="M262.433,205.54a.655.655,0,0,0-.851-.128.562.562,0,0,0-.136.851.647.647,0,0,0,.851.136h0a.57.57,0,0,0,.136-.859Z" transform="translate(-38.985 45.758)" fill="#fcd6b1"/>
    <path id="Path_23888" data-name="Path 23888" d="M259.12,213.952a.689.689,0,0,0-.927-.162.613.613,0,0,0-.162.851.7.7,0,0,0,.927.153H259a.587.587,0,0,0,.119-.842Z" transform="translate(-38.481 44.509)" fill="#fcd6b1"/>
    <path id="Path_23889" data-name="Path 23889" d="M276.6,216.6a.723.723,0,0,0-.97-.1.621.621,0,0,0-.1.91.723.723,0,0,0,.961.1.621.621,0,0,0,.111-.91Z" transform="translate(-41.083 44.11)" fill="#fcd6b1"/>
    <path id="Path_23890" data-name="Path 23890" d="M268.481,219.6a.672.672,0,0,0-.9-.077.57.57,0,0,0-.077.851.655.655,0,0,0,.893.077h0a.579.579,0,0,0,.085-.851Z" transform="translate(-39.886 43.658)" fill="#fcd6b1"/>
    <path id="Path_23891" data-name="Path 23891" d="M255.591,149.518s13.809,4.042,16.728,1.285,5.377-12.567,1.353-15.7c-1.353-1.072-6.662,1.293-6.662,1.293l-.213-4.527c-4.8.2-11.206,7.317-11.206,7.317L226.663,121.61,236.83,83.229,222.672,54.7s-29.388,64.349-22.973,77.572C208.752,150.8,255.591,149.518,255.591,149.518Z" transform="translate(-29.659 68.222)" fill="#f8bb98"/>
    <path id="Path_23892" data-name="Path 23892" d="M197.78,88.964c11.572-27.278,28.265-62.614,52.65-66.289,10.763-1.634-9.2,65.047-9.2,65.047s-3.4,15.613-6.373,19.408C228.308,107.13,203.923,98.9,197.78,88.964Z" transform="translate(-29.51 73.003)" fill="#f6f6f6"/>
    <path id="Path_23893" data-name="Path 23893" d="M244,107.516c5.156-18.344,8.381-40.33,13.171-50.906" transform="translate(-36.404 67.937)" fill="none" stroke="#c6c6c6" stroke-miterlimit="10" stroke-width="1.16"/>
    <path id="Path_23894" data-name="Path 23894" d="M221.66,134.556c2.484-1.7,4.892-1.549,7.921-1.566" transform="translate(-33.072 56.544)" fill="none" stroke="#e9a37c" stroke-linecap="round" stroke-miterlimit="10" stroke-width="1.5"/>
    <path id="Path_23895" data-name="Path 23895" d="M396.145,58.59s1.421-22.82,5.054-24.675,14.175,1.957,16.294,6.407c1.455,3.029-10.763,21.118-10.763,21.118s12.065,31.626,13.614,42.3-10.321,21.748-21.833,10.023C383.731,98.784,396.145,58.59,396.145,58.59Z" transform="translate(-58.369 71.393)" fill="#f8bb98"/>
    <path id="Path_23896" data-name="Path 23896" d="M391,110.82s3.106,9.461,6.228,12.95" transform="translate(-58.329 59.851)" fill="none" stroke="#e9a37c" stroke-linecap="round" stroke-miterlimit="10" stroke-width="1.5"/>
    <path id="Line_50" data-name="Line 50" d="M0,23.4,2.493,0" transform="translate(222.154 279.401)" fill="none" stroke="#ff5162" stroke-linecap="round" stroke-width="1.74"/>
    <path id="Path_23897" data-name="Path 23897" d="M322.21,203.735c18.489-5.216,49.979-13.928,64.732-13.222" transform="translate(-48.069 47.971)" fill="none" stroke="#ff5162" stroke-linecap="round" stroke-miterlimit="10" stroke-width="1.74"/>
  </g>
</svg>
