<svg xmlns="http://www.w3.org/2000/svg" width="41.884" height="41.898" viewBox="0 0 41.884 41.898">
  <g id="relax" transform="translate(-0.081 -0.001)">
    <path id="Path_38450" data-name="Path 38450" d="M41.965,27.24a4.151,4.151,0,0,0-3.319-4.089l-2.14-3.435a6.362,6.362,0,0,0-5.381-2.947h-3.46a12.524,12.524,0,0,0-.41-3.471,2.532,2.532,0,0,0,1.206-3.361L27.939,8.83a2.525,2.525,0,0,0-2.987-1.347A7.693,7.693,0,0,0,21.97,4a7.511,7.511,0,0,0-2.942-1.1c-.1-.017-.222-.02-.33-.032a4.178,4.178,0,1,0-7.433,3.641,7.657,7.657,0,0,0-1.088,3.028,7.361,7.361,0,0,0-.07,1.024,7.612,7.612,0,0,0,.844,3.5,2.537,2.537,0,0,0-.995,2.8,6.263,6.263,0,0,0-4.4,2.963L3.323,23.579c-.182.055-.365.1-.545.165a3.936,3.936,0,0,0-1.347,6.7A2.783,2.783,0,0,0,.082,32.824v2.792A2.8,2.8,0,0,0,1.013,37.7l.93-1.042a1.4,1.4,0,0,1-.465-1.042V32.824a1.4,1.4,0,0,1,1.4-1.4h36.3a1.4,1.4,0,0,1,1.4,1.4v2.792a1.4,1.4,0,0,1-1.4,1.4H14.043v1.4h25.13a2.8,2.8,0,0,0,2.792-2.792V32.824A2.783,2.783,0,0,0,40.538,30.4a4.206,4.206,0,0,0,1.427-3.163Zm-6.644-6.786,1.664,2.671-7.337.636L27.027,21.8a.7.7,0,0,0-.419-.14h-.316a7.429,7.429,0,0,0,1.183-2.837c.04-.211.074-.43.1-.654h3.548a4.958,4.958,0,0,1,4.2,2.289ZM26.675,9.423l.524,1.111a1.131,1.131,0,0,1-.38,1.406c-.049-.127-.087-.262-.14-.385l-1.171-2.77a1.128,1.128,0,0,1,1.167.638ZM23.7,8.086l1.7,4.018a9.423,9.423,0,0,1,.373,1.021,11.2,11.2,0,0,1,.479,4.293,9.69,9.69,0,0,1-.144,1.145,6.066,6.066,0,0,1-1.179,2.623,4.149,4.149,0,0,1-.443.471l-6.2.061a11.208,11.208,0,0,1-3.5-3.44,10,10,0,0,1-.545-.928l-2.012-3.865A6.231,6.231,0,0,1,11.5,10.6l.505.182.473-1.313-.819-.3a6.272,6.272,0,0,1,.421-1.252l1.571,1.047.774-1.162L12.8,6.723a6.281,6.281,0,0,1,1.738-1.577L15.52,7.24l1.264-.594L15.8,4.55a6.187,6.187,0,0,1,2.234-.332l-.478,1.91,1.354.338L19.424,4.4a6.142,6.142,0,0,1,1.315.5l-.3.827,1.313.473.181-.5A6.3,6.3,0,0,1,23.7,8.086ZM11.6,15.321,12.993,18c.067.127.131.243.192.353a1.122,1.122,0,0,1-1.317-.614l-.523-1.1A1.147,1.147,0,0,1,11.6,15.321ZM14.741,1.412a2.79,2.79,0,0,1,2.432,1.434,7.677,7.677,0,0,0-5,2.438,2.773,2.773,0,0,1,2.565-3.872ZM6.757,20.536a4.88,4.88,0,0,1,3.784-2.342l.064.134a2.518,2.518,0,0,0,3.344,1.225l.019-.009,0,0a12.641,12.641,0,0,0,2.221,2.383l-9.23.923c-.583.058-1.162.15-1.738.261ZM3.22,25.068a17.959,17.959,0,0,1,3.884-.83l11.826-1.186h7.446L27.633,24l-8.1,1.157a.7.7,0,0,0-.142.036L6.24,30.031H4.025a2.547,2.547,0,0,1-.805-4.963Zm34.627,4.964H36.411L20.387,28.611a.661.661,0,0,0-.286.035l-4.078,1.386H10.276L19.8,26.524l9.039-1.29,8.868-.785h.132a2.4,2.4,0,0,1,.294.017,2.8,2.8,0,0,1-.286,5.567Z" transform="translate(0 0)" fill="#fff"/>
    <path id="Path_38451" data-name="Path 38451" d="M165.4,163.7l.875,1.088a6.119,6.119,0,0,1,2.6-1.221l-.279-1.367A7.522,7.522,0,0,0,165.4,163.7Z" transform="translate(-150.892 -148.046)" fill="#fff"/>
    <path id="Path_38452" data-name="Path 38452" d="M226.87,199.09a3.967,3.967,0,0,1-1.584.377l-.115,0,.033,1.4.114,0a5.381,5.381,0,0,0,3.307-1.25l-.9-1.07A3.957,3.957,0,0,1,226.87,199.09Z" transform="translate(-205.449 -181.218)" fill="#fff"/>
    <path id="Path_38453" data-name="Path 38453" d="M153.922,140.792l.4-1.339a3.826,3.826,0,0,0-4.717,2.228l1.294.525A2.422,2.422,0,0,1,153.922,140.792Z" transform="translate(-136.473 -127.128)" fill="#fff"/>
    <path id="Path_38454" data-name="Path 38454" d="M219.393,108.779l1.283.55a2.424,2.424,0,0,1,3.021-1.43l.42-1.331A3.823,3.823,0,0,0,219.393,108.779Z" transform="translate(-200.176 -97.099)" fill="#fff"/>
    <path id="Path_38455" data-name="Path 38455" d="M0,0H1.4V4.278H0Z" transform="matrix(0.905, -0.426, 0.426, 0.905, 18.388, 13.315)" fill="#fff"/>
    <path id="Path_38456" data-name="Path 38456" d="M237.88,132.193a6.125,6.125,0,0,1,2.6-1.221l-.281-1.367A7.522,7.522,0,0,0,237,131.1Z" transform="translate(-216.25 -118.295)" fill="#fff"/>
    <path id="Path_38457" data-name="Path 38457" d="M41.55,379.064a2.224,2.224,0,0,0-1.4-1A3.2,3.2,0,0,0,39.1,378c-.008-.045-.017-.09-.028-.135a2.151,2.151,0,0,0-1.028-1.355,2.251,2.251,0,0,0-3.008.69,2.832,2.832,0,0,0-.37.883,2.236,2.236,0,0,0-1.779.467l-.022.017a2.052,2.052,0,0,0-.767,1.451,2.029,2.029,0,0,0,.537,1.532l.074.081a2.965,2.965,0,0,0,.728.578,2.051,2.051,0,0,0-.03,1.766,2.277,2.277,0,0,0,2.873,1.145,3.039,3.039,0,0,0,.869-.516,2.277,2.277,0,0,0,1.613.67q.08,0,.16-.006a2.179,2.179,0,0,0,1.526-.765,2.061,2.061,0,0,0,.483-1.542,2.89,2.89,0,0,0-.255-.936,2.082,2.082,0,0,0,1.133-1.393A2.059,2.059,0,0,0,41.55,379.064Zm-1.718.365a.837.837,0,0,1,.531.37.672.672,0,0,1,.088.513.758.758,0,0,1-.739.544,3.171,3.171,0,0,0-1.763-.616A1.674,1.674,0,0,1,39.832,379.429Zm-3.617-1.477a.853.853,0,0,1,1.13-.231.768.768,0,0,1,.372.479.651.651,0,0,1,.005.286,2.891,2.891,0,0,0-1.147,1.415,1.565,1.565,0,0,1-.542-.843A1.417,1.417,0,0,1,36.216,377.952Zm-2.725,2.174a.67.67,0,0,1,.255-.471l.022-.017a.851.851,0,0,1,.961-.065,2.959,2.959,0,0,0,1.042,1.473,1.723,1.723,0,0,1-2.032-.351l-.074-.081A.647.647,0,0,1,33.491,380.126Zm2.284,3.7a.874.874,0,0,1-1.094-.419.661.661,0,0,1,.181-.788c.044,0,.088,0,.132,0a3.115,3.115,0,0,0,1.729-.517,1.412,1.412,0,0,1-.064.873A1.536,1.536,0,0,1,35.774,383.824Zm3.608-.217a.794.794,0,0,1-.558.274.862.862,0,0,1-.836-.475,2.8,2.8,0,0,0,.057-1.76,1.675,1.675,0,0,1,1.5,1.456A.676.676,0,0,1,39.383,383.607Z" transform="translate(-29.219 -343.38)" fill="#fff"/>
  </g>
</svg>
