<svg xmlns="http://www.w3.org/2000/svg" width="39" height="39" viewBox="0 0 39 39">
  <path id="Path_38472" data-name="Path 38472" d="M38.734,18.768A19.7,19.7,0,0,0,32.6,14.073a19.7,19.7,0,0,0,1.019-7.658,1.143,1.143,0,0,0-1.035-1.035A19.7,19.7,0,0,0,24.925,6.4,19.7,19.7,0,0,0,20.231.265a1.142,1.142,0,0,0-1.464,0A19.7,19.7,0,0,0,14.073,6.4,19.7,19.7,0,0,0,6.416,5.381,1.143,1.143,0,0,0,5.381,6.416,19.7,19.7,0,0,0,6.4,14.073,19.7,19.7,0,0,0,.265,18.768a1.142,1.142,0,0,0,0,1.464A19.7,19.7,0,0,0,6.4,24.925a19.7,19.7,0,0,0-1.019,7.658,1.143,1.143,0,0,0,1.035,1.035A19.7,19.7,0,0,0,14.073,32.6a19.7,19.7,0,0,0,4.694,6.135,1.142,1.142,0,0,0,1.464,0A19.7,19.7,0,0,0,24.925,32.6a19.7,19.7,0,0,0,7.658,1.019,1.143,1.143,0,0,0,1.035-1.035A19.7,19.7,0,0,0,32.6,24.925a19.7,19.7,0,0,0,6.135-4.694A1.143,1.143,0,0,0,38.734,18.768ZM31.372,7.627a17.506,17.506,0,0,1-.919,5.645,9.514,9.514,0,0,0-4.468-.259,9.514,9.514,0,0,0-.259-4.468,17.506,17.506,0,0,1,5.645-.919Zm-3.918,7.508a8.686,8.686,0,0,1,2,.24c-1.347,2.274-3.5,3.531-6.052,2.508a4.371,4.371,0,0,1,4.053-2.748Zm-3.59-3.59A4.371,4.371,0,0,1,21.116,15.6c-1.023-2.553.236-4.706,2.508-6.052A8.687,8.687,0,0,1,23.864,11.545ZM20.8,19.5A1.305,1.305,0,1,1,19.5,18.194,1.307,1.307,0,0,1,20.8,19.5ZM19.5,2.709A17.5,17.5,0,0,1,22.842,7.35,9.481,9.481,0,0,0,19.5,10.33a9.481,9.481,0,0,0-3.342-2.98A17.5,17.5,0,0,1,19.5,2.709ZM15.375,9.545c2.274,1.347,3.531,3.5,2.508,6.052C15.355,14.516,14.724,12.1,15.375,9.545Zm.223,8.338c-2.553,1.023-4.706-.236-6.052-2.508C12.105,14.723,14.518,15.357,15.6,17.883ZM13.272,8.545a9.514,9.514,0,0,0-.259,4.468,9.514,9.514,0,0,0-4.468.259,17.506,17.506,0,0,1-.919-5.645,17.506,17.506,0,0,1,5.645.919ZM2.709,19.5A17.5,17.5,0,0,1,7.35,16.157,9.481,9.481,0,0,0,10.33,19.5a9.481,9.481,0,0,0-2.98,3.342A17.5,17.5,0,0,1,2.709,19.5ZM7.627,31.372a17.506,17.506,0,0,1,.919-5.645,9.514,9.514,0,0,0,4.468.259,9.514,9.514,0,0,0,.259,4.468A17.506,17.506,0,0,1,7.627,31.372Zm3.918-7.508a8.686,8.686,0,0,1-2-.24c1.347-2.274,3.5-3.531,6.052-2.508A4.371,4.371,0,0,1,11.545,23.864Zm3.59,3.59A4.371,4.371,0,0,1,17.883,23.4c1.023,2.553-.236,4.706-2.508,6.052A8.687,8.687,0,0,1,15.135,27.454ZM19.5,36.29a17.5,17.5,0,0,1-3.342-4.641,9.481,9.481,0,0,0,3.342-2.98,9.481,9.481,0,0,0,3.342,2.98A17.5,17.5,0,0,1,19.5,36.29Zm4.124-6.836c-2.274-1.347-3.531-3.5-2.508-6.052C23.644,24.482,24.275,26.894,23.624,29.454ZM23.4,21.116c2.553-1.023,4.706.236,6.052,2.508-2.56.652-4.973.018-6.052-2.508Zm2.326,9.338a9.514,9.514,0,0,0,.259-4.468,9.514,9.514,0,0,0,4.468-.259,17.506,17.506,0,0,1,.919,5.645A17.506,17.506,0,0,1,25.727,30.453Zm5.922-7.612a9.481,9.481,0,0,0-2.98-3.342,9.481,9.481,0,0,0,2.98-3.342A17.5,17.5,0,0,1,36.29,19.5,17.5,17.5,0,0,1,31.649,22.842Z" transform="translate(0.001 0.001)" fill="#fff" fill-rule="evenodd"/>
</svg>
