<svg xmlns="http://www.w3.org/2000/svg" width="41.884" height="40.488" viewBox="0 0 41.884 40.488">
  <path id="yoga_1_" data-name="yoga (1)" d="M57.186,63.092H47.239l1.614-.253a4.087,4.087,0,0,0-.646-8.124h-.07L42.9,55.23a13.48,13.48,0,0,1-1.073-4.354A13.783,13.783,0,0,1,43,46.3a3.594,3.594,0,0,0,2.949-2.435L48.5,36.216a1.906,1.906,0,0,0-.654-2.129l-7.522-6.326-1.335-3.325A.7.7,0,0,0,38.338,24H35.546a.693.693,0,0,0-.646.436l-1.335,3.325-7.522,6.326a1.934,1.934,0,0,0-.654,2.129l2.548,7.653A3.608,3.608,0,0,0,30.886,46.3a13.667,13.667,0,0,1,1.169,4.572,13.362,13.362,0,0,1-1.082,4.363l-5.236-.515h-.07a4.082,4.082,0,0,0-.637,8.115l1.614.253H16.7a.7.7,0,1,0,0,1.4H57.186a.7.7,0,1,0,0-1.4Zm-25.131-17.6V42.15h1.466a3.491,3.491,0,0,0,6.841,0h1.466v3.342a21.031,21.031,0,0,0-.838,2.243h-8.1A20.348,20.348,0,0,0,32.056,45.492Zm10.2-4.738H40.433a3.473,3.473,0,0,0,.7-2.094V36.565a3.627,3.627,0,0,0-1.449-2.976,2.7,2.7,0,0,0,.026-.838L43.8,36.1Zm-6.71-7.679a1.4,1.4,0,1,1,2.792,0v.009a2.126,2.126,0,0,0-.236-.009h-2.33c-.079,0-.157.009-.236.009A.009.009,0,0,0,35.546,33.075Zm.236,1.4h2.33a1.912,1.912,0,0,1,1.632,2.094v.366L37.213,35.92a.659.659,0,0,0-.515,0l-2.531,1.012v-.366A1.887,1.887,0,0,1,35.782,34.471Zm1.161,2.845,2.792,1.117v.227a2.1,2.1,0,0,1-2.094,2.094h-1.4A2.1,2.1,0,0,1,34.15,38.66v-.227Zm-.7,4.834h1.4a3.6,3.6,0,0,0,1.353-.271,2.095,2.095,0,0,1-4.1,0A3.6,3.6,0,0,0,36.244,42.15ZM34.2,33.59a3.638,3.638,0,0,0-1.449,2.976V38.66a3.473,3.473,0,0,0,.7,2.094H31.628L30.075,36.1l4.092-3.351A2.693,2.693,0,0,0,34.2,33.59Zm4.887-5.14a.787.787,0,0,0,.2.279l7.67,6.448.026.026a.518.518,0,0,1,.183.585l-2.548,7.644a2.183,2.183,0,0,1-1.4,1.4V42.263l1.9-5.715a1.394,1.394,0,0,0-.436-1.518L37.64,29.253V25.4h.227ZM30.66,44.829a2.183,2.183,0,0,1-1.4-1.4L26.715,35.78A.518.518,0,0,1,26.9,35.2l.026-.026,7.67-6.448a.658.658,0,0,0,.2-.279l1.222-3.054h.227v3.857l-7.051,5.768a1.394,1.394,0,0,0-.436,1.518l1.9,5.715Zm2.792,6.047a9.069,9.069,0,0,0-.2-1.745h7.382a9.069,9.069,0,0,0-.2,1.745,13.89,13.89,0,0,0,1.03,4.5l-.366.035H32.789l-.366-.035A13.89,13.89,0,0,0,33.452,50.876ZM22.981,58.8a2.689,2.689,0,0,1,2.661-2.688l7.051.7h8.516l7.051-.7a2.691,2.691,0,0,1,.393,5.349l-4.913.777-.62-.925a.729.729,0,0,0-.393-.288l-1.658-.471,3.839-1.71a.7.7,0,0,0,.358-.925.7.7,0,0,0-.925-.358l-5.375,2.391-1.134-.323a.729.729,0,0,0-.41.009l-1.841.611-6.038-2.679a.7.7,0,1,0-.567,1.283l5.864,2.609v1.518l-9.6-1.518A2.678,2.678,0,0,1,22.981,58.8Zm13.263,4.293V61.5l1.414-.471L42.09,62.3l.532.794Z" transform="translate(-16 -24)" fill="#fff"/>
</svg>
