<svg xmlns="http://www.w3.org/2000/svg" width="36.299" height="41.443" viewBox="0 0 36.299 41.443">
  <g id="yoga" transform="translate(-6.34 -2)">
    <path id="Path_38440" data-name="Path 38440" d="M52.174,45.005a2.389,2.389,0,0,1-1.5-.528L44.02,39.112a.592.592,0,0,1-.178-.237L41.1,32.186a.592.592,0,1,1,1.095-.45l2.692,6.55,6.532,5.269a1.217,1.217,0,1,0,1.552-1.875L47.8,37.289a.592.592,0,0,1-.178-.263l-2.184-6.512a7.538,7.538,0,0,0-7.153-5.145H36.2a.592.592,0,1,1,0-1.184H38.28a8.722,8.722,0,0,1,8.274,5.956l2.131,6.352,5.046,4.285a2.4,2.4,0,0,1-1.559,4.227Z" transform="translate(-11.941 -9.052)" fill="#fff"/>
    <path id="Path_38441" data-name="Path 38441" d="M8.747,45.007A2.4,2.4,0,0,1,7.188,40.78l5.048-4.285,2.131-6.352a8.722,8.722,0,0,1,8.274-5.953h1.615a.592.592,0,0,1,0,1.184H22.641a7.538,7.538,0,0,0-7.153,5.145L13.3,37.03a.592.592,0,0,1-.178.263L7.955,41.682a1.217,1.217,0,1,0,1.552,1.875l6.532-5.269,2.692-6.55a.592.592,0,1,1,1.095.45l-2.749,6.689a.592.592,0,0,1-.178.237l-6.651,5.363a2.387,2.387,0,0,1-1.5.529Z" transform="translate(0 -9.054)" fill="#fff"/>
    <path id="Path_38442" data-name="Path 38442" d="M20.809,69.356a.592.592,0,0,1-.2-1.148l9.094-3.3a.592.592,0,1,1,.407,1.112l-9.094,3.3a.588.588,0,0,1-.2.037Z" transform="translate(-7.188 -26.211)" fill="#fff"/>
    <path id="Path_38443" data-name="Path 38443" d="M33.862,62.277a.589.589,0,0,1-.583-.479.578.578,0,0,1,.379-.646l1.616-.58a.606.606,0,0,1,.166-.034l3-.186a.265.265,0,0,0,.224-.155.249.249,0,0,0-.03-.266l-1.221-1.585a.514.514,0,0,1-.033-.047l0-.006a.572.572,0,0,1,.106-.813.6.6,0,0,1,.83.1l.041.053a.63.63,0,0,1,.04.058l1.184,1.536a1.4,1.4,0,0,1,.163,1.448,1.454,1.454,0,0,1-1.222.831l-2.913.18-1.536.551a.612.612,0,0,1-.2.035Z" transform="translate(-10.988 -22.486)" fill="#fff"/>
    <path id="Path_38444" data-name="Path 38444" d="M37.7,63.31a4.577,4.577,0,0,1-1.528-.263L25.177,59.1a.592.592,0,0,1,.406-1.112L36.57,61.932a3.359,3.359,0,0,0,4.254-1.954,3.3,3.3,0,0,0,.237-1.234,3.374,3.374,0,0,0-2.013-3.092l-8.59-3.779H20.283L11.7,55.654a3.378,3.378,0,0,0,1.362,6.467,3.315,3.315,0,0,0,1.09-.181.592.592,0,0,1,.388,1.119,4.506,4.506,0,0,1-1.479.246,4.562,4.562,0,0,1-1.835-8.735l8.7-3.83a.592.592,0,0,1,.237-.05H30.583a.592.592,0,0,1,.237.05l8.7,3.83a4.562,4.562,0,0,1,2.723,4.176,4.47,4.47,0,0,1-.321,1.671A4.537,4.537,0,0,1,37.7,63.31Z" transform="translate(-0.884 -19.867)" fill="#fff"/>
    <path id="Path_38445" data-name="Path 38445" d="M45.4,44.619a.592.592,0,0,1-.592-.592V33.5a.592.592,0,1,1,1.184,0V44.027A.592.592,0,0,1,45.4,44.619Z" transform="translate(-15.695 -12.61)" fill="#fff"/>
    <path id="Path_38446" data-name="Path 38446" d="M27.792,44.619a.592.592,0,0,1-.592-.592V33.5a.592.592,0,1,1,1.184,0V44.027A.592.592,0,0,1,27.792,44.619Z" transform="translate(-8.512 -12.61)" fill="#fff"/>
    <path id="Path_38447" data-name="Path 38447" d="M42.054,60.791a.587.587,0,0,1-.17-.025L31.659,57.7a2.876,2.876,0,0,0-1.7.015l-6.809,2.175a.592.592,0,1,1-.36-1.128L29.6,56.592A4.05,4.05,0,0,1,32,56.57l10.225,3.062a.592.592,0,0,1-.169,1.16Z" transform="translate(-6.543 -22.196)" fill="#fff"/>
    <path id="Path_38448" data-name="Path 38448" d="M33.223,18.243a5.633,5.633,0,0,1-5.479-5.764,5.486,5.486,0,1,1,10.957,0A5.633,5.633,0,0,1,33.223,18.243Zm0-10.344a4.45,4.45,0,0,0-4.295,4.58,4.3,4.3,0,1,0,8.59,0A4.45,4.45,0,0,0,33.223,7.9Z" transform="translate(-8.733 -1.924)" fill="#fff"/>
    <path id="Path_38449" data-name="Path 38449" d="M36.912,6.31a.592.592,0,0,1-.5-.911,1.414,1.414,0,0,0,.221-.763,1.452,1.452,0,0,0-2.9,0,1.414,1.414,0,0,0,.221.763.592.592,0,1,1-1,.638,2.594,2.594,0,0,1-.408-1.4,2.636,2.636,0,1,1,5.272,0,2.594,2.594,0,0,1-.408,1.4.592.592,0,0,1-.5.273Z" transform="translate(-10.693)" fill="#fff"/>
  </g>
</svg>
