<svg xmlns="http://www.w3.org/2000/svg" width="476" height="485" viewBox="0 0 476 485">
  <g id="Group_2845" data-name="Group 2845" transform="translate(-1070 -1699)">
    <g id="Group_2835" data-name="Group 2835">
      <g id="illastrtion" transform="translate(-61 35)">
        <g id="Group_2662" data-name="Group 2662">
          <path id="Path_38424" data-name="Path 38424" d="M238,0C369.444,0,476,108.571,476,242.5S369.444,485,238,485,0,376.429,0,242.5,106.556,0,238,0Z" transform="translate(1131 1664)" fill="#ffd9ab" opacity="0.21"/>
        </g>
      </g>
      <g id="flat" transform="translate(1078.235 1740.762)">
        <path id="Path_1983" data-name="Path 1983" d="M422.422,212.282h-10.88a15.211,15.211,0,0,1-13.605-8.408L392,192h30.422Z" transform="translate(3.736 54.031)" fill="#ea9d2d"/>
        <path id="Path_1984" data-name="Path 1984" d="M440,212.282h10.88a15.211,15.211,0,0,0,13.6-8.408L470.422,192H440Z" transform="translate(-13.842 54.031)" fill="#ea9d2d"/>
        <path id="Path_1985" data-name="Path 1985" d="M434.141,160l-6.735,10.1A20.282,20.282,0,0,0,424,181.352v.669a20.282,20.282,0,0,0,5.941,14.342l4.2,4.2,4.2-4.2a20.282,20.282,0,0,0,5.941-14.342v-.669a20.282,20.282,0,0,0-3.406-11.251Z" transform="translate(-7.983 65.749)" fill="#fbb540"/>
        <path id="Path_1986" data-name="Path 1986" d="M174.71,388.775l14.71-14.71L196.775,352H299.746l7.355,22.065,14.71,14.71,14.71,11.768-88.261,47.072L160,403.485Z" transform="translate(-10.964 -26.443)" fill="#00a8ab"/>
        <path id="Path_1987" data-name="Path 1987" d="M244.9,428.49l-3.705,18.526L160,406.425l14.71-14.71,3.255-3.255Z" transform="translate(-10.964 -29.382)" fill="#cf5252"/>
        <path id="Path_1988" data-name="Path 1988" d="M344.905,403.614l-77.623,41.4L264,428.621l64.44-38.531,1.756,1.756Z" transform="translate(-19.348 -29.513)" fill="#cf5252"/>
        <path id="Path_1989" data-name="Path 1989" d="M178.456,203l-15.8,5.149a33.1,33.1,0,0,0-17.308,21.576l-18.373,73.488L68.13,339.988l-22.065-7.355L24,339.988l7.355,36.775,109.47-34.209a20.221,20.221,0,0,0,12.058-10.26l25.573-51.146Z" transform="translate(0 -14.431)" fill="#fcb3b3"/>
        <path id="Path_1990" data-name="Path 1990" d="M320,203l15.8,5.144a33.1,33.1,0,0,1,17.308,21.576l18.373,73.493,58.84,36.775,22.065-7.355,22.065,7.355L467.1,376.763l-109.47-34.209a20.22,20.22,0,0,1-12.058-10.26L320,281.147Z" transform="translate(-23.863 -14.431)" fill="#fcb3b3"/>
        <path id="Path_1991" data-name="Path 1991" d="M270.971,60.775l-2.564-12.819a29.8,29.8,0,0,0-50.293-15.228,95.757,95.757,0,0,0-28.048,67.711v2.076a45.694,45.694,0,0,1-20.35,38.023L168,141.681l5.7,2.85a45.693,45.693,0,0,0,45.785-2.85Z" transform="translate(-11.609 0)" fill="#573126"/>
        <path id="Path_1992" data-name="Path 1992" d="M282.84,190.891l-7.355-1.471V160h-44.13v29.42L224,190.891v35.3l29.42,22.065L282.84,226.2Z" transform="translate(-16.124 -10.964)" fill="#fcb3b3"/>
        <path id="Path_1993" data-name="Path 1993" d="M276.13,160v7.355a36.775,36.775,0,0,1-44.13,0V160Z" transform="translate(-16.769 -10.964)" fill="#fdc9a6"/>
        <path id="Path_1994" data-name="Path 1994" d="M279.727,193.6l29.42,8.642v34.017a36.268,36.268,0,0,1-1.856,42.773L294.437,295.1H206.176l-12.854-16.067a36.268,36.268,0,0,1-1.856-42.773V202.242l29.42-8.642v35.3l29.42,22.065,29.42-22.065Z" transform="translate(-13.01 -13.673)" fill="#fc5f56"/>
        <path id="Path_1995" data-name="Path 1995" d="M207.355,304v12.516a58.848,58.848,0,0,1-3.019,18.607L200,348.13H302.971l-4.336-13.007a58.851,58.851,0,0,1-3.019-18.607V304Z" transform="translate(-14.189 -22.573)" fill="#fcb3b3"/>
        <path id="Path_1996" data-name="Path 1996" d="M336.521,403.483l-14.71-11.768-1.756-1.756L255.616,428.49H244.9l-66.931-40.03-3.255,3.255L160,406.425,241.191,443.2H258.9Z" transform="translate(-10.964 -29.382)" fill="#fff"/>
        <path id="Path_1997" data-name="Path 1997" d="M276.13,160v7.355a36.775,36.775,0,0,1-44.13,0V160Z" transform="translate(-16.769 -10.964)" fill="#f6bb92"/>
        <path id="Path_1998" data-name="Path 1998" d="M68.13,229.42H52.347a22.065,22.065,0,0,1-19.735-12.2L24,200H68.13Z" transform="translate(0 -14.189)" fill="#029532"/>
        <path id="Path_1999" data-name="Path 1999" d="M72,229.42H87.783a22.065,22.065,0,0,0,19.735-12.2L116.13,200H72Z" transform="translate(-3.87 -14.189)" fill="#029532"/>
        <path id="Path_2000" data-name="Path 2000" d="M271.355,470.734l128.733-52.578a28.184,28.184,0,1,0-28.819-48.36L264,433.959Z" transform="translate(-19.348 -27.496)" fill="#00a8ab"/>
        <path id="Path_2001" data-name="Path 2001" d="M231.735,470.734,103,418.157a28.184,28.184,0,1,1,28.819-48.36L239.09,433.959Z" transform="translate(-5.16 -27.496)" fill="#00a8ab"/>
        <path id="Path_2002" data-name="Path 2002" d="M257.551,440l-36.775,7.355L198.71,440,184,454.71l7.355,22.065h73.551Z" transform="translate(-12.899 -33.537)" fill="#fcb3b3"/>
        <path id="Path_2003" data-name="Path 2003" d="M289.551,109.7v14.71a36.775,36.775,0,0,1-73.551,0V94.992A36.744,36.744,0,0,1,217.832,83.5Z" transform="translate(-15.479 -4.797)" fill="#fcb3b3"/>
        <path id="Path_2004" data-name="Path 2004" d="M289.712,92.774v14.71a110.325,110.325,0,0,1-66.2-22.065L218,81.282a36.775,36.775,0,0,1,71.712,11.492Z" transform="translate(-15.64 -2.579)" fill="#321e17"/>
        <path id="Path_2005" data-name="Path 2005" d="M70.71,168l-9.769,14.653A29.42,29.42,0,0,0,56,198.973v.971a29.42,29.42,0,0,0,8.617,20.8l6.093,6.093,6.093-6.093a29.42,29.42,0,0,0,8.617-20.8v-.971a29.421,29.421,0,0,0-4.941-16.321Z" transform="translate(-2.58 -11.609)" fill="#02a437"/>
      </g>
      <path id="Path_38529" data-name="Path 38529" d="M12.4,422.168s37.358,29.32-7.44,36.786" transform="translate(1516.39 1644.125)" fill="#fcb3b3"/>
      <path id="Path_38530" data-name="Path 38530" d="M19.844,422.156s-37.407,29.363,7.392,36.83" transform="translate(1082.39 1644.125)" fill="#fcb3b3"/>
    </g>
  </g>
</svg>
